<svg width="2560" height="626" viewBox="0 0 2560 626" fill="none" xmlns="http://www.w3.org/2000/svg">
<g clip-path="url(#clip0_25_374)">
<rect width="2560" height="626" fill="#404EED"/>
<g clip-path="url(#clip1_25_374)">
<path d="M1099.4 625.9H826.099C814.8 615.8 807.9 604.1 809 593.3C811.3 570 848 566.6 883.6 583.4L890.6 586.9C891.78 582.614 893.673 578.557 896.2 574.9C914 548.8 954.2 546.3 980.2 565.4C983.066 567.495 985.743 569.838 988.2 572.4C991.696 567.567 995.684 563.11 1000.1 559.1C1024.2 537.3 1052.8 532.6 1063.7 546C1073.3 557.8 1065.9 580.5 1047.7 598.4C1047.7 598.4 1101.5 599.7 1099.4 625.9H1099.4Z" fill="#404EED"/>
<path d="M1437.4 625.4C1415.3 579.8 1402.9 525.2 1402.9 525.2L1401.9 519.9L1357.4 525.2V625.4H1437.4Z" fill="#2835BD"/>
<path d="M1427.8 625.4C1408.4 585.4 1397.6 537.5 1397.6 537.5L1395 524.1L1357.7 537.5V625.4H1427.8Z" fill="black"/>
<path d="M1434.8 492H1418.6V625.46H1434.8V492Z" fill="#2835BD"/>
<path d="M1434.8 509.3C1432.37 510.405 1429.68 510.794 1427.04 510.422C1424.4 510.05 1421.93 508.932 1419.9 507.2L1418.6 506.1V500.1L1434.8 497V509.3Z" fill="black"/>
<path d="M1410 625.4C1421.1 622.7 1436.2 608 1436.2 608C1436.2 608 1441.5 619.4 1444.6 625.4H1455.8C1457.01 625.406 1458.21 625.158 1459.31 624.671C1460.42 624.183 1461.41 623.468 1462.22 622.571C1463.03 621.675 1463.65 620.617 1464.02 619.468C1464.4 618.318 1464.53 617.103 1464.4 615.9C1463.9 611 1461.6 605.5 1458.1 597.5C1452.2 584.2 1450.3 577.2 1438.8 577.2H1428.4L1404.4 566.6C1389 574.7 1378.4 579.4 1369.3 584.8C1355.9 593 1345.3 609.2 1355.7 625.4H1410Z" fill="#FFC619"/>
<path d="M1241 537.5V625.4H1362.8C1382.2 585.4 1393 537.5 1393 537.5L1395.9 525.2L1241 537.5Z" fill="#2835BD"/>
<path d="M1365.2 540.2L1241 551.8V625.4H1333.9C1342.9 604.9 1365.2 540.2 1365.2 540.2Z" fill="black"/>
<path d="M1348.7 618.7C1358.95 602.858 1367.08 585.747 1372.9 567.8" stroke="black" stroke-width="2" stroke-linecap="round" stroke-linejoin="round"/>
<path d="M1334.2 606.5C1329.05 606.5 1324.12 608.544 1320.48 612.182C1316.84 615.821 1314.8 620.755 1314.8 625.9H1353.6C1353.6 620.755 1351.56 615.821 1347.92 612.182C1344.28 608.544 1339.35 606.5 1334.2 606.5Z" fill="#404EED"/>
<path d="M1361.8 625.4C1381.2 585.4 1392.1 537.5 1392.1 537.5L1361.8 625.4Z" fill="#2835BD"/>
<path d="M1399.3 625.3C1399.2 625.1 1392.3 607.7 1388.7 596.5L1388.5 595.8C1386.1 588.2 1384.1 582.1 1384.4 576.7L1382.7 577.6C1382.7 583 1384.6 589 1387 596.3L1387.2 597C1390.5 607.2 1396.4 622.5 1397.6 625.4H1399.3V625.3Z" fill="black"/>
<path d="M1461.8 623C1462.42 622.397 1462.88 621.657 1463.16 620.841C1463.44 620.024 1463.52 619.154 1463.4 618.3C1462.7 611.2 1459 602.7 1455.1 593.9L1451.1 584.5L1449.6 585.1C1450.9 588.3 1452.3 591.4 1453.6 594.5C1458.3 605.2 1462.8 615.5 1461.8 623Z" fill="white"/>
<path d="M1428.4 596.9C1426.5 604.7 1423.8 614.4 1420.3 625.4H1399.3C1399.3 625.4 1392.5 607.9 1388.8 596.6C1385.1 585.3 1382.4 577.2 1386.1 569.7C1389.8 562.2 1395.6 561.6 1404.4 566.6L1403.1 580.8L1409.8 599.8L1412.9 589.7C1419.5 585.4 1427.8 587.8 1428.4 596.9Z" fill="#FFC619"/>
<path d="M1401.3 619.1L1399.6 614.2C1395.9 603.3 1392.7 594 1390.5 585.5C1388.7 578.5 1387.2 570.2 1388.1 566.5C1387.36 567.396 1386.73 568.368 1386.2 569.4C1386.2 574.8 1388 582.3 1388.9 585.9C1391.2 594.5 1394.4 603.8 1398.1 614.7L1399.8 619.7C1400.47 621.609 1401.17 623.509 1401.9 625.4H1403.7C1402.9 623.6 1402.2 621.6 1401.3 619.1ZM1416.5 625.4C1418.8 617.7 1422.1 606.4 1426.4 591.8C1426.43 591.695 1426.44 591.585 1426.42 591.477C1426.41 591.368 1426.37 591.264 1426.32 591.17C1426.26 591.076 1426.19 590.995 1426.1 590.932C1426.01 590.868 1425.91 590.823 1425.8 590.8C1425.65 590.728 1425.49 590.709 1425.33 590.747C1425.17 590.784 1425.03 590.876 1424.93 591.006C1424.86 591.093 1424.82 591.193 1424.8 591.3C1420.4 606.2 1417.1 617.7 1414.8 625.4H1416.5Z" fill="white"/>
<path d="M1424.6 535.4C1412 533.6 1407.2 534.5 1402.5 545.1C1397.8 555.7 1400.2 564.7 1408 576.1C1415.8 587.5 1435 585.4 1442.3 582.7C1449.6 580 1456 572.7 1459.6 562.4C1463.2 552.1 1462.1 540.8 1456.7 534.6C1451.3 528.4 1442.2 523.3 1434 525.9C1425.8 528.5 1424.6 535.4 1424.6 535.4Z" fill="#DE3A93"/>
<path d="M1430.7 550.3L1426.9 549.3M1430.9 551.9L1427 552.4M1458.5 550L1461.5 548M1458.3 551.7L1461.4 551.2" stroke="black" stroke-width="2" stroke-linecap="round" stroke-linejoin="round"/>
<path d="M1420.5 525.2C1418.4 525.2 1416.8 526.6 1416.7 527.6C1416.6 528.6 1420.4 531.8 1425.3 537.9L1426.6 537.4C1422 525.6 1422.6 525.1 1420.5 525.2Z" fill="black"/>
<path d="M1430.2 534.5C1426.4 536.9 1422 540.2 1422 540.2" stroke="black" stroke-width="2" stroke-linecap="round" stroke-linejoin="round"/>
<path d="M1428.4 596.9C1429.6 591.8 1430.5 587.5 1431 584.2C1432.4 575.6 1429.8 574.2 1426 573.1C1422.2 572 1419.5 569.9 1417.7 563.4C1415.9 556.9 1414.8 557 1412.6 558.1C1410.2 559.399 1408.14 561.25 1406.6 563.5C1405.4 565.6 1405.6 568 1407.9 573.9C1409.42 577.59 1411.87 580.827 1415 583.3L1412.9 589.7C1420.6 589.4 1425.2 590.4 1428.4 596.9ZM1440.9 592.9C1439.8 588 1438.4 582.7 1440.9 581.3C1443.4 579.9 1451.1 576.3 1455.3 567.2C1455.43 566.859 1455.67 566.566 1455.97 566.361C1456.27 566.155 1456.63 566.047 1457 566.049C1457.24 566.052 1457.48 566.103 1457.7 566.2H1457.9C1458.17 566.299 1458.41 566.482 1458.58 566.722C1458.74 566.962 1458.83 567.247 1458.83 567.539C1458.82 567.733 1458.78 567.924 1458.7 568.1C1456.65 572.45 1454.21 576.601 1451.4 580.5C1451.98 582.845 1452.72 585.15 1453.6 587.4C1449 589.7 1440.9 592.9 1440.9 592.9Z" fill="#FF78B9"/>
<path d="M1416.3 576.9C1416.45 576.735 1416.53 576.522 1416.53 576.3C1416.53 576.078 1416.45 575.865 1416.3 575.7C1414.81 574.133 1413.47 572.425 1412.3 570.6C1410.4 567.3 1408.6 561.4 1409.9 559.9L1408.5 561.2C1408.28 561.44 1408.11 561.725 1408.01 562.035C1407.9 562.346 1407.87 562.675 1407.9 563C1408.43 565.947 1409.44 568.785 1410.9 571.4C1412.11 573.371 1413.52 575.214 1415.1 576.9L1415.7 577.1L1416.3 576.9Z" fill="black"/>
<path d="M1415.8 583.5C1418.69 583.144 1421.59 583.011 1424.5 583.1M1406.3 610.7L1412.6 590.7M1409.8 599.8L1403.7 582.3M1441 593.7C1442.8 603.4 1446.7 617 1446.7 617" stroke="black" stroke-width="2" stroke-linecap="round" stroke-linejoin="round"/>
<path d="M1359.9 600C1356.43 600 1353.09 601.38 1350.64 603.837C1348.18 606.294 1346.8 609.626 1346.8 613.1V625.9H1372.9V613.1C1372.9 609.643 1371.53 606.326 1369.1 603.872C1366.66 601.419 1363.36 600.027 1359.9 600Z" fill="#404EED"/>
<path d="M1372.9 613.1C1371.21 613.086 1369.54 613.408 1367.97 614.045C1366.41 614.682 1364.98 615.624 1363.78 616.814C1362.58 618.004 1361.63 619.419 1360.98 620.978C1360.33 622.538 1360 624.211 1360 625.9H1385.7C1385.7 622.505 1384.35 619.25 1381.95 616.85C1379.55 614.45 1376.29 613.101 1372.9 613.1Z" fill="#404EED"/>
<path d="M1413 501.5L1432.7 498.4" stroke="black" stroke-width="8" stroke-linecap="round" stroke-linejoin="round"/>
<path d="M1454.2 538.1L1454.9 539.2M1444.3 530.8C1446.89 531.576 1449.28 532.907 1451.3 534.7" stroke="#FFA8D2" stroke-width="3" stroke-linecap="round" stroke-linejoin="round"/>
<path d="M1432.2 498.5C1448.9 495.7 1475.7 489.5 1489.6 485.8" stroke="#2835BD" stroke-width="8" stroke-linecap="round" stroke-linejoin="round"/>
<path d="M1484.6 488.5L1489.9 513.1" stroke="black" stroke-width="2" stroke-linecap="round" stroke-linejoin="round"/>
<path d="M1494.9 512.3V509.1H1474.3V512.4C1474.26 512.856 1474.12 513.299 1473.9 513.7C1472.87 515.202 1472.31 516.978 1472.3 518.8V531.9C1472.3 534.113 1473.1 536.251 1474.55 537.923C1476 539.594 1478.01 540.687 1480.2 541C1483.15 541.4 1486.15 541.4 1489.1 541C1491.26 540.663 1493.23 539.558 1494.65 537.886C1496.06 536.215 1496.83 534.089 1496.8 531.9V518.8C1496.82 516.988 1496.3 515.21 1495.3 513.7C1495.02 513.289 1494.88 512.798 1494.9 512.3Z" fill="#8CD9FF"/>
<path d="M1493 513.7V509.6H1476.1V513.7C1476.1 514.506 1475.9 515.299 1475.5 516C1474.7 517.18 1474.28 518.576 1474.3 520V531.2C1474.3 533.059 1474.97 534.857 1476.18 536.269C1477.39 537.68 1479.06 538.614 1480.9 538.9C1483.29 539.2 1485.71 539.2 1488.1 538.9C1489.96 538.656 1491.67 537.738 1492.91 536.319C1494.14 534.901 1494.82 533.08 1494.8 531.2V520C1494.79 518.593 1494.41 517.213 1493.7 516C1493.27 515.305 1493.03 514.514 1493 513.7Z" fill="#5866FC"/>
<path d="M1474.3 510.7C1474.3 512.1 1478.9 513.2 1484.6 513.2C1490.3 513.2 1494.9 512.1 1494.9 510.7L1484.6 506.6L1474.3 510.7Z" fill="#8CD9FF"/>
<path d="M1473.7 509.9C1473.61 510.051 1473.56 510.217 1473.53 510.39C1473.51 510.563 1473.52 510.738 1473.57 510.906C1473.62 511.074 1473.7 511.231 1473.8 511.367C1473.91 511.504 1474.05 511.617 1474.2 511.7C1475.9 512.7 1479.9 513.4 1484.6 513.4C1489.3 513.4 1493.3 512.7 1495 511.7C1495.29 511.514 1495.5 511.228 1495.59 510.896C1495.69 510.563 1495.65 510.209 1495.5 509.9L1484.6 488.5L1473.7 509.9Z" stroke="black" stroke-width="2" stroke-linecap="round" stroke-linejoin="round"/>
<path d="M1483.6 532L1480.5 531.3C1480.2 531.192 1479.95 530.979 1479.8 530.7C1479.66 530.421 1479.63 530.097 1479.73 529.798C1479.82 529.5 1480.02 529.249 1480.3 529.1C1480.45 529.012 1480.62 528.956 1480.79 528.933C1480.96 528.911 1481.14 528.923 1481.31 528.969C1481.47 529.015 1481.63 529.095 1481.77 529.204C1481.9 529.312 1482.02 529.447 1482.1 529.6L1483.6 532ZM1483.6 532L1483.4 528.9C1483.39 528.753 1483.42 528.607 1483.47 528.47C1483.52 528.332 1483.6 528.207 1483.7 528.1C1483.79 527.97 1483.9 527.862 1484.03 527.784C1484.17 527.706 1484.32 527.66 1484.48 527.651C1484.63 527.641 1484.79 527.667 1484.93 527.728C1485.07 527.789 1485.2 527.882 1485.3 528C1485.56 528.215 1485.73 528.523 1485.77 528.859C1485.8 529.196 1485.71 529.533 1485.5 529.8L1483.6 532Z" fill="white"/>
<path d="M1484.2 534.9C1482.5 535.4 1480.9 534.9 1480.5 533.8C1480.1 532.7 1480.7 532.1 1482.3 531.7C1483 531.52 1483.67 531.251 1484.3 530.9C1485.6 530.2 1486.3 531 1486.6 531.9C1486.9 532.8 1485.9 534.3 1484.2 534.9Z" fill="#121B80"/>
<path d="M1481.14 531.878L1479.94 531.857C1479.74 531.853 1479.54 531.889 1479.36 531.961C1479.18 532.033 1479.01 532.141 1478.87 532.278C1478.73 532.415 1478.61 532.578 1478.53 532.759C1478.46 532.94 1478.41 533.134 1478.41 533.331L1478.41 533.421C1478.4 533.819 1478.55 534.203 1478.83 534.489C1479.11 534.775 1479.48 534.94 1479.88 534.947L1481.08 534.968C1481.48 534.975 1481.86 534.823 1482.15 534.547C1482.44 534.27 1482.6 533.892 1482.61 533.494L1482.61 533.404C1482.62 533.006 1482.46 532.622 1482.19 532.336C1481.91 532.05 1481.53 531.885 1481.14 531.878Z" fill="#FFE75C"/>
<path d="M1486.8 520.2L1489.6 518.7C1489.82 518.511 1489.99 518.27 1490.1 518C1490.19 517.695 1490.16 517.366 1490.01 517.084C1489.94 516.945 1489.84 516.821 1489.71 516.721C1489.59 516.621 1489.45 516.546 1489.3 516.5C1488.97 516.408 1488.61 516.451 1488.31 516.619C1488.01 516.788 1487.79 517.069 1487.7 517.4L1486.8 520.2Z" fill="white"/>
<path d="M1486.8 520.2L1486.3 517.1C1486.19 516.8 1486.02 516.527 1485.8 516.3C1485.52 516.154 1485.21 516.103 1484.9 516.158C1484.59 516.212 1484.31 516.368 1484.1 516.6C1483.91 516.907 1483.84 517.276 1483.92 517.63C1483.99 517.984 1484.2 518.296 1484.5 518.5L1486.8 520.2Z" fill="white"/>
<path d="M1487.6 519.8C1489 520.8 1489.7 522.4 1489 523.3C1488.3 524.2 1487.5 524.3 1486.2 523.2C1485.65 522.754 1485.05 522.384 1484.4 522.1C1484.22 522.054 1484.04 521.971 1483.89 521.856C1483.74 521.741 1483.61 521.597 1483.52 521.431C1483.43 521.266 1483.37 521.083 1483.34 520.894C1483.32 520.705 1483.34 520.514 1483.4 520.332C1483.47 520.089 1483.61 519.87 1483.8 519.7C1484.4 518.7 1486.2 518.8 1487.6 519.8Z" fill="#121B80"/>
<path d="M1486.9 523.398L1487.61 524.368C1487.73 524.527 1487.87 524.662 1488.04 524.765C1488.21 524.867 1488.4 524.936 1488.59 524.966C1488.79 524.997 1488.99 524.988 1489.18 524.942C1489.37 524.896 1489.55 524.812 1489.71 524.696L1489.78 524.643C1489.94 524.527 1490.07 524.381 1490.18 524.213C1490.28 524.045 1490.35 523.858 1490.38 523.663C1490.41 523.469 1490.4 523.27 1490.35 523.078C1490.31 522.887 1490.22 522.706 1490.11 522.547L1489.4 521.577C1489.29 521.418 1489.14 521.283 1488.97 521.18C1488.8 521.078 1488.62 521.009 1488.42 520.979C1488.23 520.948 1488.03 520.957 1487.84 521.003C1487.65 521.049 1487.47 521.133 1487.31 521.249L1487.23 521.302C1487.07 521.418 1486.94 521.564 1486.84 521.733C1486.73 521.901 1486.67 522.087 1486.63 522.282C1486.6 522.477 1486.61 522.675 1486.66 522.867C1486.71 523.058 1486.79 523.239 1486.9 523.398Z" fill="#FFE75C"/>
<path d="M1484.6 511.6C1490.29 511.6 1494.9 510.481 1494.9 509.1C1494.9 507.719 1490.29 506.6 1484.6 506.6C1478.91 506.6 1474.3 507.719 1474.3 509.1C1474.3 510.481 1478.91 511.6 1484.6 511.6Z" fill="#8CD9FF"/>
<path d="M1495 509.1H1474.3V510.52H1495V509.1Z" fill="#8CD9FF"/>
<path d="M1488.8 509.9C1488.3 510 1487.9 510.3 1487.9 510.8C1487.92 510.959 1487.98 511.108 1488.09 511.23C1488.19 511.351 1488.33 511.438 1488.48 511.479C1488.59 511.507 1488.69 511.514 1488.8 511.5L1490.5 511.2C1490.72 511.162 1490.93 511.055 1491.09 510.894C1491.26 510.733 1491.36 510.525 1491.4 510.3C1491.39 510.197 1491.36 510.098 1491.3 510.01C1491.25 509.921 1491.18 509.845 1491.09 509.787C1491.01 509.73 1490.91 509.692 1490.81 509.677C1490.7 509.662 1490.6 509.67 1490.5 509.7L1488.8 509.9Z" fill="white"/>
<path d="M1484.6 488.5L1479.3 513.1M1485.4 490.2L1482.8 484.6M1484.8 490.5L1485.1 484.1" stroke="black" stroke-width="2" stroke-linecap="round" stroke-linejoin="round"/>
<path d="M1456.7 555.4C1460 551.6 1459.5 549.3 1458.4 548.6C1457.3 547.9 1455.6 549.2 1452.6 554C1449.6 558.8 1452.1 560.6 1456.7 555.4ZM1441 555.4C1438.8 550.8 1435 547.5 1431.5 548C1428 548.5 1429.4 553.7 1434 557.2C1438.6 560.7 1443.4 560.4 1441 555.4Z" fill="white"/>
<path d="M1458.2 551.2C1458.39 550.3 1458.32 549.362 1458 548.5C1457.1 548.4 1455.7 549.4 1453.8 552.1C1454 553.5 1454.7 554.5 1455.5 554.6C1456.3 554.7 1458 553.3 1458.2 551.2ZM1441.1 555.7C1441.1 555.6 1441 555.5 1441 555.4C1439.93 553.083 1438.32 551.058 1436.3 549.5C1435.72 550.643 1435.48 551.925 1435.6 553.2C1435.8 555.9 1437.2 558 1438.8 557.9C1439.37 557.824 1439.89 557.57 1440.31 557.175C1440.72 556.779 1441 556.263 1441.1 555.7Z" fill="black"/>
<path d="M1443 565.7C1449.3 564.1 1451.8 563.4 1452.8 564.8C1453.8 566.2 1452.9 567.8 1451.4 569.4C1453 572.9 1452.5 574.5 1449.4 574.5C1447.14 574.339 1444.95 573.654 1443 572.5" stroke="black" stroke-width="2" stroke-linecap="round" stroke-linejoin="round"/>
<path d="M1449.7 567.7C1449.31 568.738 1448.77 569.715 1448.1 570.6" stroke="black" stroke-width="2" stroke-linecap="round" stroke-linejoin="round"/>
<path d="M1021.6 625.4H1032L1039.8 601.6H1019.3L1021.6 625.4Z" fill="black"/>
<path d="M1152.7 625.4H1097C1061.2 625.4 1040.6 615.1 1025.2 603.4L1021.6 625.4H1012.5C1012.5 519.8 1026.1 419.6 1026.1 419.6C1028.1 408.3 1049.6 403.2 1076.3 412.5C1103 421.8 1110.1 433.7 1109.1 444.5C1108.1 455.3 1099.6 528.1 1096.4 562.2L1102.1 568.4C1104.07 570.443 1105.52 572.919 1106.36 575.628C1107.19 578.338 1107.38 581.205 1106.9 584L1106.3 587.3C1128.3 601.5 1162.3 594.4 1152.7 625.4Z" fill="#29CC7A"/>
<path d="M1037.2 439C1036.3 451.6 1036.1 456.8 1036.1 458.8C1036.09 459.116 1036.15 459.43 1036.27 459.723C1036.39 460.015 1036.57 460.28 1036.8 460.5C1042.7 466.4 1049.7 468.3 1055.2 469C1055.52 469.042 1055.84 469.017 1056.15 468.926C1056.46 468.836 1056.74 468.683 1056.99 468.476C1057.23 468.269 1057.43 468.013 1057.57 467.724C1057.71 467.435 1057.79 467.121 1057.8 466.8L1058.9 450.8" stroke="white" stroke-width="2" stroke-miterlimit="10" stroke-linecap="round"/>
<path d="M1032.8 556.3C1029.49 556.37 1026.21 555.578 1023.3 554M1024.5 560.9C1028.8 561.5 1034.1 559.6 1034.1 559.6" stroke="black" stroke-width="4" stroke-miterlimit="10" stroke-linecap="round"/>
<path d="M1083.8 489.1C1082.9 498.1 1082.7 508 1087.2 510.6C1090 512.3 1095.7 512.1 1102 509.1C1104.5 484.2 1107.2 462.8 1108.5 450.7L1078.7 455.6C1075.8 481.3 1075.3 489.7 1083.8 489.1Z" fill="#15AD75"/>
<path d="M1104.53 452.681C1109.31 442.661 1096.49 426.579 1075.91 416.759C1055.32 406.939 1034.76 407.101 1029.98 417.121C1025.2 427.14 1038.01 443.223 1058.6 453.043C1079.19 462.862 1099.75 462.7 1104.53 452.681Z" fill="black"/>
<path d="M1025.2 603.4C1040.6 615.1 1061.2 625.4 1097 625.4H1152.7C1153.65 622.523 1154.19 619.527 1154.3 616.5C1095.2 616.5 1060.9 615.3 1013.3 579.7C1012.9 593.9 1012.6 609.2 1012.5 625.4H1021.6L1025.2 603.4Z" fill="#57F287"/>
<path d="M1029.2 553.1C1031.8 563.2 1038.9 570.9 1045.1 570.3C1051.3 569.7 1051.5 563.9 1049.1 554.2C1048.5 551.6 1048 549.1 1047.5 546.5C1045.7 537.3 1041.2 533.3 1035.7 533.8C1030.2 534.3 1026.5 543.1 1029.2 553.1Z" fill="white"/>
<path d="M1029.2 553.1C1031.8 563.2 1038.9 570.9 1045.1 570.3C1051.3 569.7 1051.5 563.9 1049.1 554.2C1048.5 551.6 1048 549.1 1047.5 546.5C1045.7 537.3 1041.2 533.3 1035.7 533.8C1030.2 534.3 1026.5 543.1 1029.2 553.1Z" fill="white"/>
<path d="M1045.5 553.2C1046.5 557.6 1045.8 561.5 1044.1 561.8C1042.4 562.1 1040.3 559.8 1039.6 554.3C1038.9 548.8 1039.3 545.8 1041 545.8C1042.7 545.8 1044.6 548.7 1045.5 553.2Z" fill="black"/>
<path d="M1103.4 586.5C1103.62 586.513 1103.84 586.441 1104.02 586.3C1104.19 586.159 1104.31 585.958 1104.34 585.737C1104.36 585.59 1104.35 585.44 1104.3 585.3C1102.3 575.3 1096.2 573.9 1084.9 576.5C1073.6 579.1 1069.1 580.1 1066.9 580.9C1064.7 581.7 1065.7 582.2 1080.6 584.5C1088.14 585.767 1095.76 586.436 1103.4 586.5Z" fill="#15AD75"/>
<path d="M1153.8 611.4C1142.7 611.5 1124.2 611.3 1106 610.1C1072.2 607.8 1041.1 595.2 1013.5 572.7V574.5C1041.1 596.8 1072.1 609.3 1105.9 611.5C1122.9 612.7 1140.1 612.9 1151.4 612.9H1154.1L1153.8 611.4Z" fill="black"/>
<path d="M1047.5 546.6C1045.7 537.4 1041.2 533.4 1035.7 533.9C1030.2 534.4 1028.7 538.5 1028.3 544.4C1034.49 546.398 1041.02 547.146 1047.5 546.6Z" fill="#5866FC"/>
<path d="M1189.4 466.3L1156.1 484.9C1156.67 485.427 1157.39 485.767 1158.16 485.874C1158.92 485.981 1159.71 485.851 1160.4 485.5C1162.3 484.7 1166.9 480.5 1168.7 479.5C1170.5 478.5 1175.6 476.5 1178.1 475.5C1181.18 474.279 1184.08 472.629 1186.7 470.6C1188.9 468.8 1189.7 468.1 1189.4 466.3Z" fill="black"/>
<path d="M1107.2 397.2C1101.1 393.4 1100.8 393.5 1097.4 387.4C1094 381.3 1089.7 378.3 1084.7 377.6L1090.9 422.5C1103.9 426.3 1111.9 419.7 1113.7 413.2C1115.5 406.7 1113.4 401 1107.2 397.2Z" fill="#3442D9"/>
<path d="M1101.1 403.1C1099.4 395.8 1094.9 387.3 1089.6 380.9C1087.7 378.588 1086.35 375.873 1085.66 372.962C1084.97 370.051 1084.95 367.02 1085.6 364.1L1087.8 354.1C1089.35 347.159 1088.52 339.901 1085.46 333.484C1082.4 327.067 1077.27 321.862 1070.9 318.7C1067.24 316.9 1063.27 315.847 1059.2 315.6C1051.55 315.039 1043.98 317.483 1038.1 322.412C1032.21 327.341 1028.49 334.367 1027.7 342C1027.53 343.293 1027.47 344.597 1027.5 345.9V350.2L1027.7 368.2C1027.92 376.287 1026.2 384.308 1022.7 391.6C1021.25 394.493 1020.14 397.548 1019.4 400.7L1068.3 452.7C1091.6 448.8 1106.2 426.3 1101.1 403.1Z" fill="#3442D9"/>
<path d="M1068.4 452.7C1091.6 448.8 1106.2 426.3 1101.1 403.1C1099.5 396.2 1095.4 388.2 1090.5 382" stroke="black" stroke-width="2" stroke-miterlimit="10" stroke-linecap="round"/>
<path d="M1085.5 404.6C1090.1 397 1091.9 398 1100.1 400.2C1106.7 401.9 1114.3 415.4 1104.2 422.2C1094.1 429 1073.5 424.9 1085.5 404.6Z" fill="#3442D9"/>
<path d="M1062.7 382.187C1063.63 381.482 1063.77 380.129 1063.04 379.163C1062.3 378.198 1060.95 377.987 1060.03 378.691C1059.11 379.396 1058.96 380.749 1059.7 381.714C1060.44 382.68 1061.78 382.891 1062.7 382.187ZM1075.3 382.969C1076.22 382.265 1076.37 380.911 1075.63 379.946C1074.89 378.981 1073.55 378.769 1072.63 379.474C1071.71 380.178 1071.56 381.532 1072.29 382.497C1073.03 383.462 1074.38 383.674 1075.3 382.969Z" fill="black"/>
<path d="M1074 381.4C1084.7 390.2 1080.3 396.5 1088.9 409.5" stroke="white" stroke-width="3.006" stroke-miterlimit="10" stroke-linecap="round"/>
<path d="M1061.9 401.1C1068.5 396.5 1070.5 395.2 1073 395.3L1079.5 395.9L1077.8 422.3L1061.3 421.8L1061.9 401.1Z" fill="#FFC619"/>
<path d="M1093.9 394.4C1094.02 394.051 1094.07 393.677 1094.02 393.309C1093.98 392.941 1093.85 392.588 1093.65 392.278C1093.44 391.968 1093.17 391.71 1092.85 391.523C1092.53 391.336 1092.17 391.225 1091.8 391.2L1080.8 389.6C1080 389.515 1079.2 389.707 1078.52 390.144C1077.85 390.581 1077.35 391.236 1077.1 392L1070.9 415C1070.78 415.349 1070.73 415.723 1070.78 416.091C1070.82 416.459 1070.95 416.812 1071.15 417.122C1071.36 417.432 1071.63 417.691 1071.95 417.878C1072.27 418.065 1072.63 418.175 1073 418.2L1084 419.8C1084.8 419.885 1085.6 419.693 1086.28 419.256C1086.95 418.819 1087.45 418.164 1087.7 417.4L1093.9 394.4Z" fill="black"/>
<path d="M1093.4 392.1L1094.6 393.5L1091.3 393.8L1093.4 392.1Z" fill="black"/>
<path d="M1098.8 407.3C1097.4 405 1096.1 402.1 1092.3 401.5L1091.8 406.3L1098.8 407.3Z" fill="#FFC619"/>
<path d="M1095 395.7C1095.11 395.351 1095.13 394.983 1095.08 394.622C1095.03 394.26 1094.9 393.915 1094.69 393.611C1094.49 393.306 1094.23 393.048 1093.92 392.857C1093.61 392.665 1093.26 392.543 1092.9 392.5L1081.8 390.9C1081 390.833 1080.21 391.033 1079.54 391.467C1078.87 391.902 1078.36 392.546 1078.1 393.3L1071.9 416.3C1071.79 416.649 1071.77 417.017 1071.82 417.378C1071.87 417.739 1072 418.084 1072.2 418.389C1072.4 418.694 1072.67 418.952 1072.98 419.144C1073.29 419.336 1073.64 419.458 1074 419.5L1085.1 421C1085.88 421.128 1086.68 420.963 1087.34 420.539C1088 420.114 1088.49 419.46 1088.7 418.7L1095 395.7Z" fill="white"/>
<path d="M1091.6 404.8L1096.1 405.5C1097.01 405.602 1097.85 406.057 1098.43 406.767C1099.01 407.478 1099.28 408.387 1099.2 409.3C1099.18 409.775 1099.06 410.24 1098.84 410.665C1098.63 411.089 1098.33 411.464 1097.96 411.765C1097.59 412.067 1097.17 412.288 1096.71 412.415C1096.25 412.542 1095.77 412.571 1095.3 412.5L1092 412C1090.97 411.853 1090.03 411.371 1089.3 410.63C1088.58 409.888 1088.12 408.929 1088 407.9C1087.96 407.209 1088.16 406.526 1088.57 405.967C1088.98 405.408 1089.57 405.008 1090.24 404.835C1090.69 404.72 1091.15 404.708 1091.6 404.8Z" fill="#FFC619"/>
<path d="M1090.1 411.5L1093.2 412C1093.72 412.065 1094.22 412.242 1094.66 412.519C1095.1 412.796 1095.48 413.166 1095.77 413.604C1096.05 414.042 1096.24 414.537 1096.31 415.054C1096.39 415.572 1096.35 416.099 1096.2 416.6C1095.99 417.406 1095.48 418.102 1094.77 418.547C1094.07 418.992 1093.22 419.154 1092.4 419L1090.5 418.7C1089.46 418.557 1088.5 418.079 1087.76 417.339C1087.02 416.599 1086.54 415.637 1086.4 414.6C1086.37 414.131 1086.45 413.662 1086.64 413.231C1086.82 412.8 1087.11 412.418 1087.47 412.116C1087.83 411.815 1088.25 411.602 1088.71 411.495C1089.17 411.388 1089.64 411.39 1090.1 411.5ZM1080.4 422.9L1069.6 421.4L1070.1 417L1080.9 418.6L1080.4 422.9ZM1083 405.4L1076.2 404.4C1075.88 404.356 1075.57 404.219 1075.32 404.006C1075.07 403.793 1074.89 403.513 1074.8 403.2L1074.2 401.4L1073.7 397.7L1070 410.7L1081 412.3C1082.02 412.437 1083.06 412.225 1083.95 411.699C1084.84 411.173 1085.53 410.363 1085.9 409.4C1086.02 408.943 1086.03 408.465 1085.95 408.001C1085.86 407.537 1085.67 407.099 1085.39 406.716C1085.12 406.333 1084.76 406.016 1084.34 405.789C1083.93 405.561 1083.47 405.428 1083 405.4Z" fill="#FFC619"/>
<path d="M1080.8 412.2L1070 410.7L1070.5 417.9L1078.8 419.1C1079.81 419.251 1080.85 419.044 1081.72 418.514C1082.6 417.985 1083.26 417.166 1083.6 416.2C1083.74 415.75 1083.77 415.275 1083.7 414.81C1083.58 414.11 1083.24 413.469 1082.71 412.995C1082.18 412.52 1081.51 412.24 1080.8 412.2Z" fill="#FFC619"/>
<path d="M1157.4 456.3C1157.7 445.5 1148.8 443.8 1142.7 440C1136.6 436.2 1129.4 428.2 1121.9 422.8C1114.4 417.4 1107.9 417.5 1095.2 421.4L1109.7 449.6C1117.9 453.8 1119.7 458.4 1124.1 464.6C1128.5 470.8 1134.4 473.2 1140.3 472.1C1143.4 477.2 1144 478.4 1148.5 476.8C1153 475.2 1160.4 471.8 1162.4 465.9C1164.4 460 1161.5 459 1157.4 456.3Z" fill="#66BCFF"/>
<path d="M1149.9 473.4C1146.1 472.5 1144.6 470.4 1142.2 467.1L1140.1 464.3C1129.8 462.2 1125.6 456.7 1123.3 452.7C1122.2 450.8 1120.2 449.3 1118.3 447.9C1116.4 446.5 1114.5 445 1113.4 443.2C1112.57 441.852 1111.84 440.448 1111.2 439C1110.4 436.9 1109.7 435.5 1108.4 435.1C1107.1 434.7 1104.9 435.5 1102.8 436.4C1100.89 437.319 1098.88 437.991 1096.8 438.4C1096.63 438.432 1096.45 438.398 1096.3 438.306C1096.15 438.213 1096.05 438.068 1096 437.9C1095.99 437.718 1096.05 437.54 1096.16 437.394C1096.27 437.249 1096.42 437.145 1096.6 437.1C1098.56 436.771 1100.45 436.13 1102.2 435.2C1104.6 434.2 1106.6 433.3 1108.7 433.9C1110.8 434.5 1111.5 436.3 1112.4 438.5C1113.3 440.7 1113.6 441.1 1114.4 442.5C1115.72 444.179 1117.31 445.631 1119.1 446.8C1121.1 448.4 1123.2 450 1124.4 452.1C1126.7 456.2 1130.7 461.1 1140.6 463.1H1140.8L1141 463.3C1141.9 464.4 1142.6 465.5 1143.3 466.4C1145.5 469.5 1146.9 471.4 1150.1 472.2C1150.23 472.188 1150.36 472.229 1150.46 472.313C1150.56 472.396 1150.63 472.516 1150.64 472.647C1150.65 472.733 1150.64 472.821 1150.6 472.9C1150.61 472.986 1150.59 473.073 1150.56 473.152C1150.52 473.231 1150.46 473.299 1150.39 473.35C1150.32 473.399 1150.24 473.43 1150.15 473.439C1150.07 473.448 1149.98 473.434 1149.9 473.4Z" fill="#45AAF7"/>
<path d="M1109.1 433C1107.76 437.293 1106.88 441.719 1106.5 446.2" stroke="black" stroke-width="2" stroke-miterlimit="10" stroke-linecap="round"/>
<path d="M1115 485C1105.9 493.2 1098.2 490.9 1094.6 490.5C1091 490.1 1091.4 487.5 1091.1 485.3C1090.8 483.1 1090.6 479.8 1090.6 479.8C1081.5 479.2 1080.4 473 1080.2 467.5C1080 462 1078.6 461.2 1077.9 457.3C1066.93 455.329 1056.56 450.859 1047.59 444.234C1038.63 437.609 1031.31 429.009 1026.2 419.1L1035.7 412.2L1056.9 426C1071.2 420.7 1079.1 418 1086.8 417.5C1094.5 417 1102.1 419.9 1104.6 430.6C1107.1 441.3 1107.4 444.6 1109.7 449.7C1110.3 451 1111.3 452.8 1112.3 454.7C1115.1 460.4 1118 468.4 1112.3 477.1C1112.99 479.799 1113.9 482.44 1115 485Z" fill="#8CD9FF"/>
<path d="M1041.7 439.3C1041.4 432.2 1044.1 427.2 1049 426.4L1036.6 417.8L1027.6 421.7C1029.9 428.1 1035.8 435.1 1041.7 439.3Z" fill="black"/>
<path d="M1097.6 486.9L1097.8 485.6C1096 485.3 1095.9 484 1095.4 477.9V477.1L1095 476.9C1091 475.9 1088.3 473.5 1088.1 465.4C1088.07 461.553 1087.28 457.749 1085.8 454.2C1085.41 453.367 1085.11 452.495 1084.9 451.6C1084.7 450.8 1084.4 450 1084.2 449.3C1083.07 446.477 1082.76 443.392 1083.3 440.4C1083.7 437.3 1083.4 435.6 1082.4 434.7C1081.4 433.8 1078.9 434.1 1075.2 435.3H1074.7C1068.8 437.2 1057 441.1 1045.1 442.1L1046.6 443.2C1058.2 442.1 1069.4 438.4 1075.1 436.6L1075.6 436.4C1078.6 435.4 1080.7 434.9 1081.6 435.6C1082.5 436.3 1082.3 437.6 1082 440.1C1081.47 443.299 1081.81 446.582 1083 449.6C1083.26 450.316 1083.46 451.052 1083.6 451.8C1083.9 452.7 1084.2 453.6 1084.6 454.5C1086.03 457.923 1086.77 461.591 1086.8 465.3C1087 472.8 1089.1 476.5 1094.2 478C1094.6 484.1 1094.8 486.4 1097.6 486.9Z" fill="#66BCFF"/>
<path d="M1062.1 399.7C1059.2 397.2 1057 397.4 1053.5 398.9C1049.8 395.5 1045 395 1040 396.7C1035 398.4 1027.3 400.7 1022.8 401.9C1022.55 401.994 1022.28 402.014 1022.01 401.957C1021.75 401.9 1021.51 401.768 1021.32 401.578C1021.13 401.388 1021 401.148 1020.95 400.886C1020.89 400.624 1020.91 400.351 1021 400.1L1024.3 388.1C1013.6 396.1 1010.1 413.2 1013.5 422.5C1016.9 431.8 1031.7 431.7 1036.4 429.1C1041.1 426.5 1042.7 425.7 1048.1 426.7C1053.5 427.7 1057.7 428.4 1064.8 423L1069 421.6C1070.6 412.5 1069.2 405.9 1062.1 399.7Z" fill="#3442D9"/>
<path d="M1062.1 399.7C1059.2 397.2 1057 397.4 1053.5 398.9C1049.8 395.5 1045 395 1040 396.7C1035 398.4 1027.3 400.7 1022.8 401.9" stroke="black" stroke-width="2" stroke-miterlimit="10" stroke-linecap="round"/>
<path d="M1053.5 398.9C1056.49 401.213 1058.97 404.107 1060.81 407.406C1062.65 410.706 1063.8 414.343 1064.2 418.1" stroke="black" stroke-width="2" stroke-miterlimit="10" stroke-linecap="round"/>
<path d="M1083.8 395.9C1083.84 395.762 1083.86 395.616 1083.84 395.472C1083.82 395.328 1083.78 395.189 1083.7 395.065C1083.63 394.941 1083.52 394.835 1083.4 394.755C1083.28 394.674 1083.14 394.622 1083 394.6H1082C1081.72 394.539 1081.43 394.588 1081.19 394.737C1080.95 394.887 1080.77 395.124 1080.7 395.4L1079.8 398.7C1079.75 398.846 1079.74 399 1079.76 399.151C1079.79 399.302 1079.84 399.445 1079.93 399.571C1080.02 399.697 1080.13 399.8 1080.27 399.875C1080.4 399.949 1080.55 399.992 1080.7 400H1081.7C1081.96 400.034 1082.23 399.971 1082.45 399.824C1082.67 399.677 1082.83 399.456 1082.9 399.2L1083.8 395.9Z" fill="#29CC7A"/>
<path d="M1067.8 376.7C1068.57 375.135 1069.71 373.781 1071.12 372.754C1072.54 371.726 1074.17 371.056 1075.9 370.8C1076.1 370.8 1076.2 370.6 1076.1 370.5C1074.8 365.7 1075.4 363 1077.1 359.5C1077.13 359.462 1077.14 359.416 1077.13 359.37C1077.13 359.324 1077.11 359.282 1077.08 359.249C1077.05 359.227 1077.03 359.21 1077 359.2C1071.4 356.8 1069.3 352.8 1068.7 349.8C1068.6 349.6 1068.3 349.5 1068.2 349.7C1065.7 354.7 1062.3 354.9 1059.4 354.5C1059.2 354.5 1059.1 354.7 1059.2 354.8C1062.1 360.4 1060 364.4 1057.1 367.2C1057.08 367.239 1057.08 367.281 1057.08 367.323C1057.08 367.365 1057.09 367.407 1057.11 367.444C1057.13 367.482 1057.16 367.515 1057.19 367.542C1057.22 367.569 1057.26 367.589 1057.3 367.6C1062.9 368.6 1065.9 372.3 1067.3 376.6C1067.4 376.8 1067.7 376.9 1067.8 376.7Z" fill="#FFC619"/>
<path d="M1080.8 412.2L1075.1 411.4M1091.2 411.9L1094.4 412.4M1068.5 349.6C1071 344 1070.8 340.1 1070.1 337.9M1076.5 359.4C1078.06 359.639 1079.65 359.54 1081.17 359.108C1082.69 358.677 1084.1 357.924 1085.3 356.9M1067.8 376.7C1067.81 377.444 1067.71 378.185 1067.5 378.9M1057.6 367.3C1053.9 369.9 1048.3 369.5 1044.4 368.3M1059.4 354.5C1058 351.6 1055.4 348.3 1053 347.2M1076.1 370.5C1077.39 371.189 1078.77 371.694 1080.2 372" stroke="black" stroke-width="2" stroke-miterlimit="10" stroke-linecap="round"/>
<path d="M1065.4 359.8C1067.1 366.4 1069.3 366 1070.3 364C1071.3 362 1072 359.5 1073.6 359.7C1075.2 359.9 1074.8 362.7 1072.9 366.7C1071 370.7 1067.9 371.6 1065 368.1C1062.1 364.6 1062 361.2 1061.9 358.8C1061.8 356.4 1064.3 355.8 1065.4 359.8Z" fill="#C40655"/>
<path d="M1061.4 380.6C1062.6 394.4 1055.6 401 1053.4 414.7" stroke="white" stroke-width="3.006" stroke-miterlimit="10" stroke-linecap="round"/>
<path d="M1077.1 457.4C1075.3 451.5 1074.5 440.7 1079.4 431.2" stroke="black" stroke-width="2" stroke-miterlimit="10" stroke-linecap="round"/>
<path d="M1076 442.7C1074.87 440.508 1074.32 438.064 1074.4 435.6M1026.7 400.8L1019.3 403.2M1100.2 399.9L1105.2 401.3" stroke="black" stroke-width="2" stroke-miterlimit="10" stroke-linecap="round"/>
<path d="M1189.4 466.2C1188.85 467.002 1188.21 467.74 1187.5 468.4C1184.3 471.6 1177 475.2 1173.1 476.7C1170.13 477.639 1167.4 479.208 1165.1 481.3C1162.2 483.6 1158.6 486.7 1156.1 484.9C1152.95 482.001 1150.07 478.821 1147.5 475.4C1147.35 475.221 1147.26 475.006 1147.22 474.777C1147.19 474.549 1147.21 474.315 1147.3 474.1C1148.7 470.1 1153.2 464.4 1159.7 461.4C1159.91 461.315 1160.15 461.288 1160.38 461.324C1160.61 461.359 1160.82 461.454 1161 461.6C1164.8 464.3 1167.1 465 1170.2 464.9C1173.3 464.8 1179.3 462.8 1184.2 461.4C1189.1 460 1189.2 462.2 1189.4 466.2Z" fill="#FFC619"/>
<path d="M1150.3 478.9C1152.09 481.038 1154.02 483.043 1156.1 484.9C1158.6 486.7 1162.2 483.6 1165.1 481.3C1167.4 479.208 1170.13 477.639 1173.1 476.7C1177 475.2 1184.3 471.6 1187.5 468.4C1188.21 467.74 1188.85 467.002 1189.4 466.2C1189.2 462.2 1188.3 460.2 1184.2 461.4C1180.1 462.6 1177.8 463.6 1174.8 464.3C1173.91 464.539 1173.1 465.021 1172.46 465.692C1171.83 466.363 1171.39 467.196 1171.2 468.1C1171.1 469.2 1170.9 470.3 1170.7 471.6C1165.3 470.5 1160.1 472.3 1159 479.4C1159 479.4 1154.4 476.9 1150.3 478.9Z" fill="#FFE75C"/>
<path d="M1187.5 468.4L1189.4 466.3C1189.53 466.089 1189.6 465.847 1189.6 465.6C1189.51 464.842 1189.31 464.1 1189 463.4C1188.2 464.9 1186.8 466.4 1183.7 468.7C1178.8 472.3 1173.3 473.6 1170 474.7C1166.98 475.826 1164.22 477.562 1161.9 479.8C1160.07 481.862 1157.67 483.326 1155 484L1156.1 484.9C1158.6 486.7 1162.2 483.6 1165.1 481.3C1167.4 479.208 1170.13 477.639 1173.1 476.7C1177 475.2 1184.3 471.6 1187.5 468.4Z" fill="white"/>
<path d="M1126.5 472.9C1121.4 471.5 1116.2 473.9 1111.6 482.6C1110.3 481.6 1107.1 480.5 1102.3 481.4C1097.5 482.3 1095.7 484.4 1094.9 486C1094.42 486.924 1094.28 487.984 1094.5 489C1094.8 490.3 1095.2 492 1095.8 494.8C1096.7 499.1 1096.2 502.9 1098.6 503.3L1132.2 479.1C1132.2 479.1 1133.1 474.7 1126.5 472.9Z" fill="#FFC619"/>
<path d="M1126.5 472.9C1121.4 471.5 1116.2 473.9 1111.6 482.6C1110.96 483.902 1110.39 485.237 1109.9 486.6C1104.6 486.1 1102.1 488.4 1101.2 493.5C1101.2 493.5 1097.7 491.1 1095.6 493.9C1095.7 494.2 1095.7 494.5 1095.8 494.8C1096.7 499.1 1096.2 502.9 1098.6 503.3L1132.2 479.1C1132.2 479.1 1133.1 474.7 1126.5 472.9Z" fill="#FFE75C"/>
<path d="M1132.2 477.7L1129.7 475.4C1125.4 474.7 1121.8 474.6 1118 478.9C1114.2 483.2 1111.7 487.9 1107.7 490.7C1102 494.9 1097.2 496.6 1096.5 499.7C1095.8 502.8 1097.2 503.1 1098.6 503.3L1132.2 479.1C1132.32 478.641 1132.32 478.159 1132.2 477.7Z" fill="white"/>
<path d="M1127.9 473.9L1130.3 474.6C1130.51 474.634 1130.71 474.714 1130.88 474.836C1131.05 474.957 1131.2 475.116 1131.3 475.3C1132.23 476.866 1132.61 478.693 1132.4 480.5L1123.6 478.9C1126.5 477.5 1127.5 476.2 1127.2 474.5C1127.17 474.406 1127.17 474.306 1127.19 474.211C1127.22 474.116 1127.28 474.032 1127.35 473.967C1127.43 473.903 1127.52 473.863 1127.62 473.851C1127.71 473.839 1127.81 473.856 1127.9 473.9Z" fill="white"/>
<path d="M1098.8 503.4C1107.4 505.1 1111.2 502.4 1114.9 498.6C1116.43 496.902 1118.22 495.452 1120.2 494.3C1125.3 491.4 1129.3 488.3 1132 483.4C1134.7 478.5 1126.4 475.3 1121 479.8C1115.6 484.3 1115.3 489.6 1104.6 496.2C1097.3 500.8 1096.3 502.9 1098.8 503.4Z" fill="black"/>
<path d="M1100.02 487.793C1100.07 486.801 1099.62 485.971 1099.01 485.94C1098.41 485.909 1097.88 486.689 1097.83 487.682C1097.77 488.675 1098.23 489.505 1098.83 489.535C1099.44 489.566 1099.97 488.786 1100.02 487.793ZM1189.7 465C1189.52 463.986 1189.19 463.007 1188.7 462.1C1188.6 462 1188.5 461.9 1188.4 462H1188.3C1188.1 462 1188.1 462.1 1188.1 462.2C1188.6 464.3 1188.8 466.7 1187.7 468.1C1190 466.3 1189.8 465.3 1189.7 465ZM1154.02 475.633C1154.94 475.428 1155.43 474.126 1155.12 472.724C1154.8 471.323 1153.81 470.353 1152.89 470.558C1151.97 470.763 1151.48 472.065 1151.8 473.466C1152.11 474.867 1153.11 475.837 1154.02 475.633Z" fill="white"/>
<path d="M1229 625.4C1271.3 625.4 1306 607.8 1351.6 567.6C1397.2 527.4 1413.2 514.2 1426.1 501.7C1439 489.2 1438.1 481.1 1431.4 465.1C1424.7 449.1 1420.3 451.4 1420.3 451.4C1419.5 438.4 1406.8 416.9 1392.8 399.6C1378.8 382.3 1370.4 385.1 1355 385.1C1339.6 385.1 1334.5 389.3 1327.6 407.7C1320.7 426.1 1303.5 441.7 1271 447.4C1238.5 453.1 1220.7 452.8 1219.8 469.1C1218.9 485.4 1219.8 513.5 1205.4 535.7C1187.5 544.352 1168.68 550.96 1149.3 555.4C1137.9 558 1135.5 565.5 1134.4 575.3C1133.3 585.1 1137.3 590.4 1139.2 593.5C1135.3 597.2 1136.1 598.8 1138 607.5C1138.8 611 1139.7 614.5 1140.5 617.6C1141.15 619.853 1142.52 621.832 1144.39 623.239C1146.27 624.646 1148.55 625.405 1150.9 625.4H1229Z" fill="#66BCFF"/>
<path d="M1134.4 575.3C1133.3 585.1 1137.3 590.4 1139.2 593.5L1217.5 602.5L1293.3 591.4C1293.3 591.4 1343.3 551.1 1336.5 537.7C1329.7 524.3 1315.4 536.9 1296.3 549.9C1277.2 562.9 1257.4 564.1 1234.7 560.8C1212 557.5 1184.5 547.8 1149.3 555.4C1137.9 558 1135.5 565.5 1134.4 575.3Z" fill="#45AAF7"/>
<path d="M1344.6 531C1344.7 513.7 1344.1 509.6 1349.9 510.4C1355.7 511.2 1365.2 513.1 1365.2 513.1L1354.9 529.4L1344.6 531ZM1375 504.1C1375 495.7 1374.3 490.2 1376.6 489C1378.9 487.8 1381.6 489.3 1386.4 493.6C1391.2 497.9 1375 504.1 1375 504.1ZM1144.2 591.4C1142.9 581.3 1143.2 573.3 1145.9 571.3C1148.6 569.3 1151.2 573.9 1153.1 577.9C1155.52 582.976 1158.54 587.743 1162.1 592.1L1144.2 591.4ZM1231 593.6C1234.3 580.1 1237.1 576.8 1239.9 576.6C1242.7 576.4 1244.1 582.8 1248.1 591.9L1241.5 595L1231 593.6Z" fill="#A3E1FF"/>
<path d="M1411 470.1C1368.5 511.2 1343.1 533.8 1307.5 560.3C1271.9 586.8 1256 593.7 1226.1 593.7C1196.2 593.7 1177 576.9 1139.2 593.5C1135.3 597.2 1136.1 598.8 1138 607.5C1138.8 611 1139.7 614.5 1140.5 617.6C1141.15 619.853 1142.52 621.832 1144.39 623.239C1146.27 624.646 1148.55 625.405 1150.9 625.4H1229C1271.3 625.4 1306 607.8 1351.6 567.6C1397.2 527.4 1413.2 514.2 1426.1 501.7C1439 489.2 1438.1 481.1 1431.4 465.1C1424.7 449.1 1420.3 451.4 1420.3 451.4C1420.3 455.9 1420.6 460.7 1411 470.1Z" fill="white"/>
<path d="M1431.9 466.2C1431.8 472 1428.2 478.6 1418.4 487.6C1399.2 505.1 1359.5 540.9 1332.2 564.1C1302.3 589.8 1274.5 611 1237.5 611C1224.6 611 1210.5 608.3 1196.8 605.7C1172.7 601.1 1149.8 596.8 1138.2 608.4C1138.3 609 1138.5 609.7 1138.6 610.3C1149.4 598.4 1172.3 602.7 1196.5 607.3C1210.3 609.9 1224.5 612.6 1237.5 612.6C1275 612.6 1304.2 590.2 1333.2 565.4C1360.5 542.1 1400.3 506.2 1419.4 488.8C1426.6 482.2 1431.8 476.1 1433.1 469.4L1431.9 466.2Z" fill="#FFE75C"/>
<path d="M1320 593L1306.1 561.4C1300.77 565.333 1295.87 568.833 1291.4 571.9L1290.2 573.3C1295.4 571.1 1300.6 574 1301 582.9C1301.1 587.7 1301.1 597.4 1301.1 605.2C1307.62 601.479 1313.93 597.407 1320 593ZM1156.7 617.4C1148.7 617.5 1144.8 620.7 1148 623.8C1149.16 624.882 1150.71 625.457 1152.3 625.4H1221C1186.8 625.4 1183.3 617 1156.7 617.4Z" fill="black"/>
<path d="M1392.3 440.9C1382 454.1 1378.4 459.3 1382.7 473.4C1384.5 479.5 1386.8 486 1388.7 491.4L1411 470.1C1420.6 460.7 1420.3 455.9 1420.3 451.4C1419.6 440.3 1410.3 423 1398.8 407.4C1404.6 415.8 1402.6 427.7 1392.3 440.9Z" fill="#45AAF7"/>
<path d="M1378.6 424.1C1384.5 401.6 1383.9 386.6 1369.4 385.1C1365.1 384.7 1360.5 385.1 1355 385.1C1339.5 385.1 1334.5 389.3 1327.6 407.7C1320.7 426.1 1303.5 441.7 1271 447.4C1238.5 453.1 1220.7 452.8 1219.8 469.1C1218.9 485.4 1219.8 513.5 1205.4 535.7C1203.3 539.4 1205.8 541.9 1235.7 541.9C1265.6 541.9 1283.4 540.1 1288.4 527.6C1293.4 515.1 1300.6 487.8 1304.2 477C1307.8 466.2 1307.2 460 1327.1 455.5C1347 451 1373 445.8 1378.6 424.1Z" fill="#8CD9FF"/>
<path d="M1309.5 452.7C1325.5 446.1 1336.8 447.6 1353.8 439.5C1370.8 431.4 1373 425.4 1375.1 414.3C1377.2 403.2 1378.7 390.1 1368.4 389.2C1358.1 388.3 1348.8 388.7 1344.1 390.3C1339.4 391.9 1338.2 394.8 1333.1 405.3C1328 415.8 1325.5 431.4 1302.6 441.6L1309.5 452.7Z" fill="black"/>
<path d="M1174.7 586.4C1174.8 591.5 1176.2 598.8 1179 599.5C1181.8 600.2 1183.1 594.5 1186 587.4C1182.9 584.2 1174.7 580.9 1174.7 586.4Z" fill="#A3E1FF"/>
<path d="M1302.3 563.2C1299.82 563.302 1297.4 563.951 1295.2 565.1C1285.9 569.8 1286 573.8 1286.3 575.2C1299 567.5 1304.6 576 1308.2 600.9C1309.6 610.7 1312.1 615.5 1319.3 615.5C1328.1 615.5 1333.3 609.3 1332.7 593.3C1332.56 590.281 1332.23 587.275 1331.7 584.3C1329.2 570.9 1324 557.4 1311.4 557.4C1309.51 557.494 1307.68 558.078 1306.08 559.095C1304.49 560.112 1303.18 561.527 1302.3 563.2Z" fill="#FF78B9"/>
<path d="M1396.2 518.1C1390.8 522.9 1385.4 523.3 1384.2 519.1C1383 514.9 1386.3 507.5 1391.7 502.8L1401.1 494.5C1406.5 489.7 1411.9 489.3 1413.1 493.5C1414.3 497.7 1410.9 505.1 1405.6 509.8L1396.2 518.1Z" fill="#FFA8D2"/>
<path d="M1302.3 563.2C1310.7 564.1 1317.1 568 1319.8 578.6C1321.7 586.1 1321.1 594.9 1322.4 602.5" stroke="black" stroke-width="2" stroke-linecap="round" stroke-linejoin="round"/>
<path d="M1398 443.2L1395.5 446.6C1387.6 456.9 1384.7 460.7 1393.1 487.2L1394.4 486C1386.5 461 1389.1 457.5 1396.7 447.6L1399.3 444.2C1405.5 435.8 1407.8 427.5 1407.6 420.4L1405.8 417.6C1406.8 424.9 1404.8 434 1398 443.2Z" fill="#5866FC"/>
<path d="M1284.1 581.6C1284.9 577.1 1283.9 574.9 1281.6 575.2C1279.3 575.5 1277.3 576.9 1275.1 582C1276.9 601.5 1282.1 593.9 1284.1 581.6Z" fill="#A3E1FF"/>
<path d="M1366.3 392.4L1382 390.4C1384.5 390.1 1385.4 384.4 1386.5 377.2C1387.6 370 1386.3 356.9 1386.3 356.9L1370.1 361.8L1366.3 392.4Z" fill="#FF78B9"/>
<path d="M1409.9 352.2C1403.2 344.7 1369.2 318.5 1369.2 318.5L1361.2 330C1361.2 330 1372.5 342.5 1380.6 350.9C1364.2 352.2 1334.6 356.1 1334.6 356.1C1313.6 351.9 1304.7 349.9 1304.7 349.9L1326.3 329.4L1318.4 317.6C1318.4 317.6 1297.8 330.2 1286.2 339.3C1274.6 348.4 1272.7 359.6 1283.7 368.1C1294.7 376.6 1298.4 379.2 1298.4 379.2L1369.3 386.5C1390.1 380.7 1402.5 374.4 1410 367.9C1417.5 361.4 1416.6 359.7 1409.9 352.2Z" fill="#FFC619"/>
<path d="M1292.5 348.8C1295 349.2 1299.4 350.4 1299.4 350.4" stroke="black" stroke-width="2" stroke-linecap="round" stroke-linejoin="round"/>
<path d="M1364.9 314.9L1357.8 326.8L1365.8 335C1368.4 332.1 1371 327 1370.2 319.3L1364.9 314.9Z" fill="black"/>
<path d="M1318.9 366.9C1309.3 355.1 1305.9 350 1303.9 344.1C1302.5 339.8 1311 342.4 1322 345.7C1333 349 1331.3 352.1 1318.9 366.9Z" fill="#FF78B9"/>
<path d="M1305.1 349.6C1295 360.9 1294.8 374.7 1295.9 394C1295.9 394 1278.5 411.5 1281 426.8C1283.5 442.1 1307.3 448.7 1334.4 448.4C1356.2 448.2 1358.6 443.1 1360.6 432.8C1361.8 426.1 1362.7 418.4 1363.3 412.4C1363.91 406.093 1365.49 399.918 1368 394.1C1381.4 363 1370.6 351.8 1370.6 351.8L1334.4 354.7L1305.1 349.6Z" fill="#FF78B9"/>
<path d="M1313.1 333.4C1304.6 339.7 1306.4 349.3 1318.4 362.5L1323.8 367.9L1358.7 362.2C1369.9 348.3 1367.7 339 1363.6 333.2C1369.3 323.8 1369.7 317.3 1369.6 311.5C1369.5 301.7 1360.6 286.3 1338.2 286.5C1326 286.6 1315.2 291.4 1311.3 306.9C1309.9 312.3 1309.6 321.1 1313.1 333.4Z" fill="#FFE75C"/>
<path d="M1356.3 299.2C1356.7 299.197 1357.1 299.323 1357.42 299.559C1357.75 299.795 1357.99 300.129 1358.12 300.512C1358.2 300.766 1358.23 301.034 1358.2 301.3L1357 314.8C1356.65 317.828 1355.22 320.629 1352.99 322.7C1350.75 324.772 1347.85 325.977 1344.8 326.1H1342.1C1338.92 326.13 1335.83 325 1333.42 322.92C1331.01 320.84 1329.44 317.954 1329 314.8L1328.5 310.3C1328.43 309.77 1328.16 309.285 1327.76 308.935C1327.35 308.585 1326.84 308.395 1326.3 308.4C1325.75 308.397 1325.22 308.602 1324.81 308.972C1324.4 309.342 1324.15 309.852 1324.1 310.4L1323.5 317.6C1323.28 319.979 1322.19 322.193 1320.43 323.816C1318.68 325.44 1316.39 326.36 1314 326.4C1312.57 326.454 1311.14 326.197 1309.82 325.645C1308.49 325.093 1307.31 324.261 1306.34 323.206C1305.37 322.15 1304.64 320.897 1304.2 319.532C1303.76 318.167 1303.63 316.723 1303.8 315.3L1305 301.7C1305.07 301.16 1305.33 300.663 1305.73 300.297C1306.14 299.931 1306.66 299.719 1307.2 299.7L1356.3 299.2Z" fill="black"/>
<path d="M1357.6 299.7L1369.6 311.5V313.9L1357.7 305.6L1357.6 299.7Z" fill="black"/>
<path d="M1370.6 351.7C1364.97 346.383 1358.34 342.236 1351.1 339.5C1344.6 337.2 1343.1 336.6 1341.6 340.3C1340.1 344 1338.5 348.2 1337.9 349.6C1337.3 351 1330.2 355.8 1325.9 359.4C1321.6 363 1317.1 370.7 1317.1 370.7L1362.7 374.2L1370.6 351.7ZM1380.4 350.7L1386.3 356.9C1383.6 365.3 1381.9 375.8 1380.9 387.5L1357.6 389.2L1370.6 351.8L1380.4 350.7ZM1305.1 349.6L1300.8 348.8C1300.14 348.704 1299.47 348.753 1298.83 348.943C1298.19 349.133 1297.6 349.46 1297.1 349.9C1292.21 354.355 1288.9 360.291 1287.7 366.8C1286.4 374.4 1286.8 375.2 1295.6 379.9C1301.5 383.1 1307.6 369.1 1310.9 359.6C1311.28 358.564 1311.43 357.457 1311.34 356.356C1311.25 355.256 1310.91 354.19 1310.35 353.235C1309.8 352.28 1309.04 351.46 1308.13 350.831C1307.23 350.203 1306.19 349.783 1305.1 349.6Z" fill="#FF78B9"/>
<path d="M1309.3 427.4C1301.65 418.477 1293.03 410.428 1283.6 403.4L1261.2 415.1L1268.5 436.9C1268.5 436.9 1274.5 444.5 1280.1 450.5C1285.7 456.5 1295.8 456.7 1314.4 458.3C1321.4 445.8 1318.2 437.9 1309.3 427.4Z" fill="#2835BD"/>
<path d="M1272.8 436.5L1274.8 426.8" stroke="black" stroke-width="2" stroke-linecap="round" stroke-linejoin="round"/>
<path d="M1351.4 423.3C1349.6 418.4 1344.1 414.5 1319.5 413.3L1310.4 404.1L1285.1 423.4C1294.1 438.6 1304.3 456.9 1314.4 458.3C1324.5 459.7 1333.6 459 1345.6 451.7C1353.2 447 1354.2 444.8 1354.4 440.8C1354.25 434.853 1353.24 428.959 1351.4 423.3Z" fill="#3442D9"/>
<path d="M1378.6 424.1C1373 445.8 1347 450.9 1327.1 455.5C1309.1 459.6 1307.9 465 1305.2 474L1291.6 470.4V456.4L1309.5 452.7C1325.5 446.1 1336.8 447.6 1353.8 439.5C1370.8 431.4 1373 425.4 1375.1 414.3C1376.4 407.8 1377.4 400.4 1375.8 395.3L1381.5 396.1C1383 402.9 1381.7 412.5 1378.6 424.1Z" fill="#8CD9FF"/>
<path d="M1226.4 445.6C1225.08 446.403 1224.06 447.629 1223.51 449.08C1222.97 450.531 1222.93 452.123 1223.4 453.6C1226.3 462.8 1227.6 469.9 1224.9 492.3C1222.2 514.7 1217.7 527.1 1215.6 531.7C1215.47 531.973 1215.41 532.273 1215.42 532.575C1215.43 532.876 1215.51 533.171 1215.66 533.435C1215.8 533.698 1216.01 533.924 1216.26 534.092C1216.51 534.26 1216.8 534.366 1217.1 534.4C1228.3 536.1 1245.1 535.9 1263.5 533.5C1266.61 533.093 1269.55 531.87 1272.02 529.955C1274.5 528.04 1276.43 525.502 1277.6 522.6C1282.33 510.861 1286.21 498.797 1289.2 486.5C1295.9 458.9 1295.1 459.4 1309.5 452.7C1308.4 442.8 1308.5 433.3 1297.7 431.9C1285.1 430.3 1271.3 436.5 1251.5 441.9C1247 437.9 1242.9 435.9 1226.4 445.6Z" fill="#45AAF7"/>
<path d="M1280.6 433.4C1272.3 435.4 1262.9 438.8 1251.5 441.9C1248.2 439 1245.1 437.1 1237.2 440.2C1236.91 440.947 1236.67 441.716 1236.5 442.5C1232.9 460.4 1226.1 489.7 1246.5 488.1C1266.9 486.5 1269.2 474.4 1268.6 463.4C1268 452.4 1266.7 446.3 1268.6 443.1C1270.5 439.9 1277.2 434.3 1280.6 433.4Z" fill="#287CEB"/>
<path d="M1298.9 458.7C1297.5 447 1296.6 441.4 1293.4 439.2C1290.2 437 1289.1 437.7 1284.9 438.6C1280.7 439.5 1275.4 441.1 1268.6 443.1C1255.9 446.8 1240.1 451.5 1234.1 451.1L1232.1 450.8C1233.5 449.3 1242.1 446.2 1247.8 444.1L1251.8 442.6C1251.89 442.577 1251.98 442.534 1252.06 442.476C1252.14 442.417 1252.2 442.344 1252.25 442.26C1252.3 442.175 1252.32 442.082 1252.33 441.986C1252.34 441.889 1252.33 441.792 1252.3 441.7L1251.5 441.9L1250.8 441.3L1247.2 442.6C1233.9 447.5 1230.1 449.2 1230.4 451.1C1230.7 453 1232.2 452.6 1234 452.7C1240.2 453.1 1255.5 448.6 1269.1 444.6C1275.8 442.6 1281.6 440.9 1285.2 440.2C1288.8 439.5 1291.1 439.5 1292.5 440.5C1293.9 441.5 1296.1 448.5 1297.4 460.3L1298.9 458.7Z" fill="black"/>
<path d="M1304 313.3L1323 299.5L1315.9 299.6L1304.5 307.9L1304 313.3ZM1308.6 325C1310.24 325.955 1312.11 326.439 1314 326.4C1316.39 326.361 1318.68 325.441 1320.43 323.817C1322.19 322.193 1323.28 319.979 1323.5 317.6L1323.8 314L1308.6 325ZM1356.3 299.2H1348.4L1328.9 313.3V314.8C1329.13 316.346 1329.63 317.838 1330.4 319.2L1357.5 299.7C1357.16 299.41 1356.74 299.235 1356.3 299.2ZM1357 314.8L1357.6 308.3L1335.4 324.4C1337.45 325.534 1339.76 326.12 1342.1 326.1H1344.8C1347.85 325.978 1350.75 324.772 1352.99 322.701C1355.22 320.629 1356.65 317.828 1357 314.8Z" fill="#5866FC"/>
<path d="M1322.5 327.6C1325.17 327.018 1327.93 327.018 1330.6 327.6" stroke="black" stroke-width="2" stroke-linecap="round" stroke-linejoin="round"/>
<path d="M1238.7 407C1238.8 407.3 1238.9 407.5 1239 407.5C1239.1 407.5 1239.2 407.4 1239.3 407.1" fill="black"/>
<path d="M1255.7 402.4C1244.9 406.6 1229.8 415.4 1216.8 422.7C1209.6 426.7 1207.4 429.1 1211.2 436.4C1215 443.7 1222.2 450.7 1227.6 455.5C1233 460.3 1236 458.3 1240 455.7L1268.5 436.9L1283.6 403.4C1277.3 399 1266.6 398.1 1255.7 402.4Z" fill="#2835BD"/>
<path d="M1225.2 442.1C1229.8 443 1229.8 443.5 1235.5 439.8C1241.2 436.1 1269.9 418.8 1272.8 416.9" stroke="#4150F2" stroke-width="2" stroke-miterlimit="10" stroke-linecap="round"/>
<path d="M1297.4 391.8C1292.9 388.5 1289.8 388.3 1265.6 386.3C1241.4 384.3 1230.1 381.8 1227.3 386.2C1224.5 390.6 1227 401.6 1229.8 409.9C1232.6 418.2 1234.2 420.9 1238.1 421.2C1242 421.5 1278.4 422.7 1285.1 423.4L1288.4 429L1319.5 413.3C1319.5 413.3 1301.8 395.1 1297.4 391.8Z" fill="#3442D9"/>
<path d="M1220.6 435.4C1214.6 430.5 1212.2 429.6 1212.9 432.9C1213.6 436.2 1217.4 441.1 1221.5 445.5C1225.6 449.9 1230.3 454.4 1231.9 454.1C1233.5 453.8 1231.6 450.8 1229.1 446C1226.97 441.959 1224.08 438.362 1220.6 435.4Z" fill="black"/>
<path d="M1227.2 442.7L1222.2 446.2L1218.1 449.1C1213.2 452.7 1215.2 455.6 1215.6 459C1216 462.4 1214.9 464.9 1212.6 464.9C1210.3 464.9 1206.9 455.3 1204.5 450.7C1202.1 446.1 1194.2 442.4 1190.1 438.9C1188.4 437.4 1188 434.9 1190.1 434.1C1189.2 432.8 1188 429.5 1191 428.5C1194 427.5 1198.5 433 1201 434.7C1203.5 436.4 1206.6 438 1208.9 437C1210.48 436.295 1212.02 435.494 1213.5 434.6L1216.9 432.5L1220.6 435.4C1223.11 437.533 1225.33 439.987 1227.2 442.7Z" fill="#FF78B9"/>
<path d="M1378.2 436C1372.6 457.7 1346.6 462.8 1326.7 467.4C1306.8 472 1307.4 478 1303.8 488.9C1300.2 499.8 1293 527.1 1288 539.5L1354.5 500.4L1381.7 448.8L1378.2 436Z" fill="#66BCFF"/>
<path d="M1301.5 511.9C1299.3 519.6 1297.5 525.4 1296.5 529.6C1295.5 533.8 1300.1 533.4 1305 532C1309.9 530.6 1312 528.5 1311.2 524.2C1310.4 519.9 1303.9 503.2 1301.5 511.9Z" fill="white"/>
<path d="M1220.6 435.4L1216.9 432.5C1216 432.4 1215.5 432.4 1215.1 432.7C1214.7 433 1214.8 433.2 1214.9 433.7C1217.2 433.3 1222.9 437.4 1223.1 445.5C1224.4 446.1 1225.1 446.5 1225.6 446.2C1226.1 445.9 1226.8 444.5 1227.2 442.7C1225.33 439.987 1223.11 437.533 1220.6 435.4Z" fill="black"/>
<path d="M1211.8 460.5C1210.8 456.7 1207.4 448.9 1204.5 445.8C1201.6 442.7 1197 435.4 1195.5 433C1194 430.6 1190.1 427.6 1189.2 430.3C1189.01 431.635 1189.33 432.994 1190.1 434.1C1188 434.9 1188.4 437.4 1190.1 438.9C1194.2 442.4 1201.9 445.6 1204.5 450.7C1207.1 455.8 1208.9 463.2 1211.7 464.7L1212.5 464.9C1213 464.8 1212.7 463.4 1211.8 460.5Z" fill="#DE3A93"/>
<path d="M1326.2 280.5C1324.93 284.072 1324.79 287.946 1325.8 291.6C1325.96 292.243 1326.33 292.812 1326.86 293.213C1327.39 293.613 1328.04 293.82 1328.7 293.8H1334.8C1335.48 293.803 1336.15 293.662 1336.77 293.386C1337.39 293.11 1337.95 292.706 1338.4 292.2C1342.1 288.3 1348.8 287.3 1354 289.5L1357.1 285C1357.43 284.559 1357.6 284.014 1357.56 283.463C1357.52 282.912 1357.29 282.393 1356.9 282C1353.87 279.135 1350.25 276.963 1346.3 275.633C1342.34 274.304 1338.15 273.849 1334 274.3C1332.25 274.51 1330.6 275.2 1329.22 276.295C1327.85 277.39 1326.8 278.846 1326.2 280.5Z" fill="#FF8C19"/>
<path d="M1381.3 382.8C1380.9 387.5 1381.7 389.1 1382.8 387.2C1383.57 385.494 1384.05 383.667 1384.2 381.8L1381.3 382.8Z" fill="black"/>
<path d="M1369.3 352.1C1360.7 353.2 1355.9 354.7 1351.6 356.7M1386.9 358.1L1390.6 361.8M1365 393.6C1365 393.6 1360.5 396.9 1357.6 399.3" stroke="black" stroke-width="2" stroke-linecap="round" stroke-linejoin="round"/>
<path d="M1325.5 367.8L1324.7 379.6H1319.4C1319.71 375.727 1320.31 371.883 1321.2 368.1C1321.4 367.454 1321.7 366.846 1322.1 366.3C1323.43 364.635 1324.98 363.155 1326.7 361.9L1335.9 355C1338.5 353.08 1340.49 350.437 1341.6 347.4C1342.9 344 1344.5 339.7 1345.2 338.8" stroke="#F551A0" stroke-width="2" stroke-linecap="round" stroke-linejoin="round"/>
<path d="M1381.2 351.5C1377 362.1 1372.4 380.1 1375.9 388.7C1376.25 389.51 1376.69 390.281 1377.2 391L1379.2 390.8C1378.44 390.015 1377.83 389.101 1377.4 388.1C1374.2 380.4 1378.2 363.8 1382.4 352.8L1381.2 351.5ZM1288.6 375.4C1289 375.872 1289.47 376.277 1290 376.6C1291 364.9 1295.8 355 1303.2 349.2L1301.2 348.9C1294.3 354.8 1289.7 364.3 1288.6 375.4Z" fill="#F551A0"/>
<path d="M1368.9 392.9L1357.8 394.2" stroke="black" stroke-width="2" stroke-linecap="round" stroke-linejoin="round"/>
<path d="M1354 435.3C1350 438 1341.5 442.1 1336.1 443.3C1334.75 443.577 1333.38 443.711 1332 443.7C1329.84 443.781 1327.68 443.331 1325.73 442.39C1323.78 441.449 1322.09 440.045 1320.8 438.3L1315.6 431C1311.1 424.6 1305.4 416.7 1301.3 411C1301.2 410.8 1301.2 410.7 1301.1 410.6C1294.9 401.9 1291.6 398.1 1287 397.4C1282.4 396.7 1269.1 395.5 1245.8 393.7C1240 393.3 1239.1 393.4 1238 396C1237.97 396.098 1237.92 396.187 1237.85 396.262C1237.78 396.337 1237.69 396.396 1237.59 396.435C1237.5 396.473 1237.4 396.489 1237.29 396.483C1237.19 396.477 1237.09 396.449 1237 396.4C1236.82 396.314 1236.67 396.169 1236.58 395.987C1236.49 395.806 1236.46 395.599 1236.5 395.4C1238.1 391.5 1240.5 391.7 1245.9 392.1C1259.5 393.2 1282.8 395 1287.3 395.8C1291.8 396.6 1296.7 401.7 1302.4 409.7C1302.4 409.8 1302.5 409.9 1302.6 410C1306.7 415.7 1312.3 423.7 1316.9 430L1322.1 437.4C1324.9 441.3 1330 442.9 1335.7 441.7C1341.4 440.5 1350.7 435.7 1353.8 433.5C1353.92 434.094 1353.98 434.696 1354 435.3Z" fill="#5866FC"/>
<path d="M1230.4 387.9C1227.5 390.6 1229 395.9 1231 403.2C1233 410.5 1235.5 417.1 1236.8 416.9C1238.1 416.7 1238.8 414.1 1239.1 410.3C1239.4 406.5 1239.3 399.7 1237.8 394.6C1236.3 389.5 1232.6 385.8 1230.4 387.9Z" fill="black"/>
<path d="M1239.3 407.1L1231.9 406.2C1228.3 405.7 1224.7 405.4 1221.1 405.2C1220.4 409.5 1218.9 415 1216.8 417.2C1214.7 419.4 1211 419.3 1210.6 414.3C1210.2 409.3 1210.5 402.2 1207.2 387.4C1206 381.9 1203.8 378.6 1203 374.4C1202.2 370.2 1204.6 369.5 1206.8 369.9C1206.3 367.1 1206.5 363.5 1210 363C1213.5 362.5 1214.9 365.5 1214.9 369.4C1215.42 368.681 1216.17 368.161 1217.02 367.924C1217.88 367.688 1218.79 367.75 1219.6 368.1C1222 369 1222.5 372 1222.2 376.8C1221.9 381.6 1221.8 386.7 1223.8 388.4C1225.8 390.1 1226.3 389.5 1229.1 389.9L1235.9 390.5C1236.71 391.777 1237.35 393.156 1237.8 394.6C1238.83 398.685 1239.34 402.886 1239.3 407.1Z" fill="#FF78B9"/>
<path d="M1239.3 407.1C1239.34 402.886 1238.83 398.685 1237.8 394.6C1237.35 393.156 1236.71 391.777 1235.9 390.5H1235C1237.5 393.7 1239 402.1 1235 406.6C1235.56 407.077 1236.21 407.449 1236.9 407.7C1237.75 407.781 1238.59 407.569 1239.3 407.1Z" fill="black"/>
<path d="M1219.7 374C1220.1 369.3 1216.8 367.3 1214.9 369.4C1214.9 365.5 1213.6 362.5 1210 363C1206.4 363.5 1206.3 367.1 1206.8 369.9C1204.6 369.5 1202.2 370.3 1203 374.4C1203.8 378.5 1206 381.9 1207.2 387.4C1210.5 402.2 1210.1 408.4 1210.6 414.3C1210.61 415.489 1210.99 416.645 1211.7 417.6C1214 420 1215 417.1 1214.9 412.7C1214.85 405.814 1215.25 398.933 1216.1 392.1C1217.1 384.1 1219.4 378.7 1219.7 374Z" fill="#DE3A93"/>
<path d="M1210.4 363C1213.5 362.9 1213.6 366.8 1213.5 371.1L1214.9 369.4C1214.9 365.7 1213.7 362.7 1210.4 363Z" fill="#FF78B9"/>
<path d="M1290.7 412.2C1289.13 416.074 1287.26 419.818 1285.1 423.4C1289.7 421.4 1291.6 420.4 1291.6 420.4M1320.4 414.2L1331 425M1331 425C1339.6 426.1 1341.6 427.9 1343.9 430.8M1331 425L1340.7 425.3" stroke="black" stroke-width="2" stroke-linecap="round" stroke-linejoin="round"/>
<path d="M1304.6 526.1C1303.3 529.4 1301.1 531.6 1299.7 531.1C1298.3 530.6 1298.3 529 1299.7 525.9C1300.3 524.642 1300.81 523.338 1301.2 522C1302 519.1 1303.5 518.6 1304.6 519.1C1305.7 519.6 1306 522.7 1304.6 526.1Z" fill="black"/>
<path d="M1226 481.6C1225.9 483.3 1225.7 485.2 1225.5 487.2L1247.9 489.7L1224.3 497.1C1223.8 500.5 1223.3 503.6 1222.8 506.5L1238.4 508.1C1233.1 510 1227.3 512 1221.1 514.4C1220.3 517.933 1219.5 520.933 1218.7 523.4L1226 523.6L1217.8 525.9C1217.2 527.881 1216.47 529.819 1215.6 531.7C1215.5 531.957 1215.43 532.226 1215.4 532.5C1224.3 529.7 1233.3 527.4 1242 525.5C1250.88 527.103 1259.64 529.342 1268.2 532.2C1270.37 531.29 1272.31 529.926 1273.9 528.2C1270.5 527 1265.5 525.4 1259.4 523.7L1255.9 522.8C1264.2 521.4 1271.9 520.2 1278.9 519.3C1280 516.5 1281.2 513.2 1282.4 509.6C1275.9 508.1 1269.2 506.9 1262.7 505.8C1272.1 502.9 1279.5 500.8 1285.7 499.3C1286.7 495.9 1287.7 492.3 1288.7 488.5L1275.2 487.1L1290.1 482.5L1291.7 476.2L1261.2 485.5L1226 481.6ZM1276.3 514C1266.1 515.4 1254.2 517.2 1241.8 519.9C1237.13 519.1 1232.23 518.5 1227.1 518.1C1236 514.8 1243.8 512 1250.8 509.7C1258.9 510.8 1267.7 512.2 1276.3 514ZM1284.9 493.7C1276.4 495.8 1265.4 498.9 1250.3 504C1242.2 502.9 1234.9 502.1 1229 501.5L1261.8 491.2L1284.9 493.7ZM1226.4 473.7C1226.3 475.6 1226.3 477.7 1226.1 480.1C1251.7 479.3 1281 476.2 1292 474.9C1292.6 472.3 1293.2 470.1 1293.8 468.2C1285.9 469.2 1254 472.9 1226.4 473.7Z" fill="#3F4EEB"/>
<path d="M1269.7 526.8L1273.9 528.2C1272.31 529.926 1270.37 531.29 1268.2 532.2L1264.2 530.9C1266.3 529.934 1268.18 528.537 1269.7 526.8ZM1279.1 508.9L1282.4 509.6C1281.2 513.2 1280 516.5 1278.9 519.3L1274.5 519.9C1276.37 516.382 1277.91 512.7 1279.1 508.9ZM1284.8 488.1L1288.7 488.5C1287.7 492.3 1286.7 495.9 1285.7 499.3L1281.7 500.3C1282.3 498.3 1282.8 496.2 1283.3 494.1C1283.4 493.9 1283.4 493.7 1283.5 493.5C1283.9 491.7 1284.4 489.9 1284.8 488.1ZM1287.4 477.5L1291.7 476.2L1290.1 482.5L1285.8 483.8C1286.3 481.7 1286.9 479.6 1287.4 477.5ZM1293.8 468.2C1293.2 470.1 1292.6 472.3 1292 474.9L1287.9 475.3L1289.7 468.7L1293.8 468.2ZM1217.8 525.9L1222.8 524.5C1222.1 526.7 1221.4 528.8 1220.6 530.9L1215.4 532.5C1215.43 532.226 1215.5 531.957 1215.6 531.7C1216.47 529.819 1217.2 527.881 1217.8 525.9ZM1221.1 514.4L1225.6 512.7C1224.9 516.5 1224.1 520 1223.1 523.5H1218.7C1219.5 520.967 1220.3 517.933 1221.1 514.4ZM1224.3 497.1L1228 495.9C1227.6 499.8 1227.1 503.4 1226.6 506.9L1222.8 506.5C1223.3 503.6 1223.8 500.5 1224.3 497.1ZM1226 481.6L1229.4 482L1228.8 487.5L1225.5 487.2C1225.7 485.2 1225.9 483.3 1226 481.6ZM1230.2 473.6L1229.6 480H1226.1C1226.3 477.6 1226.3 475.5 1226.4 473.6H1230.2Z" fill="black"/>
<path d="M1327.6 499L1327.8 507.5C1327.81 507.941 1327.93 508.372 1328.16 508.75C1328.38 509.128 1328.71 509.44 1329.09 509.653C1329.48 509.867 1329.91 509.974 1330.35 509.965C1330.79 509.956 1331.22 509.83 1331.6 509.6C1332.05 509.305 1332.4 508.877 1332.6 508.376C1332.79 507.874 1332.83 507.323 1332.7 506.8L1329.8 496.8L1327.6 499Z" fill="white"/>
<path d="M1313 473.4C1321 475.9 1322.6 484.4 1324.3 498.8C1324.34 499.154 1324.46 499.493 1324.67 499.781C1324.88 500.07 1325.16 500.297 1325.49 500.439C1325.82 500.582 1326.17 500.635 1326.53 500.593C1326.88 500.551 1327.22 500.416 1327.5 500.2L1330.3 498.1C1331.03 497.576 1331.61 496.86 1331.96 496.031C1332.31 495.202 1332.43 494.292 1332.3 493.4C1332 491.6 1331.5 488.8 1331 485C1329.8 477.6 1324.9 468.6 1315.5 467.5C1314.99 467.449 1314.48 467.556 1314.03 467.806C1313.58 468.057 1313.22 468.439 1313 468.9C1312.52 470.039 1312.28 471.265 1312.3 472.5C1312.31 472.704 1312.39 472.899 1312.51 473.06C1312.64 473.22 1312.81 473.339 1313 473.4Z" fill="#3F4EEB"/>
</g>
</g>
<defs>
<clipPath id="clip0_25_374">
<rect width="2560" height="626" fill="white"/>
</clipPath>
<clipPath id="clip1_25_374">
<rect width="689" height="352" fill="white" transform="translate(808 274)"/>
</clipPath>
</defs>
</svg>
