<svg width="2560" height="626" viewBox="0 0 2560 626" fill="none" xmlns="http://www.w3.org/2000/svg">
<g clip-path="url(#clip0_25_374)">
<rect width="2560" height="626" fill="#404EED"/>
<g clip-path="url(#clip1_25_374)">
<path d="M1138.4 625.9H865.099C853.8 615.8 846.9 604.1 848 593.3C850.3 570 887 566.6 922.6 583.4L929.6 586.9C930.78 582.614 932.673 578.557 935.2 574.9C953 548.8 993.2 546.3 1019.2 565.4C1022.07 567.495 1024.74 569.838 1027.2 572.4C1030.7 567.567 1034.68 563.11 1039.1 559.1C1063.2 537.3 1091.8 532.6 1102.7 546C1112.3 557.8 1104.9 580.5 1086.7 598.4C1086.7 598.4 1140.5 599.7 1138.4 625.9H1138.4Z" fill="#404EED"/>
<path d="M1476.4 625.4C1454.3 579.8 1441.9 525.2 1441.9 525.2L1440.9 519.9L1396.4 525.2V625.4H1476.4Z" fill="#2835BD"/>
<path d="M1466.8 625.4C1447.4 585.4 1436.6 537.5 1436.6 537.5L1434 524.1L1396.7 537.5V625.4H1466.8Z" fill="black"/>
<path d="M1473.8 492H1457.6V625.46H1473.8V492Z" fill="#2835BD"/>
<path d="M1473.8 509.3C1471.37 510.405 1468.68 510.794 1466.04 510.422C1463.4 510.05 1460.93 508.932 1458.9 507.2L1457.6 506.1V500.1L1473.8 497V509.3Z" fill="black"/>
<path d="M1449 625.4C1460.1 622.7 1475.2 608 1475.2 608C1475.2 608 1480.5 619.4 1483.6 625.4H1494.8C1496.01 625.406 1497.21 625.158 1498.31 624.671C1499.42 624.183 1500.41 623.468 1501.22 622.571C1502.03 621.675 1502.65 620.617 1503.02 619.468C1503.4 618.318 1503.53 617.103 1503.4 615.9C1502.9 611 1500.6 605.5 1497.1 597.5C1491.2 584.2 1489.3 577.2 1477.8 577.2H1467.4L1443.4 566.6C1428 574.7 1417.4 579.4 1408.3 584.8C1394.9 593 1384.3 609.2 1394.7 625.4H1449Z" fill="#FFC619"/>
<path d="M1280 537.5V625.4H1401.8C1421.2 585.4 1432 537.5 1432 537.5L1434.9 525.2L1280 537.5Z" fill="#2835BD"/>
<path d="M1404.2 540.2L1280 551.8V625.4H1372.9C1381.9 604.9 1404.2 540.2 1404.2 540.2Z" fill="black"/>
<path d="M1387.7 618.7C1397.95 602.858 1406.08 585.747 1411.9 567.8" stroke="black" stroke-width="2" stroke-linecap="round" stroke-linejoin="round"/>
<path d="M1373.2 606.5C1368.05 606.5 1363.12 608.544 1359.48 612.182C1355.84 615.821 1353.8 620.755 1353.8 625.9H1392.6C1392.6 620.755 1390.56 615.821 1386.92 612.182C1383.28 608.544 1378.35 606.5 1373.2 606.5Z" fill="#404EED"/>
<path d="M1400.8 625.4C1420.2 585.4 1431.1 537.5 1431.1 537.5L1400.8 625.4Z" fill="#2835BD"/>
<path d="M1438.3 625.3C1438.2 625.1 1431.3 607.7 1427.7 596.5L1427.5 595.8C1425.1 588.2 1423.1 582.1 1423.4 576.7L1421.7 577.6C1421.7 583 1423.6 589 1426 596.3L1426.2 597C1429.5 607.2 1435.4 622.5 1436.6 625.4H1438.3V625.3Z" fill="black"/>
<path d="M1500.8 623C1501.42 622.397 1501.88 621.657 1502.16 620.841C1502.44 620.024 1502.52 619.154 1502.4 618.3C1501.7 611.2 1498 602.7 1494.1 593.9L1490.1 584.5L1488.6 585.1C1489.9 588.3 1491.3 591.4 1492.6 594.5C1497.3 605.2 1501.8 615.5 1500.8 623Z" fill="white"/>
<path d="M1467.4 596.9C1465.5 604.7 1462.8 614.4 1459.3 625.4H1438.3C1438.3 625.4 1431.5 607.9 1427.8 596.6C1424.1 585.3 1421.4 577.2 1425.1 569.7C1428.8 562.2 1434.6 561.6 1443.4 566.6L1442.1 580.8L1448.8 599.8L1451.9 589.7C1458.5 585.4 1466.8 587.8 1467.4 596.9Z" fill="#FFC619"/>
<path d="M1440.3 619.1L1438.6 614.2C1434.9 603.3 1431.7 594 1429.5 585.5C1427.7 578.5 1426.2 570.2 1427.1 566.5C1426.36 567.396 1425.73 568.368 1425.2 569.4C1425.2 574.8 1427 582.3 1427.9 585.9C1430.2 594.5 1433.4 603.8 1437.1 614.7L1438.8 619.7C1439.47 621.609 1440.17 623.509 1440.9 625.4H1442.7C1441.9 623.6 1441.2 621.6 1440.3 619.1ZM1455.5 625.4C1457.8 617.7 1461.1 606.4 1465.4 591.8C1465.43 591.695 1465.44 591.585 1465.42 591.477C1465.41 591.368 1465.37 591.264 1465.32 591.17C1465.26 591.076 1465.19 590.995 1465.1 590.932C1465.01 590.868 1464.91 590.823 1464.8 590.8C1464.65 590.728 1464.49 590.709 1464.33 590.747C1464.17 590.784 1464.03 590.876 1463.93 591.006C1463.86 591.093 1463.82 591.193 1463.8 591.3C1459.4 606.2 1456.1 617.7 1453.8 625.4H1455.5Z" fill="white"/>
<path d="M1463.6 535.4C1451 533.6 1446.2 534.5 1441.5 545.1C1436.8 555.7 1439.2 564.7 1447 576.1C1454.8 587.5 1474 585.4 1481.3 582.7C1488.6 580 1495 572.7 1498.6 562.4C1502.2 552.1 1501.1 540.8 1495.7 534.6C1490.3 528.4 1481.2 523.3 1473 525.9C1464.8 528.5 1463.6 535.4 1463.6 535.4Z" fill="#DE3A93"/>
<path d="M1469.7 550.3L1465.9 549.3M1469.9 551.9L1466 552.4M1497.5 550L1500.5 548M1497.3 551.7L1500.4 551.2" stroke="black" stroke-width="2" stroke-linecap="round" stroke-linejoin="round"/>
<path d="M1459.5 525.2C1457.4 525.2 1455.8 526.6 1455.7 527.6C1455.6 528.6 1459.4 531.8 1464.3 537.9L1465.6 537.4C1461 525.6 1461.6 525.1 1459.5 525.2Z" fill="black"/>
<path d="M1469.2 534.5C1465.4 536.9 1461 540.2 1461 540.2" stroke="black" stroke-width="2" stroke-linecap="round" stroke-linejoin="round"/>
<path d="M1467.4 596.9C1468.6 591.8 1469.5 587.5 1470 584.2C1471.4 575.6 1468.8 574.2 1465 573.1C1461.2 572 1458.5 569.9 1456.7 563.4C1454.9 556.9 1453.8 557 1451.6 558.1C1449.2 559.399 1447.14 561.25 1445.6 563.5C1444.4 565.6 1444.6 568 1446.9 573.9C1448.42 577.59 1450.87 580.827 1454 583.3L1451.9 589.7C1459.6 589.4 1464.2 590.4 1467.4 596.9ZM1479.9 592.9C1478.8 588 1477.4 582.7 1479.9 581.3C1482.4 579.9 1490.1 576.3 1494.3 567.2C1494.43 566.859 1494.67 566.566 1494.97 566.361C1495.27 566.155 1495.63 566.047 1496 566.049C1496.24 566.052 1496.48 566.103 1496.7 566.2H1496.9C1497.17 566.299 1497.41 566.482 1497.58 566.722C1497.74 566.962 1497.83 567.247 1497.83 567.539C1497.82 567.733 1497.78 567.924 1497.7 568.1C1495.65 572.45 1493.21 576.601 1490.4 580.5C1490.98 582.845 1491.72 585.15 1492.6 587.4C1488 589.7 1479.9 592.9 1479.9 592.9Z" fill="#FF78B9"/>
<path d="M1455.3 576.9C1455.45 576.735 1455.53 576.522 1455.53 576.3C1455.53 576.078 1455.45 575.865 1455.3 575.7C1453.81 574.133 1452.47 572.425 1451.3 570.6C1449.4 567.3 1447.6 561.4 1448.9 559.9L1447.5 561.2C1447.28 561.44 1447.11 561.725 1447.01 562.035C1446.9 562.346 1446.87 562.675 1446.9 563C1447.43 565.947 1448.44 568.785 1449.9 571.4C1451.11 573.371 1452.52 575.214 1454.1 576.9L1454.7 577.1L1455.3 576.9Z" fill="black"/>
<path d="M1454.8 583.5C1457.69 583.144 1460.59 583.011 1463.5 583.1M1445.3 610.7L1451.6 590.7M1448.8 599.8L1442.7 582.3M1480 593.7C1481.8 603.4 1485.7 617 1485.7 617" stroke="black" stroke-width="2" stroke-linecap="round" stroke-linejoin="round"/>
<path d="M1398.9 600C1395.43 600 1392.09 601.38 1389.64 603.837C1387.18 606.294 1385.8 609.626 1385.8 613.1V625.9H1411.9V613.1C1411.9 609.643 1410.53 606.326 1408.1 603.872C1405.66 601.419 1402.36 600.027 1398.9 600Z" fill="#404EED"/>
<path d="M1411.9 613.1C1410.21 613.086 1408.54 613.408 1406.97 614.045C1405.41 614.682 1403.98 615.624 1402.78 616.814C1401.58 618.004 1400.63 619.419 1399.98 620.978C1399.33 622.538 1399 624.211 1399 625.9H1424.7C1424.7 622.505 1423.35 619.25 1420.95 616.85C1418.55 614.45 1415.29 613.101 1411.9 613.1Z" fill="#404EED"/>
<path d="M1452 501.5L1471.7 498.4" stroke="black" stroke-width="8" stroke-linecap="round" stroke-linejoin="round"/>
<path d="M1493.2 538.1L1493.9 539.2M1483.3 530.8C1485.89 531.576 1488.28 532.907 1490.3 534.7" stroke="#FFA8D2" stroke-width="3" stroke-linecap="round" stroke-linejoin="round"/>
<path d="M1471.2 498.5C1487.9 495.7 1514.7 489.5 1528.6 485.8" stroke="#2835BD" stroke-width="8" stroke-linecap="round" stroke-linejoin="round"/>
<path d="M1523.6 488.5L1528.9 513.1" stroke="black" stroke-width="2" stroke-linecap="round" stroke-linejoin="round"/>
<path d="M1533.9 512.3V509.1H1513.3V512.4C1513.26 512.856 1513.12 513.299 1512.9 513.7C1511.87 515.202 1511.31 516.978 1511.3 518.8V531.9C1511.3 534.113 1512.1 536.251 1513.55 537.923C1515 539.594 1517.01 540.687 1519.2 541C1522.15 541.4 1525.15 541.4 1528.1 541C1530.26 540.663 1532.23 539.558 1533.65 537.886C1535.06 536.215 1535.83 534.089 1535.8 531.9V518.8C1535.82 516.988 1535.3 515.21 1534.3 513.7C1534.02 513.289 1533.88 512.798 1533.9 512.3Z" fill="#8CD9FF"/>
<path d="M1532 513.7V509.6H1515.1V513.7C1515.1 514.506 1514.9 515.299 1514.5 516C1513.7 517.18 1513.28 518.576 1513.3 520V531.2C1513.3 533.059 1513.97 534.857 1515.18 536.269C1516.39 537.68 1518.06 538.614 1519.9 538.9C1522.29 539.2 1524.71 539.2 1527.1 538.9C1528.96 538.656 1530.67 537.738 1531.91 536.319C1533.14 534.901 1533.82 533.08 1533.8 531.2V520C1533.79 518.593 1533.41 517.213 1532.7 516C1532.27 515.305 1532.03 514.514 1532 513.7Z" fill="#5866FC"/>
<path d="M1513.3 510.7C1513.3 512.1 1517.9 513.2 1523.6 513.2C1529.3 513.2 1533.9 512.1 1533.9 510.7L1523.6 506.6L1513.3 510.7Z" fill="#8CD9FF"/>
<path d="M1512.7 509.9C1512.61 510.051 1512.56 510.217 1512.53 510.39C1512.51 510.563 1512.52 510.738 1512.57 510.906C1512.62 511.074 1512.7 511.231 1512.8 511.367C1512.91 511.504 1513.05 511.617 1513.2 511.7C1514.9 512.7 1518.9 513.4 1523.6 513.4C1528.3 513.4 1532.3 512.7 1534 511.7C1534.29 511.514 1534.5 511.228 1534.59 510.896C1534.69 510.563 1534.65 510.209 1534.5 509.9L1523.6 488.5L1512.7 509.9Z" stroke="black" stroke-width="2" stroke-linecap="round" stroke-linejoin="round"/>
<path d="M1522.6 532L1519.5 531.3C1519.2 531.192 1518.95 530.979 1518.8 530.7C1518.66 530.421 1518.63 530.097 1518.73 529.798C1518.82 529.5 1519.02 529.249 1519.3 529.1C1519.45 529.012 1519.62 528.956 1519.79 528.933C1519.96 528.911 1520.14 528.923 1520.31 528.969C1520.47 529.015 1520.63 529.095 1520.77 529.204C1520.9 529.312 1521.02 529.447 1521.1 529.6L1522.6 532ZM1522.6 532L1522.4 528.9C1522.39 528.753 1522.42 528.607 1522.47 528.47C1522.52 528.332 1522.6 528.207 1522.7 528.1C1522.79 527.97 1522.9 527.862 1523.03 527.784C1523.17 527.706 1523.32 527.66 1523.48 527.651C1523.63 527.641 1523.79 527.667 1523.93 527.728C1524.07 527.789 1524.2 527.882 1524.3 528C1524.56 528.215 1524.73 528.523 1524.77 528.859C1524.8 529.196 1524.71 529.533 1524.5 529.8L1522.6 532Z" fill="white"/>
<path d="M1523.2 534.9C1521.5 535.4 1519.9 534.9 1519.5 533.8C1519.1 532.7 1519.7 532.1 1521.3 531.7C1522 531.52 1522.67 531.251 1523.3 530.9C1524.6 530.2 1525.3 531 1525.6 531.9C1525.9 532.8 1524.9 534.3 1523.2 534.9Z" fill="#121B80"/>
<path d="M1520.14 531.878L1518.94 531.857C1518.74 531.853 1518.54 531.889 1518.36 531.961C1518.18 532.033 1518.01 532.141 1517.87 532.278C1517.73 532.415 1517.61 532.578 1517.53 532.759C1517.46 532.94 1517.41 533.134 1517.41 533.331L1517.41 533.421C1517.4 533.819 1517.55 534.203 1517.83 534.489C1518.11 534.775 1518.48 534.94 1518.88 534.947L1520.08 534.968C1520.48 534.975 1520.86 534.823 1521.15 534.547C1521.44 534.27 1521.6 533.892 1521.61 533.494L1521.61 533.404C1521.62 533.006 1521.46 532.622 1521.19 532.336C1520.91 532.05 1520.53 531.885 1520.14 531.878Z" fill="#FFE75C"/>
<path d="M1525.8 520.2L1528.6 518.7C1528.82 518.511 1528.99 518.27 1529.1 518C1529.19 517.695 1529.16 517.366 1529.01 517.084C1528.94 516.945 1528.84 516.821 1528.71 516.721C1528.59 516.621 1528.45 516.546 1528.3 516.5C1527.97 516.408 1527.61 516.451 1527.31 516.619C1527.01 516.788 1526.79 517.069 1526.7 517.4L1525.8 520.2Z" fill="white"/>
<path d="M1525.8 520.2L1525.3 517.1C1525.19 516.8 1525.02 516.527 1524.8 516.3C1524.52 516.154 1524.21 516.103 1523.9 516.158C1523.59 516.212 1523.31 516.368 1523.1 516.6C1522.91 516.907 1522.84 517.276 1522.92 517.63C1522.99 517.984 1523.2 518.296 1523.5 518.5L1525.8 520.2Z" fill="white"/>
<path d="M1526.6 519.8C1528 520.8 1528.7 522.4 1528 523.3C1527.3 524.2 1526.5 524.3 1525.2 523.2C1524.65 522.754 1524.05 522.384 1523.4 522.1C1523.22 522.054 1523.04 521.971 1522.89 521.856C1522.74 521.741 1522.61 521.597 1522.52 521.431C1522.43 521.266 1522.37 521.083 1522.34 520.894C1522.32 520.705 1522.34 520.514 1522.4 520.332C1522.47 520.089 1522.61 519.87 1522.8 519.7C1523.4 518.7 1525.2 518.8 1526.6 519.8Z" fill="#121B80"/>
<path d="M1525.9 523.398L1526.61 524.368C1526.73 524.527 1526.87 524.662 1527.04 524.765C1527.21 524.867 1527.4 524.936 1527.59 524.966C1527.79 524.997 1527.99 524.988 1528.18 524.942C1528.37 524.896 1528.55 524.812 1528.71 524.696L1528.78 524.643C1528.94 524.527 1529.07 524.381 1529.18 524.213C1529.28 524.045 1529.35 523.858 1529.38 523.663C1529.41 523.469 1529.4 523.27 1529.35 523.078C1529.31 522.887 1529.22 522.706 1529.11 522.547L1528.4 521.577C1528.29 521.418 1528.14 521.283 1527.97 521.18C1527.8 521.078 1527.62 521.009 1527.42 520.979C1527.23 520.948 1527.03 520.957 1526.84 521.003C1526.65 521.049 1526.47 521.133 1526.31 521.249L1526.23 521.302C1526.07 521.418 1525.94 521.564 1525.84 521.733C1525.73 521.901 1525.67 522.087 1525.63 522.282C1525.6 522.477 1525.61 522.675 1525.66 522.867C1525.71 523.058 1525.79 523.239 1525.9 523.398Z" fill="#FFE75C"/>
<path d="M1523.6 511.6C1529.29 511.6 1533.9 510.481 1533.9 509.1C1533.9 507.719 1529.29 506.6 1523.6 506.6C1517.91 506.6 1513.3 507.719 1513.3 509.1C1513.3 510.481 1517.91 511.6 1523.6 511.6Z" fill="#8CD9FF"/>
<path d="M1534 509.1H1513.3V510.52H1534V509.1Z" fill="#8CD9FF"/>
<path d="M1527.8 509.9C1527.3 510 1526.9 510.3 1526.9 510.8C1526.92 510.959 1526.98 511.108 1527.09 511.23C1527.19 511.351 1527.33 511.438 1527.48 511.479C1527.59 511.507 1527.69 511.514 1527.8 511.5L1529.5 511.2C1529.72 511.162 1529.93 511.055 1530.09 510.894C1530.26 510.733 1530.36 510.525 1530.4 510.3C1530.39 510.197 1530.36 510.098 1530.3 510.01C1530.25 509.921 1530.18 509.845 1530.09 509.787C1530.01 509.73 1529.91 509.692 1529.81 509.677C1529.7 509.662 1529.6 509.67 1529.5 509.7L1527.8 509.9Z" fill="white"/>
<path d="M1523.6 488.5L1518.3 513.1M1524.4 490.2L1521.8 484.6M1523.8 490.5L1524.1 484.1" stroke="black" stroke-width="2" stroke-linecap="round" stroke-linejoin="round"/>
<path d="M1495.7 555.4C1499 551.6 1498.5 549.3 1497.4 548.6C1496.3 547.9 1494.6 549.2 1491.6 554C1488.6 558.8 1491.1 560.6 1495.7 555.4ZM1480 555.4C1477.8 550.8 1474 547.5 1470.5 548C1467 548.5 1468.4 553.7 1473 557.2C1477.6 560.7 1482.4 560.4 1480 555.4Z" fill="white"/>
<path d="M1497.2 551.2C1497.39 550.3 1497.32 549.362 1497 548.5C1496.1 548.4 1494.7 549.4 1492.8 552.1C1493 553.5 1493.7 554.5 1494.5 554.6C1495.3 554.7 1497 553.3 1497.2 551.2ZM1480.1 555.7C1480.1 555.6 1480 555.5 1480 555.4C1478.93 553.083 1477.32 551.058 1475.3 549.5C1474.72 550.643 1474.48 551.925 1474.6 553.2C1474.8 555.9 1476.2 558 1477.8 557.9C1478.37 557.824 1478.89 557.57 1479.31 557.175C1479.72 556.779 1480 556.263 1480.1 555.7Z" fill="black"/>
<path d="M1482 565.7C1488.3 564.1 1490.8 563.4 1491.8 564.8C1492.8 566.2 1491.9 567.8 1490.4 569.4C1492 572.9 1491.5 574.5 1488.4 574.5C1486.14 574.339 1483.95 573.654 1482 572.5" stroke="black" stroke-width="2" stroke-linecap="round" stroke-linejoin="round"/>
<path d="M1488.7 567.7C1488.31 568.738 1487.77 569.715 1487.1 570.6" stroke="black" stroke-width="2" stroke-linecap="round" stroke-linejoin="round"/>
<path d="M1060.6 625.4H1071L1078.8 601.6H1058.3L1060.6 625.4Z" fill="black"/>
<path d="M1191.7 625.4H1136C1100.2 625.4 1079.6 615.1 1064.2 603.4L1060.6 625.4H1051.5C1051.5 519.8 1065.1 419.6 1065.1 419.6C1067.1 408.3 1088.6 403.2 1115.3 412.5C1142 421.8 1149.1 433.7 1148.1 444.5C1147.1 455.3 1138.6 528.1 1135.4 562.2L1141.1 568.4C1143.07 570.443 1144.52 572.919 1145.36 575.628C1146.19 578.338 1146.38 581.205 1145.9 584L1145.3 587.3C1167.3 601.5 1201.3 594.4 1191.7 625.4Z" fill="#29CC7A"/>
<path d="M1076.2 439C1075.3 451.6 1075.1 456.8 1075.1 458.8C1075.09 459.116 1075.15 459.43 1075.27 459.723C1075.39 460.015 1075.57 460.28 1075.8 460.5C1081.7 466.4 1088.7 468.3 1094.2 469C1094.52 469.042 1094.84 469.017 1095.15 468.926C1095.46 468.836 1095.74 468.683 1095.99 468.476C1096.23 468.269 1096.43 468.013 1096.57 467.724C1096.71 467.435 1096.79 467.121 1096.8 466.8L1097.9 450.8" stroke="white" stroke-width="2" stroke-miterlimit="10" stroke-linecap="round"/>
<path d="M1071.8 556.3C1068.49 556.37 1065.21 555.578 1062.3 554M1063.5 560.9C1067.8 561.5 1073.1 559.6 1073.1 559.6" stroke="black" stroke-width="4" stroke-miterlimit="10" stroke-linecap="round"/>
<path d="M1122.8 489.1C1121.9 498.1 1121.7 508 1126.2 510.6C1129 512.3 1134.7 512.1 1141 509.1C1143.5 484.2 1146.2 462.8 1147.5 450.7L1117.7 455.6C1114.8 481.3 1114.3 489.7 1122.8 489.1Z" fill="#15AD75"/>
<path d="M1143.53 452.681C1148.31 442.661 1135.49 426.579 1114.91 416.759C1094.32 406.939 1073.76 407.101 1068.98 417.121C1064.2 427.14 1077.01 443.223 1097.6 453.043C1118.19 462.862 1138.75 462.7 1143.53 452.681Z" fill="black"/>
<path d="M1064.2 603.4C1079.6 615.1 1100.2 625.4 1136 625.4H1191.7C1192.65 622.523 1193.19 619.527 1193.3 616.5C1134.2 616.5 1099.9 615.3 1052.3 579.7C1051.9 593.9 1051.6 609.2 1051.5 625.4H1060.6L1064.2 603.4Z" fill="#57F287"/>
<path d="M1068.2 553.1C1070.8 563.2 1077.9 570.9 1084.1 570.3C1090.3 569.7 1090.5 563.9 1088.1 554.2C1087.5 551.6 1087 549.1 1086.5 546.5C1084.7 537.3 1080.2 533.3 1074.7 533.8C1069.2 534.3 1065.5 543.1 1068.2 553.1Z" fill="white"/>
<path d="M1068.2 553.1C1070.8 563.2 1077.9 570.9 1084.1 570.3C1090.3 569.7 1090.5 563.9 1088.1 554.2C1087.5 551.6 1087 549.1 1086.5 546.5C1084.7 537.3 1080.2 533.3 1074.7 533.8C1069.2 534.3 1065.5 543.1 1068.2 553.1Z" fill="white"/>
<path d="M1084.5 553.2C1085.5 557.6 1084.8 561.5 1083.1 561.8C1081.4 562.1 1079.3 559.8 1078.6 554.3C1077.9 548.8 1078.3 545.8 1080 545.8C1081.7 545.8 1083.6 548.7 1084.5 553.2Z" fill="black"/>
<path d="M1142.4 586.5C1142.62 586.513 1142.84 586.441 1143.02 586.3C1143.19 586.159 1143.31 585.958 1143.34 585.737C1143.36 585.59 1143.35 585.44 1143.3 585.3C1141.3 575.3 1135.2 573.9 1123.9 576.5C1112.6 579.1 1108.1 580.1 1105.9 580.9C1103.7 581.7 1104.7 582.2 1119.6 584.5C1127.14 585.767 1134.76 586.436 1142.4 586.5Z" fill="#15AD75"/>
<path d="M1192.8 611.4C1181.7 611.5 1163.2 611.3 1145 610.1C1111.2 607.8 1080.1 595.2 1052.5 572.7V574.5C1080.1 596.8 1111.1 609.3 1144.9 611.5C1161.9 612.7 1179.1 612.9 1190.4 612.9H1193.1L1192.8 611.4Z" fill="black"/>
<path d="M1086.5 546.6C1084.7 537.4 1080.2 533.4 1074.7 533.9C1069.2 534.4 1067.7 538.5 1067.3 544.4C1073.49 546.398 1080.02 547.146 1086.5 546.6Z" fill="#5866FC"/>
<path d="M1228.4 466.3L1195.1 484.9C1195.67 485.427 1196.39 485.767 1197.16 485.874C1197.92 485.981 1198.71 485.851 1199.4 485.5C1201.3 484.7 1205.9 480.5 1207.7 479.5C1209.5 478.5 1214.6 476.5 1217.1 475.5C1220.18 474.279 1223.08 472.629 1225.7 470.6C1227.9 468.8 1228.7 468.1 1228.4 466.3Z" fill="black"/>
<path d="M1146.2 397.2C1140.1 393.4 1139.8 393.5 1136.4 387.4C1133 381.3 1128.7 378.3 1123.7 377.6L1129.9 422.5C1142.9 426.3 1150.9 419.7 1152.7 413.2C1154.5 406.7 1152.4 401 1146.2 397.2Z" fill="#3442D9"/>
<path d="M1140.1 403.1C1138.4 395.8 1133.9 387.3 1128.6 380.9C1126.7 378.588 1125.35 375.873 1124.66 372.962C1123.97 370.051 1123.95 367.02 1124.6 364.1L1126.8 354.1C1128.35 347.159 1127.52 339.901 1124.46 333.484C1121.4 327.067 1116.27 321.862 1109.9 318.7C1106.24 316.9 1102.27 315.847 1098.2 315.6C1090.55 315.039 1082.98 317.483 1077.1 322.412C1071.21 327.341 1067.49 334.367 1066.7 342C1066.53 343.293 1066.47 344.597 1066.5 345.9V350.2L1066.7 368.2C1066.92 376.287 1065.2 384.308 1061.7 391.6C1060.25 394.493 1059.14 397.548 1058.4 400.7L1107.3 452.7C1130.6 448.8 1145.2 426.3 1140.1 403.1Z" fill="#3442D9"/>
<path d="M1107.4 452.7C1130.6 448.8 1145.2 426.3 1140.1 403.1C1138.5 396.2 1134.4 388.2 1129.5 382" stroke="black" stroke-width="2" stroke-miterlimit="10" stroke-linecap="round"/>
<path d="M1124.5 404.6C1129.1 397 1130.9 398 1139.1 400.2C1145.7 401.9 1153.3 415.4 1143.2 422.2C1133.1 429 1112.5 424.9 1124.5 404.6Z" fill="#3442D9"/>
<path d="M1101.7 382.187C1102.63 381.482 1102.77 380.129 1102.04 379.163C1101.3 378.198 1099.95 377.987 1099.03 378.691C1098.11 379.396 1097.96 380.749 1098.7 381.714C1099.44 382.68 1100.78 382.891 1101.7 382.187ZM1114.3 382.969C1115.22 382.265 1115.37 380.911 1114.63 379.946C1113.89 378.981 1112.55 378.769 1111.63 379.474C1110.71 380.178 1110.56 381.532 1111.29 382.497C1112.03 383.462 1113.38 383.674 1114.3 382.969Z" fill="black"/>
<path d="M1113 381.4C1123.7 390.2 1119.3 396.5 1127.9 409.5" stroke="white" stroke-width="3.006" stroke-miterlimit="10" stroke-linecap="round"/>
<path d="M1100.9 401.1C1107.5 396.5 1109.5 395.2 1112 395.3L1118.5 395.9L1116.8 422.3L1100.3 421.8L1100.9 401.1Z" fill="#FFC619"/>
<path d="M1132.9 394.4C1133.02 394.051 1133.07 393.677 1133.02 393.309C1132.98 392.941 1132.85 392.588 1132.65 392.278C1132.44 391.968 1132.17 391.71 1131.85 391.523C1131.53 391.336 1131.17 391.225 1130.8 391.2L1119.8 389.6C1119 389.515 1118.2 389.707 1117.52 390.144C1116.85 390.581 1116.35 391.236 1116.1 392L1109.9 415C1109.78 415.349 1109.73 415.723 1109.78 416.091C1109.82 416.459 1109.95 416.812 1110.15 417.122C1110.36 417.432 1110.63 417.691 1110.95 417.878C1111.27 418.065 1111.63 418.175 1112 418.2L1123 419.8C1123.8 419.885 1124.6 419.693 1125.28 419.256C1125.95 418.819 1126.45 418.164 1126.7 417.4L1132.9 394.4Z" fill="black"/>
<path d="M1132.4 392.1L1133.6 393.5L1130.3 393.8L1132.4 392.1Z" fill="black"/>
<path d="M1137.8 407.3C1136.4 405 1135.1 402.1 1131.3 401.5L1130.8 406.3L1137.8 407.3Z" fill="#FFC619"/>
<path d="M1134 395.7C1134.11 395.351 1134.13 394.983 1134.08 394.622C1134.03 394.26 1133.9 393.915 1133.69 393.611C1133.49 393.306 1133.23 393.048 1132.92 392.857C1132.61 392.665 1132.26 392.543 1131.9 392.5L1120.8 390.9C1120 390.833 1119.21 391.033 1118.54 391.467C1117.87 391.902 1117.36 392.546 1117.1 393.3L1110.9 416.3C1110.79 416.649 1110.77 417.017 1110.82 417.378C1110.87 417.739 1111 418.084 1111.2 418.389C1111.4 418.694 1111.67 418.952 1111.98 419.144C1112.29 419.336 1112.64 419.458 1113 419.5L1124.1 421C1124.88 421.128 1125.68 420.963 1126.34 420.539C1127 420.114 1127.49 419.46 1127.7 418.7L1134 395.7Z" fill="white"/>
<path d="M1130.6 404.8L1135.1 405.5C1136.01 405.602 1136.85 406.057 1137.43 406.767C1138.01 407.478 1138.28 408.387 1138.2 409.3C1138.18 409.775 1138.06 410.24 1137.84 410.665C1137.63 411.089 1137.33 411.464 1136.96 411.765C1136.59 412.067 1136.17 412.288 1135.71 412.415C1135.25 412.542 1134.77 412.571 1134.3 412.5L1131 412C1129.97 411.853 1129.03 411.371 1128.3 410.63C1127.58 409.888 1127.12 408.929 1127 407.9C1126.96 407.209 1127.16 406.526 1127.57 405.967C1127.98 405.408 1128.57 405.008 1129.24 404.835C1129.69 404.72 1130.15 404.708 1130.6 404.8Z" fill="#FFC619"/>
<path d="M1129.1 411.5L1132.2 412C1132.72 412.065 1133.22 412.242 1133.66 412.519C1134.1 412.796 1134.48 413.166 1134.77 413.604C1135.05 414.042 1135.24 414.537 1135.31 415.054C1135.39 415.572 1135.35 416.099 1135.2 416.6C1134.99 417.406 1134.48 418.102 1133.77 418.547C1133.07 418.992 1132.22 419.154 1131.4 419L1129.5 418.7C1128.46 418.557 1127.5 418.079 1126.76 417.339C1126.02 416.599 1125.54 415.637 1125.4 414.6C1125.37 414.131 1125.45 413.662 1125.64 413.231C1125.82 412.8 1126.11 412.418 1126.47 412.116C1126.83 411.815 1127.25 411.602 1127.71 411.495C1128.17 411.388 1128.64 411.39 1129.1 411.5ZM1119.4 422.9L1108.6 421.4L1109.1 417L1119.9 418.6L1119.4 422.9ZM1122 405.4L1115.2 404.4C1114.88 404.356 1114.57 404.219 1114.32 404.006C1114.07 403.793 1113.89 403.513 1113.8 403.2L1113.2 401.4L1112.7 397.7L1109 410.7L1120 412.3C1121.02 412.437 1122.06 412.225 1122.95 411.699C1123.84 411.173 1124.53 410.363 1124.9 409.4C1125.02 408.943 1125.03 408.465 1124.95 408.001C1124.86 407.537 1124.67 407.099 1124.39 406.716C1124.12 406.333 1123.76 406.016 1123.34 405.789C1122.93 405.561 1122.47 405.428 1122 405.4Z" fill="#FFC619"/>
<path d="M1119.8 412.2L1109 410.7L1109.5 417.9L1117.8 419.1C1118.81 419.251 1119.85 419.044 1120.72 418.514C1121.6 417.985 1122.26 417.166 1122.6 416.2C1122.74 415.75 1122.77 415.275 1122.7 414.81C1122.58 414.11 1122.24 413.469 1121.71 412.995C1121.18 412.52 1120.51 412.24 1119.8 412.2Z" fill="#FFC619"/>
<path d="M1196.4 456.3C1196.7 445.5 1187.8 443.8 1181.7 440C1175.6 436.2 1168.4 428.2 1160.9 422.8C1153.4 417.4 1146.9 417.5 1134.2 421.4L1148.7 449.6C1156.9 453.8 1158.7 458.4 1163.1 464.6C1167.5 470.8 1173.4 473.2 1179.3 472.1C1182.4 477.2 1183 478.4 1187.5 476.8C1192 475.2 1199.4 471.8 1201.4 465.9C1203.4 460 1200.5 459 1196.4 456.3Z" fill="#66BCFF"/>
<path d="M1188.9 473.4C1185.1 472.5 1183.6 470.4 1181.2 467.1L1179.1 464.3C1168.8 462.2 1164.6 456.7 1162.3 452.7C1161.2 450.8 1159.2 449.3 1157.3 447.9C1155.4 446.5 1153.5 445 1152.4 443.2C1151.57 441.852 1150.84 440.448 1150.2 439C1149.4 436.9 1148.7 435.5 1147.4 435.1C1146.1 434.7 1143.9 435.5 1141.8 436.4C1139.89 437.319 1137.88 437.991 1135.8 438.4C1135.63 438.432 1135.45 438.398 1135.3 438.306C1135.15 438.213 1135.05 438.068 1135 437.9C1134.99 437.718 1135.05 437.54 1135.16 437.394C1135.27 437.249 1135.42 437.145 1135.6 437.1C1137.56 436.771 1139.45 436.13 1141.2 435.2C1143.6 434.2 1145.6 433.3 1147.7 433.9C1149.8 434.5 1150.5 436.3 1151.4 438.5C1152.3 440.7 1152.6 441.1 1153.4 442.5C1154.72 444.179 1156.31 445.631 1158.1 446.8C1160.1 448.4 1162.2 450 1163.4 452.1C1165.7 456.2 1169.7 461.1 1179.6 463.1H1179.8L1180 463.3C1180.9 464.4 1181.6 465.5 1182.3 466.4C1184.5 469.5 1185.9 471.4 1189.1 472.2C1189.23 472.188 1189.36 472.229 1189.46 472.313C1189.56 472.396 1189.63 472.516 1189.64 472.647C1189.65 472.733 1189.64 472.821 1189.6 472.9C1189.61 472.986 1189.59 473.073 1189.56 473.152C1189.52 473.231 1189.46 473.299 1189.39 473.35C1189.32 473.399 1189.24 473.43 1189.15 473.439C1189.07 473.448 1188.98 473.434 1188.9 473.4Z" fill="#45AAF7"/>
<path d="M1148.1 433C1146.76 437.293 1145.88 441.719 1145.5 446.2" stroke="black" stroke-width="2" stroke-miterlimit="10" stroke-linecap="round"/>
<path d="M1154 485C1144.9 493.2 1137.2 490.9 1133.6 490.5C1130 490.1 1130.4 487.5 1130.1 485.3C1129.8 483.1 1129.6 479.8 1129.6 479.8C1120.5 479.2 1119.4 473 1119.2 467.5C1119 462 1117.6 461.2 1116.9 457.3C1105.93 455.329 1095.56 450.859 1086.59 444.234C1077.63 437.609 1070.31 429.009 1065.2 419.1L1074.7 412.2L1095.9 426C1110.2 420.7 1118.1 418 1125.8 417.5C1133.5 417 1141.1 419.9 1143.6 430.6C1146.1 441.3 1146.4 444.6 1148.7 449.7C1149.3 451 1150.3 452.8 1151.3 454.7C1154.1 460.4 1157 468.4 1151.3 477.1C1151.99 479.799 1152.9 482.44 1154 485Z" fill="#8CD9FF"/>
<path d="M1080.7 439.3C1080.4 432.2 1083.1 427.2 1088 426.4L1075.6 417.8L1066.6 421.7C1068.9 428.1 1074.8 435.1 1080.7 439.3Z" fill="black"/>
<path d="M1136.6 486.9L1136.8 485.6C1135 485.3 1134.9 484 1134.4 477.9V477.1L1134 476.9C1130 475.9 1127.3 473.5 1127.1 465.4C1127.07 461.553 1126.28 457.749 1124.8 454.2C1124.41 453.367 1124.11 452.495 1123.9 451.6C1123.7 450.8 1123.4 450 1123.2 449.3C1122.07 446.477 1121.76 443.392 1122.3 440.4C1122.7 437.3 1122.4 435.6 1121.4 434.7C1120.4 433.8 1117.9 434.1 1114.2 435.3H1113.7C1107.8 437.2 1096 441.1 1084.1 442.1L1085.6 443.2C1097.2 442.1 1108.4 438.4 1114.1 436.6L1114.6 436.4C1117.6 435.4 1119.7 434.9 1120.6 435.6C1121.5 436.3 1121.3 437.6 1121 440.1C1120.47 443.299 1120.81 446.582 1122 449.6C1122.26 450.316 1122.46 451.052 1122.6 451.8C1122.9 452.7 1123.2 453.6 1123.6 454.5C1125.03 457.923 1125.77 461.591 1125.8 465.3C1126 472.8 1128.1 476.5 1133.2 478C1133.6 484.1 1133.8 486.4 1136.6 486.9Z" fill="#66BCFF"/>
<path d="M1101.1 399.7C1098.2 397.2 1096 397.4 1092.5 398.9C1088.8 395.5 1084 395 1079 396.7C1074 398.4 1066.3 400.7 1061.8 401.9C1061.55 401.994 1061.28 402.014 1061.01 401.957C1060.75 401.9 1060.51 401.768 1060.32 401.578C1060.13 401.388 1060 401.148 1059.95 400.886C1059.89 400.624 1059.91 400.351 1060 400.1L1063.3 388.1C1052.6 396.1 1049.1 413.2 1052.5 422.5C1055.9 431.8 1070.7 431.7 1075.4 429.1C1080.1 426.5 1081.7 425.7 1087.1 426.7C1092.5 427.7 1096.7 428.4 1103.8 423L1108 421.6C1109.6 412.5 1108.2 405.9 1101.1 399.7Z" fill="#3442D9"/>
<path d="M1101.1 399.7C1098.2 397.2 1096 397.4 1092.5 398.9C1088.8 395.5 1084 395 1079 396.7C1074 398.4 1066.3 400.7 1061.8 401.9" stroke="black" stroke-width="2" stroke-miterlimit="10" stroke-linecap="round"/>
<path d="M1092.5 398.9C1095.49 401.213 1097.97 404.107 1099.81 407.406C1101.65 410.706 1102.8 414.343 1103.2 418.1" stroke="black" stroke-width="2" stroke-miterlimit="10" stroke-linecap="round"/>
<path d="M1122.8 395.9C1122.84 395.762 1122.86 395.616 1122.84 395.472C1122.82 395.328 1122.78 395.189 1122.7 395.065C1122.63 394.941 1122.52 394.835 1122.4 394.755C1122.28 394.674 1122.14 394.622 1122 394.6H1121C1120.72 394.539 1120.43 394.588 1120.19 394.737C1119.95 394.887 1119.77 395.124 1119.7 395.4L1118.8 398.7C1118.75 398.846 1118.74 399 1118.76 399.151C1118.79 399.302 1118.84 399.445 1118.93 399.571C1119.02 399.697 1119.13 399.8 1119.27 399.875C1119.4 399.949 1119.55 399.992 1119.7 400H1120.7C1120.96 400.034 1121.23 399.971 1121.45 399.824C1121.67 399.677 1121.83 399.456 1121.9 399.2L1122.8 395.9Z" fill="#29CC7A"/>
<path d="M1106.8 376.7C1107.57 375.135 1108.71 373.781 1110.12 372.754C1111.54 371.726 1113.17 371.056 1114.9 370.8C1115.1 370.8 1115.2 370.6 1115.1 370.5C1113.8 365.7 1114.4 363 1116.1 359.5C1116.13 359.462 1116.14 359.416 1116.13 359.37C1116.13 359.324 1116.11 359.282 1116.08 359.249C1116.05 359.227 1116.03 359.21 1116 359.2C1110.4 356.8 1108.3 352.8 1107.7 349.8C1107.6 349.6 1107.3 349.5 1107.2 349.7C1104.7 354.7 1101.3 354.9 1098.4 354.5C1098.2 354.5 1098.1 354.7 1098.2 354.8C1101.1 360.4 1099 364.4 1096.1 367.2C1096.08 367.239 1096.08 367.281 1096.08 367.323C1096.08 367.365 1096.09 367.407 1096.11 367.444C1096.13 367.482 1096.16 367.515 1096.19 367.542C1096.22 367.569 1096.26 367.589 1096.3 367.6C1101.9 368.6 1104.9 372.3 1106.3 376.6C1106.4 376.8 1106.7 376.9 1106.8 376.7Z" fill="#FFC619"/>
<path d="M1119.8 412.2L1114.1 411.4M1130.2 411.9L1133.4 412.4M1107.5 349.6C1110 344 1109.8 340.1 1109.1 337.9M1115.5 359.4C1117.06 359.639 1118.65 359.54 1120.17 359.108C1121.69 358.677 1123.1 357.924 1124.3 356.9M1106.8 376.7C1106.81 377.444 1106.71 378.185 1106.5 378.9M1096.6 367.3C1092.9 369.9 1087.3 369.5 1083.4 368.3M1098.4 354.5C1097 351.6 1094.4 348.3 1092 347.2M1115.1 370.5C1116.39 371.189 1117.77 371.694 1119.2 372" stroke="black" stroke-width="2" stroke-miterlimit="10" stroke-linecap="round"/>
<path d="M1104.4 359.8C1106.1 366.4 1108.3 366 1109.3 364C1110.3 362 1111 359.5 1112.6 359.7C1114.2 359.9 1113.8 362.7 1111.9 366.7C1110 370.7 1106.9 371.6 1104 368.1C1101.1 364.6 1101 361.2 1100.9 358.8C1100.8 356.4 1103.3 355.8 1104.4 359.8Z" fill="#C40655"/>
<path d="M1100.4 380.6C1101.6 394.4 1094.6 401 1092.4 414.7" stroke="white" stroke-width="3.006" stroke-miterlimit="10" stroke-linecap="round"/>
<path d="M1116.1 457.4C1114.3 451.5 1113.5 440.7 1118.4 431.2" stroke="black" stroke-width="2" stroke-miterlimit="10" stroke-linecap="round"/>
<path d="M1115 442.7C1113.87 440.508 1113.32 438.064 1113.4 435.6M1065.7 400.8L1058.3 403.2M1139.2 399.9L1144.2 401.3" stroke="black" stroke-width="2" stroke-miterlimit="10" stroke-linecap="round"/>
<path d="M1228.4 466.2C1227.85 467.002 1227.21 467.74 1226.5 468.4C1223.3 471.6 1216 475.2 1212.1 476.7C1209.13 477.639 1206.4 479.208 1204.1 481.3C1201.2 483.6 1197.6 486.7 1195.1 484.9C1191.95 482.001 1189.07 478.821 1186.5 475.4C1186.35 475.221 1186.26 475.006 1186.22 474.777C1186.19 474.549 1186.21 474.315 1186.3 474.1C1187.7 470.1 1192.2 464.4 1198.7 461.4C1198.91 461.315 1199.15 461.288 1199.38 461.324C1199.61 461.359 1199.82 461.454 1200 461.6C1203.8 464.3 1206.1 465 1209.2 464.9C1212.3 464.8 1218.3 462.8 1223.2 461.4C1228.1 460 1228.2 462.2 1228.4 466.2Z" fill="#FFC619"/>
<path d="M1189.3 478.9C1191.09 481.038 1193.02 483.043 1195.1 484.9C1197.6 486.7 1201.2 483.6 1204.1 481.3C1206.4 479.208 1209.13 477.639 1212.1 476.7C1216 475.2 1223.3 471.6 1226.5 468.4C1227.21 467.74 1227.85 467.002 1228.4 466.2C1228.2 462.2 1227.3 460.2 1223.2 461.4C1219.1 462.6 1216.8 463.6 1213.8 464.3C1212.91 464.539 1212.1 465.021 1211.46 465.692C1210.83 466.363 1210.39 467.196 1210.2 468.1C1210.1 469.2 1209.9 470.3 1209.7 471.6C1204.3 470.5 1199.1 472.3 1198 479.4C1198 479.4 1193.4 476.9 1189.3 478.9Z" fill="#FFE75C"/>
<path d="M1226.5 468.4L1228.4 466.3C1228.53 466.089 1228.6 465.847 1228.6 465.6C1228.51 464.842 1228.31 464.1 1228 463.4C1227.2 464.9 1225.8 466.4 1222.7 468.7C1217.8 472.3 1212.3 473.6 1209 474.7C1205.98 475.826 1203.22 477.562 1200.9 479.8C1199.07 481.862 1196.67 483.326 1194 484L1195.1 484.9C1197.6 486.7 1201.2 483.6 1204.1 481.3C1206.4 479.208 1209.13 477.639 1212.1 476.7C1216 475.2 1223.3 471.6 1226.5 468.4Z" fill="white"/>
<path d="M1165.5 472.9C1160.4 471.5 1155.2 473.9 1150.6 482.6C1149.3 481.6 1146.1 480.5 1141.3 481.4C1136.5 482.3 1134.7 484.4 1133.9 486C1133.42 486.924 1133.28 487.984 1133.5 489C1133.8 490.3 1134.2 492 1134.8 494.8C1135.7 499.1 1135.2 502.9 1137.6 503.3L1171.2 479.1C1171.2 479.1 1172.1 474.7 1165.5 472.9Z" fill="#FFC619"/>
<path d="M1165.5 472.9C1160.4 471.5 1155.2 473.9 1150.6 482.6C1149.96 483.902 1149.39 485.237 1148.9 486.6C1143.6 486.1 1141.1 488.4 1140.2 493.5C1140.2 493.5 1136.7 491.1 1134.6 493.9C1134.7 494.2 1134.7 494.5 1134.8 494.8C1135.7 499.1 1135.2 502.9 1137.6 503.3L1171.2 479.1C1171.2 479.1 1172.1 474.7 1165.5 472.9Z" fill="#FFE75C"/>
<path d="M1171.2 477.7L1168.7 475.4C1164.4 474.7 1160.8 474.6 1157 478.9C1153.2 483.2 1150.7 487.9 1146.7 490.7C1141 494.9 1136.2 496.6 1135.5 499.7C1134.8 502.8 1136.2 503.1 1137.6 503.3L1171.2 479.1C1171.32 478.641 1171.32 478.159 1171.2 477.7Z" fill="white"/>
<path d="M1166.9 473.9L1169.3 474.6C1169.51 474.634 1169.71 474.714 1169.88 474.836C1170.05 474.957 1170.2 475.116 1170.3 475.3C1171.23 476.866 1171.61 478.693 1171.4 480.5L1162.6 478.9C1165.5 477.5 1166.5 476.2 1166.2 474.5C1166.17 474.406 1166.17 474.306 1166.19 474.211C1166.22 474.116 1166.28 474.032 1166.35 473.967C1166.43 473.903 1166.52 473.863 1166.62 473.851C1166.71 473.839 1166.81 473.856 1166.9 473.9Z" fill="white"/>
<path d="M1137.8 503.4C1146.4 505.1 1150.2 502.4 1153.9 498.6C1155.43 496.902 1157.22 495.452 1159.2 494.3C1164.3 491.4 1168.3 488.3 1171 483.4C1173.7 478.5 1165.4 475.3 1160 479.8C1154.6 484.3 1154.3 489.6 1143.6 496.2C1136.3 500.8 1135.3 502.9 1137.8 503.4Z" fill="black"/>
<path d="M1139.02 487.793C1139.07 486.801 1138.62 485.971 1138.01 485.94C1137.41 485.909 1136.88 486.689 1136.83 487.682C1136.77 488.675 1137.23 489.505 1137.83 489.535C1138.44 489.566 1138.97 488.786 1139.02 487.793ZM1228.7 465C1228.52 463.986 1228.19 463.007 1227.7 462.1C1227.6 462 1227.5 461.9 1227.4 462H1227.3C1227.1 462 1227.1 462.1 1227.1 462.2C1227.6 464.3 1227.8 466.7 1226.7 468.1C1229 466.3 1228.8 465.3 1228.7 465ZM1193.02 475.633C1193.94 475.428 1194.43 474.126 1194.12 472.724C1193.8 471.323 1192.81 470.353 1191.89 470.558C1190.97 470.763 1190.48 472.065 1190.8 473.466C1191.11 474.867 1192.11 475.837 1193.02 475.633Z" fill="white"/>
<path d="M1268 625.4C1310.3 625.4 1345 607.8 1390.6 567.6C1436.2 527.4 1452.2 514.2 1465.1 501.7C1478 489.2 1477.1 481.1 1470.4 465.1C1463.7 449.1 1459.3 451.4 1459.3 451.4C1458.5 438.4 1445.8 416.9 1431.8 399.6C1417.8 382.3 1409.4 385.1 1394 385.1C1378.6 385.1 1373.5 389.3 1366.6 407.7C1359.7 426.1 1342.5 441.7 1310 447.4C1277.5 453.1 1259.7 452.8 1258.8 469.1C1257.9 485.4 1258.8 513.5 1244.4 535.7C1226.5 544.352 1207.68 550.96 1188.3 555.4C1176.9 558 1174.5 565.5 1173.4 575.3C1172.3 585.1 1176.3 590.4 1178.2 593.5C1174.3 597.2 1175.1 598.8 1177 607.5C1177.8 611 1178.7 614.5 1179.5 617.6C1180.15 619.853 1181.52 621.832 1183.39 623.239C1185.27 624.646 1187.55 625.405 1189.9 625.4H1268Z" fill="#66BCFF"/>
<path d="M1173.4 575.3C1172.3 585.1 1176.3 590.4 1178.2 593.5L1256.5 602.5L1332.3 591.4C1332.3 591.4 1382.3 551.1 1375.5 537.7C1368.7 524.3 1354.4 536.9 1335.3 549.9C1316.2 562.9 1296.4 564.1 1273.7 560.8C1251 557.5 1223.5 547.8 1188.3 555.4C1176.9 558 1174.5 565.5 1173.4 575.3Z" fill="#45AAF7"/>
<path d="M1383.6 531C1383.7 513.7 1383.1 509.6 1388.9 510.4C1394.7 511.2 1404.2 513.1 1404.2 513.1L1393.9 529.4L1383.6 531ZM1414 504.1C1414 495.7 1413.3 490.2 1415.6 489C1417.9 487.8 1420.6 489.3 1425.4 493.6C1430.2 497.9 1414 504.1 1414 504.1ZM1183.2 591.4C1181.9 581.3 1182.2 573.3 1184.9 571.3C1187.6 569.3 1190.2 573.9 1192.1 577.9C1194.52 582.976 1197.54 587.743 1201.1 592.1L1183.2 591.4ZM1270 593.6C1273.3 580.1 1276.1 576.8 1278.9 576.6C1281.7 576.4 1283.1 582.8 1287.1 591.9L1280.5 595L1270 593.6Z" fill="#A3E1FF"/>
<path d="M1450 470.1C1407.5 511.2 1382.1 533.8 1346.5 560.3C1310.9 586.8 1295 593.7 1265.1 593.7C1235.2 593.7 1216 576.9 1178.2 593.5C1174.3 597.2 1175.1 598.8 1177 607.5C1177.8 611 1178.7 614.5 1179.5 617.6C1180.15 619.853 1181.52 621.832 1183.39 623.239C1185.27 624.646 1187.55 625.405 1189.9 625.4H1268C1310.3 625.4 1345 607.8 1390.6 567.6C1436.2 527.4 1452.2 514.2 1465.1 501.7C1478 489.2 1477.1 481.1 1470.4 465.1C1463.7 449.1 1459.3 451.4 1459.3 451.4C1459.3 455.9 1459.6 460.7 1450 470.1Z" fill="white"/>
<path d="M1470.9 466.2C1470.8 472 1467.2 478.6 1457.4 487.6C1438.2 505.1 1398.5 540.9 1371.2 564.1C1341.3 589.8 1313.5 611 1276.5 611C1263.6 611 1249.5 608.3 1235.8 605.7C1211.7 601.1 1188.8 596.8 1177.2 608.4C1177.3 609 1177.5 609.7 1177.6 610.3C1188.4 598.4 1211.3 602.7 1235.5 607.3C1249.3 609.9 1263.5 612.6 1276.5 612.6C1314 612.6 1343.2 590.2 1372.2 565.4C1399.5 542.1 1439.3 506.2 1458.4 488.8C1465.6 482.2 1470.8 476.1 1472.1 469.4L1470.9 466.2Z" fill="#FFE75C"/>
<path d="M1359 593L1345.1 561.4C1339.77 565.333 1334.87 568.833 1330.4 571.9L1329.2 573.3C1334.4 571.1 1339.6 574 1340 582.9C1340.1 587.7 1340.1 597.4 1340.1 605.2C1346.62 601.479 1352.93 597.407 1359 593ZM1195.7 617.4C1187.7 617.5 1183.8 620.7 1187 623.8C1188.16 624.882 1189.71 625.457 1191.3 625.4H1260C1225.8 625.4 1222.3 617 1195.7 617.4Z" fill="black"/>
<path d="M1431.3 440.9C1421 454.1 1417.4 459.3 1421.7 473.4C1423.5 479.5 1425.8 486 1427.7 491.4L1450 470.1C1459.6 460.7 1459.3 455.9 1459.3 451.4C1458.6 440.3 1449.3 423 1437.8 407.4C1443.6 415.8 1441.6 427.7 1431.3 440.9Z" fill="#45AAF7"/>
<path d="M1417.6 424.1C1423.5 401.6 1422.9 386.6 1408.4 385.1C1404.1 384.7 1399.5 385.1 1394 385.1C1378.5 385.1 1373.5 389.3 1366.6 407.7C1359.7 426.1 1342.5 441.7 1310 447.4C1277.5 453.1 1259.7 452.8 1258.8 469.1C1257.9 485.4 1258.8 513.5 1244.4 535.7C1242.3 539.4 1244.8 541.9 1274.7 541.9C1304.6 541.9 1322.4 540.1 1327.4 527.6C1332.4 515.1 1339.6 487.8 1343.2 477C1346.8 466.2 1346.2 460 1366.1 455.5C1386 451 1412 445.8 1417.6 424.1Z" fill="#8CD9FF"/>
<path d="M1348.5 452.7C1364.5 446.1 1375.8 447.6 1392.8 439.5C1409.8 431.4 1412 425.4 1414.1 414.3C1416.2 403.2 1417.7 390.1 1407.4 389.2C1397.1 388.3 1387.8 388.7 1383.1 390.3C1378.4 391.9 1377.2 394.8 1372.1 405.3C1367 415.8 1364.5 431.4 1341.6 441.6L1348.5 452.7Z" fill="black"/>
<path d="M1213.7 586.4C1213.8 591.5 1215.2 598.8 1218 599.5C1220.8 600.2 1222.1 594.5 1225 587.4C1221.9 584.2 1213.7 580.9 1213.7 586.4Z" fill="#A3E1FF"/>
<path d="M1341.3 563.2C1338.82 563.302 1336.4 563.951 1334.2 565.1C1324.9 569.8 1325 573.8 1325.3 575.2C1338 567.5 1343.6 576 1347.2 600.9C1348.6 610.7 1351.1 615.5 1358.3 615.5C1367.1 615.5 1372.3 609.3 1371.7 593.3C1371.56 590.281 1371.23 587.275 1370.7 584.3C1368.2 570.9 1363 557.4 1350.4 557.4C1348.51 557.494 1346.68 558.078 1345.08 559.095C1343.49 560.112 1342.18 561.527 1341.3 563.2Z" fill="#FF78B9"/>
<path d="M1435.2 518.1C1429.8 522.9 1424.4 523.3 1423.2 519.1C1422 514.9 1425.3 507.5 1430.7 502.8L1440.1 494.5C1445.5 489.7 1450.9 489.3 1452.1 493.5C1453.3 497.7 1449.9 505.1 1444.6 509.8L1435.2 518.1Z" fill="#FFA8D2"/>
<path d="M1341.3 563.2C1349.7 564.1 1356.1 568 1358.8 578.6C1360.7 586.1 1360.1 594.9 1361.4 602.5" stroke="black" stroke-width="2" stroke-linecap="round" stroke-linejoin="round"/>
<path d="M1437 443.2L1434.5 446.6C1426.6 456.9 1423.7 460.7 1432.1 487.2L1433.4 486C1425.5 461 1428.1 457.5 1435.7 447.6L1438.3 444.2C1444.5 435.8 1446.8 427.5 1446.6 420.4L1444.8 417.6C1445.8 424.9 1443.8 434 1437 443.2Z" fill="#5866FC"/>
<path d="M1323.1 581.6C1323.9 577.1 1322.9 574.9 1320.6 575.2C1318.3 575.5 1316.3 576.9 1314.1 582C1315.9 601.5 1321.1 593.9 1323.1 581.6Z" fill="#A3E1FF"/>
<path d="M1405.3 392.4L1421 390.4C1423.5 390.1 1424.4 384.4 1425.5 377.2C1426.6 370 1425.3 356.9 1425.3 356.9L1409.1 361.8L1405.3 392.4Z" fill="#FF78B9"/>
<path d="M1448.9 352.2C1442.2 344.7 1408.2 318.5 1408.2 318.5L1400.2 330C1400.2 330 1411.5 342.5 1419.6 350.9C1403.2 352.2 1373.6 356.1 1373.6 356.1C1352.6 351.9 1343.7 349.9 1343.7 349.9L1365.3 329.4L1357.4 317.6C1357.4 317.6 1336.8 330.2 1325.2 339.3C1313.6 348.4 1311.7 359.6 1322.7 368.1C1333.7 376.6 1337.4 379.2 1337.4 379.2L1408.3 386.5C1429.1 380.7 1441.5 374.4 1449 367.9C1456.5 361.4 1455.6 359.7 1448.9 352.2Z" fill="#FFC619"/>
<path d="M1331.5 348.8C1334 349.2 1338.4 350.4 1338.4 350.4" stroke="black" stroke-width="2" stroke-linecap="round" stroke-linejoin="round"/>
<path d="M1403.9 314.9L1396.8 326.8L1404.8 335C1407.4 332.1 1410 327 1409.2 319.3L1403.9 314.9Z" fill="black"/>
<path d="M1357.9 366.9C1348.3 355.1 1344.9 350 1342.9 344.1C1341.5 339.8 1350 342.4 1361 345.7C1372 349 1370.3 352.1 1357.9 366.9Z" fill="#FF78B9"/>
<path d="M1344.1 349.6C1334 360.9 1333.8 374.7 1334.9 394C1334.9 394 1317.5 411.5 1320 426.8C1322.5 442.1 1346.3 448.7 1373.4 448.4C1395.2 448.2 1397.6 443.1 1399.6 432.8C1400.8 426.1 1401.7 418.4 1402.3 412.4C1402.91 406.093 1404.49 399.918 1407 394.1C1420.4 363 1409.6 351.8 1409.6 351.8L1373.4 354.7L1344.1 349.6Z" fill="#FF78B9"/>
<path d="M1352.1 333.4C1343.6 339.7 1345.4 349.3 1357.4 362.5L1362.8 367.9L1397.7 362.2C1408.9 348.3 1406.7 339 1402.6 333.2C1408.3 323.8 1408.7 317.3 1408.6 311.5C1408.5 301.7 1399.6 286.3 1377.2 286.5C1365 286.6 1354.2 291.4 1350.3 306.9C1348.9 312.3 1348.6 321.1 1352.1 333.4Z" fill="#FFE75C"/>
<path d="M1395.3 299.2C1395.7 299.197 1396.1 299.323 1396.42 299.559C1396.75 299.795 1396.99 300.129 1397.12 300.512C1397.2 300.766 1397.23 301.034 1397.2 301.3L1396 314.8C1395.65 317.828 1394.22 320.629 1391.99 322.7C1389.75 324.772 1386.85 325.977 1383.8 326.1H1381.1C1377.92 326.13 1374.83 325 1372.42 322.92C1370.01 320.84 1368.44 317.954 1368 314.8L1367.5 310.3C1367.43 309.77 1367.16 309.285 1366.76 308.935C1366.35 308.585 1365.84 308.395 1365.3 308.4C1364.75 308.397 1364.22 308.602 1363.81 308.972C1363.4 309.342 1363.15 309.852 1363.1 310.4L1362.5 317.6C1362.28 319.979 1361.19 322.193 1359.43 323.816C1357.68 325.44 1355.39 326.36 1353 326.4C1351.57 326.454 1350.14 326.197 1348.82 325.645C1347.49 325.093 1346.31 324.261 1345.34 323.206C1344.37 322.15 1343.64 320.897 1343.2 319.532C1342.76 318.167 1342.63 316.723 1342.8 315.3L1344 301.7C1344.07 301.16 1344.33 300.663 1344.73 300.297C1345.14 299.931 1345.66 299.719 1346.2 299.7L1395.3 299.2Z" fill="black"/>
<path d="M1396.6 299.7L1408.6 311.5V313.9L1396.7 305.6L1396.6 299.7Z" fill="black"/>
<path d="M1409.6 351.7C1403.97 346.383 1397.34 342.236 1390.1 339.5C1383.6 337.2 1382.1 336.6 1380.6 340.3C1379.1 344 1377.5 348.2 1376.9 349.6C1376.3 351 1369.2 355.8 1364.9 359.4C1360.6 363 1356.1 370.7 1356.1 370.7L1401.7 374.2L1409.6 351.7ZM1419.4 350.7L1425.3 356.9C1422.6 365.3 1420.9 375.8 1419.9 387.5L1396.6 389.2L1409.6 351.8L1419.4 350.7ZM1344.1 349.6L1339.8 348.8C1339.14 348.704 1338.47 348.753 1337.83 348.943C1337.19 349.133 1336.6 349.46 1336.1 349.9C1331.21 354.355 1327.9 360.291 1326.7 366.8C1325.4 374.4 1325.8 375.2 1334.6 379.9C1340.5 383.1 1346.6 369.1 1349.9 359.6C1350.28 358.564 1350.43 357.457 1350.34 356.356C1350.25 355.256 1349.91 354.19 1349.35 353.235C1348.8 352.28 1348.04 351.46 1347.13 350.831C1346.23 350.203 1345.19 349.783 1344.1 349.6Z" fill="#FF78B9"/>
<path d="M1348.3 427.4C1340.65 418.477 1332.03 410.428 1322.6 403.4L1300.2 415.1L1307.5 436.9C1307.5 436.9 1313.5 444.5 1319.1 450.5C1324.7 456.5 1334.8 456.7 1353.4 458.3C1360.4 445.8 1357.2 437.9 1348.3 427.4Z" fill="#2835BD"/>
<path d="M1311.8 436.5L1313.8 426.8" stroke="black" stroke-width="2" stroke-linecap="round" stroke-linejoin="round"/>
<path d="M1390.4 423.3C1388.6 418.4 1383.1 414.5 1358.5 413.3L1349.4 404.1L1324.1 423.4C1333.1 438.6 1343.3 456.9 1353.4 458.3C1363.5 459.7 1372.6 459 1384.6 451.7C1392.2 447 1393.2 444.8 1393.4 440.8C1393.25 434.853 1392.24 428.959 1390.4 423.3Z" fill="#3442D9"/>
<path d="M1417.6 424.1C1412 445.8 1386 450.9 1366.1 455.5C1348.1 459.6 1346.9 465 1344.2 474L1330.6 470.4V456.4L1348.5 452.7C1364.5 446.1 1375.8 447.6 1392.8 439.5C1409.8 431.4 1412 425.4 1414.1 414.3C1415.4 407.8 1416.4 400.4 1414.8 395.3L1420.5 396.1C1422 402.9 1420.7 412.5 1417.6 424.1Z" fill="#8CD9FF"/>
<path d="M1265.4 445.6C1264.08 446.403 1263.06 447.629 1262.51 449.08C1261.97 450.531 1261.93 452.123 1262.4 453.6C1265.3 462.8 1266.6 469.9 1263.9 492.3C1261.2 514.7 1256.7 527.1 1254.6 531.7C1254.47 531.973 1254.41 532.273 1254.42 532.575C1254.43 532.876 1254.51 533.171 1254.66 533.435C1254.8 533.698 1255.01 533.924 1255.26 534.092C1255.51 534.26 1255.8 534.366 1256.1 534.4C1267.3 536.1 1284.1 535.9 1302.5 533.5C1305.61 533.093 1308.55 531.87 1311.02 529.955C1313.5 528.04 1315.43 525.502 1316.6 522.6C1321.33 510.861 1325.21 498.797 1328.2 486.5C1334.9 458.9 1334.1 459.4 1348.5 452.7C1347.4 442.8 1347.5 433.3 1336.7 431.9C1324.1 430.3 1310.3 436.5 1290.5 441.9C1286 437.9 1281.9 435.9 1265.4 445.6Z" fill="#45AAF7"/>
<path d="M1319.6 433.4C1311.3 435.4 1301.9 438.8 1290.5 441.9C1287.2 439 1284.1 437.1 1276.2 440.2C1275.91 440.947 1275.67 441.716 1275.5 442.5C1271.9 460.4 1265.1 489.7 1285.5 488.1C1305.9 486.5 1308.2 474.4 1307.6 463.4C1307 452.4 1305.7 446.3 1307.6 443.1C1309.5 439.9 1316.2 434.3 1319.6 433.4Z" fill="#287CEB"/>
<path d="M1337.9 458.7C1336.5 447 1335.6 441.4 1332.4 439.2C1329.2 437 1328.1 437.7 1323.9 438.6C1319.7 439.5 1314.4 441.1 1307.6 443.1C1294.9 446.8 1279.1 451.5 1273.1 451.1L1271.1 450.8C1272.5 449.3 1281.1 446.2 1286.8 444.1L1290.8 442.6C1290.89 442.577 1290.98 442.534 1291.06 442.476C1291.14 442.417 1291.2 442.344 1291.25 442.26C1291.3 442.175 1291.32 442.082 1291.33 441.986C1291.34 441.889 1291.33 441.792 1291.3 441.7L1290.5 441.9L1289.8 441.3L1286.2 442.6C1272.9 447.5 1269.1 449.2 1269.4 451.1C1269.7 453 1271.2 452.6 1273 452.7C1279.2 453.1 1294.5 448.6 1308.1 444.6C1314.8 442.6 1320.6 440.9 1324.2 440.2C1327.8 439.5 1330.1 439.5 1331.5 440.5C1332.9 441.5 1335.1 448.5 1336.4 460.3L1337.9 458.7Z" fill="black"/>
<path d="M1343 313.3L1362 299.5L1354.9 299.6L1343.5 307.9L1343 313.3ZM1347.6 325C1349.24 325.955 1351.11 326.439 1353 326.4C1355.39 326.361 1357.68 325.441 1359.43 323.817C1361.19 322.193 1362.28 319.979 1362.5 317.6L1362.8 314L1347.6 325ZM1395.3 299.2H1387.4L1367.9 313.3V314.8C1368.13 316.346 1368.63 317.838 1369.4 319.2L1396.5 299.7C1396.16 299.41 1395.74 299.235 1395.3 299.2ZM1396 314.8L1396.6 308.3L1374.4 324.4C1376.45 325.534 1378.76 326.12 1381.1 326.1H1383.8C1386.85 325.978 1389.75 324.772 1391.99 322.701C1394.22 320.629 1395.65 317.828 1396 314.8Z" fill="#5866FC"/>
<path d="M1361.5 327.6C1364.17 327.018 1366.93 327.018 1369.6 327.6" stroke="black" stroke-width="2" stroke-linecap="round" stroke-linejoin="round"/>
<path d="M1277.7 407C1277.8 407.3 1277.9 407.5 1278 407.5C1278.1 407.5 1278.2 407.4 1278.3 407.1" fill="black"/>
<path d="M1294.7 402.4C1283.9 406.6 1268.8 415.4 1255.8 422.7C1248.6 426.7 1246.4 429.1 1250.2 436.4C1254 443.7 1261.2 450.7 1266.6 455.5C1272 460.3 1275 458.3 1279 455.7L1307.5 436.9L1322.6 403.4C1316.3 399 1305.6 398.1 1294.7 402.4Z" fill="#2835BD"/>
<path d="M1264.2 442.1C1268.8 443 1268.8 443.5 1274.5 439.8C1280.2 436.1 1308.9 418.8 1311.8 416.9" stroke="#4150F2" stroke-width="2" stroke-miterlimit="10" stroke-linecap="round"/>
<path d="M1336.4 391.8C1331.9 388.5 1328.8 388.3 1304.6 386.3C1280.4 384.3 1269.1 381.8 1266.3 386.2C1263.5 390.6 1266 401.6 1268.8 409.9C1271.6 418.2 1273.2 420.9 1277.1 421.2C1281 421.5 1317.4 422.7 1324.1 423.4L1327.4 429L1358.5 413.3C1358.5 413.3 1340.8 395.1 1336.4 391.8Z" fill="#3442D9"/>
<path d="M1259.6 435.4C1253.6 430.5 1251.2 429.6 1251.9 432.9C1252.6 436.2 1256.4 441.1 1260.5 445.5C1264.6 449.9 1269.3 454.4 1270.9 454.1C1272.5 453.8 1270.6 450.8 1268.1 446C1265.97 441.959 1263.08 438.362 1259.6 435.4Z" fill="black"/>
<path d="M1266.2 442.7L1261.2 446.2L1257.1 449.1C1252.2 452.7 1254.2 455.6 1254.6 459C1255 462.4 1253.9 464.9 1251.6 464.9C1249.3 464.9 1245.9 455.3 1243.5 450.7C1241.1 446.1 1233.2 442.4 1229.1 438.9C1227.4 437.4 1227 434.9 1229.1 434.1C1228.2 432.8 1227 429.5 1230 428.5C1233 427.5 1237.5 433 1240 434.7C1242.5 436.4 1245.6 438 1247.9 437C1249.48 436.295 1251.02 435.494 1252.5 434.6L1255.9 432.5L1259.6 435.4C1262.11 437.533 1264.33 439.987 1266.2 442.7Z" fill="#FF78B9"/>
<path d="M1417.2 436C1411.6 457.7 1385.6 462.8 1365.7 467.4C1345.8 472 1346.4 478 1342.8 488.9C1339.2 499.8 1332 527.1 1327 539.5L1393.5 500.4L1420.7 448.8L1417.2 436Z" fill="#66BCFF"/>
<path d="M1340.5 511.9C1338.3 519.6 1336.5 525.4 1335.5 529.6C1334.5 533.8 1339.1 533.4 1344 532C1348.9 530.6 1351 528.5 1350.2 524.2C1349.4 519.9 1342.9 503.2 1340.5 511.9Z" fill="white"/>
<path d="M1259.6 435.4L1255.9 432.5C1255 432.4 1254.5 432.4 1254.1 432.7C1253.7 433 1253.8 433.2 1253.9 433.7C1256.2 433.3 1261.9 437.4 1262.1 445.5C1263.4 446.1 1264.1 446.5 1264.6 446.2C1265.1 445.9 1265.8 444.5 1266.2 442.7C1264.33 439.987 1262.11 437.533 1259.6 435.4Z" fill="black"/>
<path d="M1250.8 460.5C1249.8 456.7 1246.4 448.9 1243.5 445.8C1240.6 442.7 1236 435.4 1234.5 433C1233 430.6 1229.1 427.6 1228.2 430.3C1228.01 431.635 1228.33 432.994 1229.1 434.1C1227 434.9 1227.4 437.4 1229.1 438.9C1233.2 442.4 1240.9 445.6 1243.5 450.7C1246.1 455.8 1247.9 463.2 1250.7 464.7L1251.5 464.9C1252 464.8 1251.7 463.4 1250.8 460.5Z" fill="#DE3A93"/>
<path d="M1365.2 280.5C1363.93 284.072 1363.79 287.946 1364.8 291.6C1364.96 292.243 1365.33 292.812 1365.86 293.213C1366.39 293.613 1367.04 293.82 1367.7 293.8H1373.8C1374.48 293.803 1375.15 293.662 1375.77 293.386C1376.39 293.11 1376.95 292.706 1377.4 292.2C1381.1 288.3 1387.8 287.3 1393 289.5L1396.1 285C1396.43 284.559 1396.6 284.014 1396.56 283.463C1396.52 282.912 1396.29 282.393 1395.9 282C1392.87 279.135 1389.25 276.963 1385.3 275.633C1381.34 274.304 1377.15 273.849 1373 274.3C1371.25 274.51 1369.6 275.2 1368.22 276.295C1366.85 277.39 1365.8 278.846 1365.2 280.5Z" fill="#FF8C19"/>
<path d="M1420.3 382.8C1419.9 387.5 1420.7 389.1 1421.8 387.2C1422.57 385.494 1423.05 383.667 1423.2 381.8L1420.3 382.8Z" fill="black"/>
<path d="M1408.3 352.1C1399.7 353.2 1394.9 354.7 1390.6 356.7M1425.9 358.1L1429.6 361.8M1404 393.6C1404 393.6 1399.5 396.9 1396.6 399.3" stroke="black" stroke-width="2" stroke-linecap="round" stroke-linejoin="round"/>
<path d="M1364.5 367.8L1363.7 379.6H1358.4C1358.71 375.727 1359.31 371.883 1360.2 368.1C1360.4 367.454 1360.7 366.846 1361.1 366.3C1362.43 364.635 1363.98 363.155 1365.7 361.9L1374.9 355C1377.5 353.08 1379.49 350.437 1380.6 347.4C1381.9 344 1383.5 339.7 1384.2 338.8" stroke="#F551A0" stroke-width="2" stroke-linecap="round" stroke-linejoin="round"/>
<path d="M1420.2 351.5C1416 362.1 1411.4 380.1 1414.9 388.7C1415.25 389.51 1415.69 390.281 1416.2 391L1418.2 390.8C1417.44 390.015 1416.83 389.101 1416.4 388.1C1413.2 380.4 1417.2 363.8 1421.4 352.8L1420.2 351.5ZM1327.6 375.4C1328 375.872 1328.47 376.277 1329 376.6C1330 364.9 1334.8 355 1342.2 349.2L1340.2 348.9C1333.3 354.8 1328.7 364.3 1327.6 375.4Z" fill="#F551A0"/>
<path d="M1407.9 392.9L1396.8 394.2" stroke="black" stroke-width="2" stroke-linecap="round" stroke-linejoin="round"/>
<path d="M1393 435.3C1389 438 1380.5 442.1 1375.1 443.3C1373.75 443.577 1372.38 443.711 1371 443.7C1368.84 443.781 1366.68 443.331 1364.73 442.39C1362.78 441.449 1361.09 440.045 1359.8 438.3L1354.6 431C1350.1 424.6 1344.4 416.7 1340.3 411C1340.2 410.8 1340.2 410.7 1340.1 410.6C1333.9 401.9 1330.6 398.1 1326 397.4C1321.4 396.7 1308.1 395.5 1284.8 393.7C1279 393.3 1278.1 393.4 1277 396C1276.97 396.098 1276.92 396.187 1276.85 396.262C1276.78 396.337 1276.69 396.396 1276.59 396.435C1276.5 396.473 1276.4 396.489 1276.29 396.483C1276.19 396.477 1276.09 396.449 1276 396.4C1275.82 396.314 1275.67 396.169 1275.58 395.987C1275.49 395.806 1275.46 395.599 1275.5 395.4C1277.1 391.5 1279.5 391.7 1284.9 392.1C1298.5 393.2 1321.8 395 1326.3 395.8C1330.8 396.6 1335.7 401.7 1341.4 409.7C1341.4 409.8 1341.5 409.9 1341.6 410C1345.7 415.7 1351.3 423.7 1355.9 430L1361.1 437.4C1363.9 441.3 1369 442.9 1374.7 441.7C1380.4 440.5 1389.7 435.7 1392.8 433.5C1392.92 434.094 1392.98 434.696 1393 435.3Z" fill="#5866FC"/>
<path d="M1269.4 387.9C1266.5 390.6 1268 395.9 1270 403.2C1272 410.5 1274.5 417.1 1275.8 416.9C1277.1 416.7 1277.8 414.1 1278.1 410.3C1278.4 406.5 1278.3 399.7 1276.8 394.6C1275.3 389.5 1271.6 385.8 1269.4 387.9Z" fill="black"/>
<path d="M1278.3 407.1L1270.9 406.2C1267.3 405.7 1263.7 405.4 1260.1 405.2C1259.4 409.5 1257.9 415 1255.8 417.2C1253.7 419.4 1250 419.3 1249.6 414.3C1249.2 409.3 1249.5 402.2 1246.2 387.4C1245 381.9 1242.8 378.6 1242 374.4C1241.2 370.2 1243.6 369.5 1245.8 369.9C1245.3 367.1 1245.5 363.5 1249 363C1252.5 362.5 1253.9 365.5 1253.9 369.4C1254.42 368.681 1255.17 368.161 1256.02 367.924C1256.88 367.688 1257.79 367.75 1258.6 368.1C1261 369 1261.5 372 1261.2 376.8C1260.9 381.6 1260.8 386.7 1262.8 388.4C1264.8 390.1 1265.3 389.5 1268.1 389.9L1274.9 390.5C1275.71 391.777 1276.35 393.156 1276.8 394.6C1277.83 398.685 1278.34 402.886 1278.3 407.1Z" fill="#FF78B9"/>
<path d="M1278.3 407.1C1278.34 402.886 1277.83 398.685 1276.8 394.6C1276.35 393.156 1275.71 391.777 1274.9 390.5H1274C1276.5 393.7 1278 402.1 1274 406.6C1274.56 407.077 1275.21 407.449 1275.9 407.7C1276.75 407.781 1277.59 407.569 1278.3 407.1Z" fill="black"/>
<path d="M1258.7 374C1259.1 369.3 1255.8 367.3 1253.9 369.4C1253.9 365.5 1252.6 362.5 1249 363C1245.4 363.5 1245.3 367.1 1245.8 369.9C1243.6 369.5 1241.2 370.3 1242 374.4C1242.8 378.5 1245 381.9 1246.2 387.4C1249.5 402.2 1249.1 408.4 1249.6 414.3C1249.61 415.489 1249.99 416.645 1250.7 417.6C1253 420 1254 417.1 1253.9 412.7C1253.85 405.814 1254.25 398.933 1255.1 392.1C1256.1 384.1 1258.4 378.7 1258.7 374Z" fill="#DE3A93"/>
<path d="M1249.4 363C1252.5 362.9 1252.6 366.8 1252.5 371.1L1253.9 369.4C1253.9 365.7 1252.7 362.7 1249.4 363Z" fill="#FF78B9"/>
<path d="M1329.7 412.2C1328.13 416.074 1326.26 419.818 1324.1 423.4C1328.7 421.4 1330.6 420.4 1330.6 420.4M1359.4 414.2L1370 425M1370 425C1378.6 426.1 1380.6 427.9 1382.9 430.8M1370 425L1379.7 425.3" stroke="black" stroke-width="2" stroke-linecap="round" stroke-linejoin="round"/>
<path d="M1343.6 526.1C1342.3 529.4 1340.1 531.6 1338.7 531.1C1337.3 530.6 1337.3 529 1338.7 525.9C1339.3 524.642 1339.81 523.338 1340.2 522C1341 519.1 1342.5 518.6 1343.6 519.1C1344.7 519.6 1345 522.7 1343.6 526.1Z" fill="black"/>
<path d="M1265 481.6C1264.9 483.3 1264.7 485.2 1264.5 487.2L1286.9 489.7L1263.3 497.1C1262.8 500.5 1262.3 503.6 1261.8 506.5L1277.4 508.1C1272.1 510 1266.3 512 1260.1 514.4C1259.3 517.933 1258.5 520.933 1257.7 523.4L1265 523.6L1256.8 525.9C1256.2 527.881 1255.47 529.819 1254.6 531.7C1254.5 531.957 1254.43 532.226 1254.4 532.5C1263.3 529.7 1272.3 527.4 1281 525.5C1289.88 527.103 1298.64 529.342 1307.2 532.2C1309.37 531.29 1311.31 529.926 1312.9 528.2C1309.5 527 1304.5 525.4 1298.4 523.7L1294.9 522.8C1303.2 521.4 1310.9 520.2 1317.9 519.3C1319 516.5 1320.2 513.2 1321.4 509.6C1314.9 508.1 1308.2 506.9 1301.7 505.8C1311.1 502.9 1318.5 500.8 1324.7 499.3C1325.7 495.9 1326.7 492.3 1327.7 488.5L1314.2 487.1L1329.1 482.5L1330.7 476.2L1300.2 485.5L1265 481.6ZM1315.3 514C1305.1 515.4 1293.2 517.2 1280.8 519.9C1276.13 519.1 1271.23 518.5 1266.1 518.1C1275 514.8 1282.8 512 1289.8 509.7C1297.9 510.8 1306.7 512.2 1315.3 514ZM1323.9 493.7C1315.4 495.8 1304.4 498.9 1289.3 504C1281.2 502.9 1273.9 502.1 1268 501.5L1300.8 491.2L1323.9 493.7ZM1265.4 473.7C1265.3 475.6 1265.3 477.7 1265.1 480.1C1290.7 479.3 1320 476.2 1331 474.9C1331.6 472.3 1332.2 470.1 1332.8 468.2C1324.9 469.2 1293 472.9 1265.4 473.7Z" fill="#3F4EEB"/>
<path d="M1308.7 526.8L1312.9 528.2C1311.31 529.926 1309.37 531.29 1307.2 532.2L1303.2 530.9C1305.3 529.934 1307.18 528.537 1308.7 526.8ZM1318.1 508.9L1321.4 509.6C1320.2 513.2 1319 516.5 1317.9 519.3L1313.5 519.9C1315.37 516.382 1316.91 512.7 1318.1 508.9ZM1323.8 488.1L1327.7 488.5C1326.7 492.3 1325.7 495.9 1324.7 499.3L1320.7 500.3C1321.3 498.3 1321.8 496.2 1322.3 494.1C1322.4 493.9 1322.4 493.7 1322.5 493.5C1322.9 491.7 1323.4 489.9 1323.8 488.1ZM1326.4 477.5L1330.7 476.2L1329.1 482.5L1324.8 483.8C1325.3 481.7 1325.9 479.6 1326.4 477.5ZM1332.8 468.2C1332.2 470.1 1331.6 472.3 1331 474.9L1326.9 475.3L1328.7 468.7L1332.8 468.2ZM1256.8 525.9L1261.8 524.5C1261.1 526.7 1260.4 528.8 1259.6 530.9L1254.4 532.5C1254.43 532.226 1254.5 531.957 1254.6 531.7C1255.47 529.819 1256.2 527.881 1256.8 525.9ZM1260.1 514.4L1264.6 512.7C1263.9 516.5 1263.1 520 1262.1 523.5H1257.7C1258.5 520.967 1259.3 517.933 1260.1 514.4ZM1263.3 497.1L1267 495.9C1266.6 499.8 1266.1 503.4 1265.6 506.9L1261.8 506.5C1262.3 503.6 1262.8 500.5 1263.3 497.1ZM1265 481.6L1268.4 482L1267.8 487.5L1264.5 487.2C1264.7 485.2 1264.9 483.3 1265 481.6ZM1269.2 473.6L1268.6 480H1265.1C1265.3 477.6 1265.3 475.5 1265.4 473.6H1269.2Z" fill="black"/>
<path d="M1366.6 499L1366.8 507.5C1366.81 507.941 1366.93 508.372 1367.16 508.75C1367.38 509.128 1367.71 509.44 1368.09 509.653C1368.48 509.867 1368.91 509.974 1369.35 509.965C1369.79 509.956 1370.22 509.83 1370.6 509.6C1371.05 509.305 1371.4 508.877 1371.6 508.376C1371.79 507.874 1371.83 507.323 1371.7 506.8L1368.8 496.8L1366.6 499Z" fill="white"/>
<path d="M1352 473.4C1360 475.9 1361.6 484.4 1363.3 498.8C1363.34 499.154 1363.46 499.493 1363.67 499.781C1363.88 500.07 1364.16 500.297 1364.49 500.439C1364.82 500.582 1365.17 500.635 1365.53 500.593C1365.88 500.551 1366.22 500.416 1366.5 500.2L1369.3 498.1C1370.03 497.576 1370.61 496.86 1370.96 496.031C1371.31 495.202 1371.43 494.292 1371.3 493.4C1371 491.6 1370.5 488.8 1370 485C1368.8 477.6 1363.9 468.6 1354.5 467.5C1353.99 467.449 1353.48 467.556 1353.03 467.806C1352.58 468.057 1352.22 468.439 1352 468.9C1351.52 470.039 1351.28 471.265 1351.3 472.5C1351.31 472.704 1351.39 472.899 1351.51 473.06C1351.64 473.22 1351.81 473.339 1352 473.4Z" fill="#3F4EEB"/>
</g>
</g>
<defs>
<clipPath id="clip0_25_374">
<rect width="2560" height="626" fill="white"/>
</clipPath>
<clipPath id="clip1_25_374">
<rect width="689" height="352" fill="white" transform="translate(847 274)"/>
</clipPath>
</defs>
</svg>
