<svg width="689" height="352" viewBox="0 0 689 352" fill="none" xmlns="http://www.w3.org/2000/svg">
<g clip-path="url(#clip0_25_583)">
<path d="M291.399 351.9H18.099C6.80001 341.8 -0.0999884 330.1 1.00001 319.3C3.30001 296 40 292.6 75.6 309.4L82.6 312.9C83.7798 308.614 85.673 304.557 88.2 300.9C106 274.8 146.2 272.3 172.2 291.4C175.066 293.495 177.743 295.838 180.2 298.4C183.696 293.567 187.684 289.11 192.1 285.1C216.2 263.3 244.8 258.6 255.7 272C265.3 283.8 257.9 306.5 239.7 324.4C239.7 324.4 293.5 325.7 291.4 351.9H291.399Z" fill="#404EED"/>
<path d="M629.4 351.4C607.3 305.8 594.9 251.2 594.9 251.2L593.9 245.9L549.4 251.2V351.4H629.4Z" fill="#2835BD"/>
<path d="M619.8 351.4C600.4 311.4 589.6 263.5 589.6 263.5L587 250.1L549.7 263.5V351.4H619.8Z" fill="black"/>
<path d="M626.8 218H610.6V351.46H626.8V218Z" fill="#2835BD"/>
<path d="M626.8 235.3C624.374 236.405 621.683 236.794 619.044 236.422C616.404 236.05 613.926 234.932 611.9 233.2L610.6 232.1V226.1L626.8 223V235.3Z" fill="black"/>
<path d="M602 351.4C613.1 348.7 628.2 334 628.2 334C628.2 334 633.5 345.4 636.6 351.4H647.8C649.009 351.406 650.206 351.158 651.313 350.671C652.419 350.183 653.411 349.468 654.222 348.571C655.034 347.675 655.647 346.617 656.023 345.468C656.398 344.318 656.526 343.103 656.4 341.9C655.9 337 653.6 331.5 650.1 323.5C644.2 310.2 642.3 303.2 630.8 303.2H620.4L596.4 292.6C581 300.7 570.4 305.4 561.3 310.8C547.9 319 537.3 335.2 547.7 351.4H602Z" fill="#FFC619"/>
<path d="M433 263.5V351.4H554.8C574.2 311.4 585 263.5 585 263.5L587.9 251.2L433 263.5Z" fill="#2835BD"/>
<path d="M557.2 266.2L433 277.8V351.4H525.9C534.9 330.9 557.2 266.2 557.2 266.2Z" fill="black"/>
<path d="M540.7 344.7C550.945 328.858 559.08 311.747 564.9 293.8" stroke="black" stroke-width="2" stroke-linecap="round" stroke-linejoin="round"/>
<path d="M526.2 332.5C521.055 332.5 516.121 334.544 512.482 338.182C508.844 341.821 506.8 346.755 506.8 351.9H545.6C545.6 346.755 543.556 341.821 539.918 338.182C536.28 334.544 531.345 332.5 526.2 332.5Z" fill="#404EED"/>
<path d="M553.8 351.4C573.2 311.4 584.1 263.5 584.1 263.5L553.8 351.4Z" fill="#2835BD"/>
<path d="M591.3 351.3C591.2 351.1 584.3 333.7 580.7 322.5L580.5 321.8C578.1 314.2 576.1 308.1 576.4 302.7L574.7 303.6C574.7 309 576.6 315 579 322.3L579.2 323C582.5 333.2 588.4 348.5 589.6 351.4H591.3V351.3Z" fill="black"/>
<path d="M653.8 349C654.417 348.397 654.883 347.657 655.161 346.841C655.439 346.024 655.521 345.154 655.4 344.3C654.7 337.2 651 328.7 647.1 319.9L643.1 310.5L641.6 311.1C642.9 314.3 644.3 317.4 645.6 320.5C650.3 331.2 654.8 341.5 653.8 349Z" fill="white"/>
<path d="M620.4 322.9C618.5 330.7 615.8 340.4 612.3 351.4H591.3C591.3 351.4 584.5 333.9 580.8 322.6C577.1 311.3 574.4 303.2 578.1 295.7C581.8 288.2 587.6 287.6 596.4 292.6L595.1 306.8L601.8 325.8L604.9 315.7C611.5 311.4 619.8 313.8 620.4 322.9Z" fill="#FFC619"/>
<path d="M593.3 345.1L591.6 340.2C587.9 329.3 584.7 320 582.5 311.5C580.7 304.5 579.2 296.2 580.1 292.5C579.365 293.396 578.728 294.368 578.2 295.4C578.2 300.8 580 308.3 580.9 311.9C583.2 320.5 586.4 329.8 590.1 340.7L591.8 345.7C592.475 347.609 593.175 349.509 593.9 351.4H595.7C594.9 349.6 594.2 347.6 593.3 345.1ZM608.5 351.4C610.8 343.7 614.1 332.4 618.4 317.8C618.43 317.695 618.438 317.585 618.423 317.477C618.41 317.368 618.374 317.264 618.317 317.17C618.261 317.076 618.186 316.995 618.096 316.932C618.008 316.868 617.907 316.823 617.8 316.8C617.653 316.728 617.486 316.709 617.328 316.747C617.169 316.784 617.028 316.876 616.929 317.006C616.864 317.093 616.82 317.193 616.8 317.3C612.4 332.2 609.1 343.7 606.8 351.4H608.5Z" fill="white"/>
<path d="M616.6 261.4C604 259.6 599.2 260.5 594.5 271.1C589.8 281.7 592.2 290.7 600 302.1C607.8 313.5 627 311.4 634.3 308.7C641.6 306 648 298.7 651.6 288.4C655.2 278.1 654.1 266.8 648.7 260.6C643.3 254.4 634.2 249.3 626 251.9C617.8 254.5 616.6 261.4 616.6 261.4Z" fill="#DE3A93"/>
<path d="M622.7 276.3L618.9 275.3M622.9 277.9L619 278.4M650.5 276L653.5 274M650.3 277.7L653.4 277.2" stroke="black" stroke-width="2" stroke-linecap="round" stroke-linejoin="round"/>
<path d="M612.5 251.2C610.4 251.2 608.8 252.6 608.7 253.6C608.6 254.6 612.4 257.8 617.3 263.9L618.6 263.4C614 251.6 614.6 251.1 612.5 251.2Z" fill="black"/>
<path d="M622.2 260.5C618.4 262.9 614 266.2 614 266.2" stroke="black" stroke-width="2" stroke-linecap="round" stroke-linejoin="round"/>
<path d="M620.4 322.9C621.6 317.8 622.5 313.5 623 310.2C624.4 301.6 621.8 300.2 618 299.1C614.2 298 611.5 295.9 609.7 289.4C607.9 282.9 606.8 283 604.6 284.1C602.2 285.399 600.144 287.25 598.6 289.5C597.4 291.6 597.6 294 599.9 299.9C601.422 303.59 603.867 306.827 607 309.3L604.9 315.7C612.6 315.4 617.2 316.4 620.4 322.9ZM632.9 318.9C631.8 314 630.4 308.7 632.9 307.3C635.4 305.9 643.1 302.3 647.3 293.2C647.433 292.859 647.666 292.566 647.969 292.361C648.271 292.155 648.629 292.047 648.995 292.049C649.237 292.052 649.477 292.103 649.7 292.2H649.9C650.175 292.299 650.411 292.482 650.577 292.722C650.743 292.962 650.831 293.247 650.827 293.539C650.824 293.733 650.781 293.924 650.7 294.1C648.655 298.45 646.211 302.601 643.4 306.5C643.983 308.845 644.718 311.15 645.6 313.4C641 315.7 632.9 318.9 632.9 318.9Z" fill="#FF78B9"/>
<path d="M608.3 302.9C608.448 302.735 608.53 302.522 608.53 302.3C608.53 302.078 608.448 301.865 608.3 301.7C606.805 300.133 605.466 298.425 604.3 296.6C602.4 293.3 600.6 287.4 601.9 285.9L600.5 287.2C600.278 287.44 600.109 287.725 600.006 288.035C599.902 288.346 599.866 288.675 599.9 289C600.429 291.947 601.443 294.785 602.9 297.4C604.109 299.371 605.517 301.214 607.1 302.9L607.7 303.1L608.3 302.9Z" fill="black"/>
<path d="M607.8 309.5C610.685 309.144 613.594 309.011 616.5 309.1M598.3 336.7L604.6 316.7M601.8 325.8L595.7 308.3M633 319.7C634.8 329.4 638.7 343 638.7 343" stroke="black" stroke-width="2" stroke-linecap="round" stroke-linejoin="round"/>
<path d="M551.9 326C548.426 326 545.094 327.38 542.637 329.837C540.18 332.294 538.8 335.626 538.8 339.1V351.9H564.9V339.1C564.9 335.643 563.533 332.326 561.098 329.872C558.663 327.419 555.357 326.027 551.9 326Z" fill="#404EED"/>
<path d="M564.9 339.1C563.211 339.086 561.535 339.408 559.97 340.045C558.406 340.682 556.983 341.624 555.784 342.814C554.584 344.004 553.632 345.419 552.983 346.978C552.333 348.538 551.999 350.211 552 351.9H577.7C577.699 348.505 576.35 345.25 573.95 342.85C571.55 340.45 568.295 339.101 564.9 339.1Z" fill="#404EED"/>
<path d="M605 227.5L624.7 224.4" stroke="black" stroke-width="8" stroke-linecap="round" stroke-linejoin="round"/>
<path d="M646.2 264.1L646.9 265.2M636.3 256.8C638.889 257.576 641.278 258.907 643.3 260.7" stroke="#FFA8D2" stroke-width="3" stroke-linecap="round" stroke-linejoin="round"/>
<path d="M624.2 224.5C640.9 221.7 667.7 215.5 681.6 211.8" stroke="#2835BD" stroke-width="8" stroke-linecap="round" stroke-linejoin="round"/>
<path d="M676.6 214.5L681.9 239.1" stroke="black" stroke-width="2" stroke-linecap="round" stroke-linejoin="round"/>
<path d="M686.9 238.3V235.1H666.3V238.4C666.258 238.856 666.122 239.299 665.9 239.7C664.868 241.202 664.311 242.978 664.3 244.8V257.9C664.303 260.113 665.103 262.251 666.553 263.923C668.004 265.594 670.009 266.687 672.2 267C675.153 267.4 678.147 267.4 681.1 267C683.264 266.663 685.233 265.558 686.647 263.886C688.062 262.215 688.826 260.089 688.8 257.9V244.8C688.825 242.988 688.302 241.21 687.3 239.7C687.019 239.289 686.878 238.798 686.9 238.3Z" fill="#8CD9FF"/>
<path d="M685 239.7V235.6H668.1V239.7C668.105 240.506 667.898 241.299 667.5 242C666.702 243.18 666.284 244.576 666.3 246V257.2C666.302 259.059 666.968 260.857 668.178 262.269C669.388 263.68 671.063 264.614 672.9 264.9C675.291 265.2 677.709 265.2 680.1 264.9C681.964 264.656 683.675 263.738 684.909 262.319C686.143 260.901 686.816 259.08 686.8 257.2V246C686.791 244.593 686.412 243.213 685.7 242C685.275 241.305 685.034 240.514 685 239.7Z" fill="#5866FC"/>
<path d="M666.3 236.7C666.3 238.1 670.9 239.2 676.6 239.2C682.3 239.2 686.9 238.1 686.9 236.7L676.6 232.6L666.3 236.7Z" fill="#8CD9FF"/>
<path d="M665.7 235.9C665.612 236.051 665.556 236.217 665.533 236.39C665.511 236.563 665.523 236.738 665.569 236.906C665.615 237.074 665.695 237.231 665.804 237.367C665.912 237.504 666.047 237.617 666.2 237.7C667.9 238.7 671.9 239.4 676.6 239.4C681.3 239.4 685.3 238.7 687 237.7C687.29 237.514 687.502 237.228 687.594 236.896C687.686 236.563 687.653 236.209 687.5 235.9L676.6 214.5L665.7 235.9Z" stroke="black" stroke-width="2" stroke-linecap="round" stroke-linejoin="round"/>
<path d="M675.6 258L672.5 257.3C672.201 257.192 671.952 256.979 671.8 256.7C671.659 256.421 671.632 256.097 671.725 255.798C671.818 255.5 672.025 255.249 672.3 255.1C672.451 255.012 672.617 254.956 672.79 254.933C672.963 254.911 673.138 254.923 673.306 254.969C673.474 255.015 673.631 255.095 673.767 255.204C673.904 255.312 674.017 255.447 674.1 255.6L675.6 258ZM675.6 258L675.4 254.9C675.394 254.753 675.418 254.607 675.47 254.47C675.521 254.332 675.599 254.207 675.7 254.1C675.786 253.97 675.9 253.862 676.035 253.784C676.169 253.706 676.32 253.66 676.475 253.651C676.63 253.641 676.786 253.667 676.929 253.728C677.072 253.789 677.199 253.882 677.3 254C677.562 254.215 677.729 254.523 677.766 254.859C677.804 255.196 677.708 255.533 677.5 255.8L675.6 258Z" fill="white"/>
<path d="M676.2 260.9C674.5 261.4 672.9 260.9 672.5 259.8C672.1 258.7 672.7 258.1 674.3 257.7C674.998 257.52 675.67 257.251 676.3 256.9C677.6 256.2 678.3 257 678.6 257.9C678.9 258.8 677.9 260.3 676.2 260.9Z" fill="#121B80"/>
<path d="M673.136 257.878L671.936 257.857C671.739 257.853 671.543 257.889 671.36 257.961C671.177 258.033 671.009 258.141 670.868 258.278C670.726 258.415 670.612 258.578 670.534 258.759C670.455 258.94 670.413 259.134 670.41 259.331L670.408 259.421C670.401 259.819 670.553 260.203 670.829 260.489C671.105 260.775 671.484 260.94 671.882 260.947L673.082 260.968C673.48 260.975 673.864 260.823 674.15 260.547C674.436 260.27 674.601 259.892 674.608 259.494L674.609 259.404C674.616 259.006 674.465 258.622 674.188 258.336C673.912 258.05 673.534 257.885 673.136 257.878Z" fill="#FFE75C"/>
<path d="M678.8 246.2L681.6 244.7C681.821 244.511 681.992 244.27 682.1 244C682.192 243.695 682.16 243.366 682.011 243.084C681.937 242.945 681.836 242.821 681.714 242.721C681.592 242.621 681.451 242.546 681.3 242.5C680.969 242.408 680.614 242.451 680.314 242.619C680.014 242.788 679.793 243.069 679.7 243.4L678.8 246.2Z" fill="white"/>
<path d="M678.8 246.2L678.3 243.1C678.193 242.8 678.023 242.527 677.8 242.3C677.524 242.154 677.206 242.103 676.899 242.158C676.591 242.212 676.31 242.368 676.1 242.6C675.909 242.907 675.844 243.276 675.918 243.63C675.993 243.984 676.201 244.296 676.5 244.5L678.8 246.2Z" fill="white"/>
<path d="M679.6 245.8C681 246.8 681.7 248.4 681 249.3C680.3 250.2 679.5 250.3 678.2 249.2C677.652 248.754 677.047 248.384 676.4 248.1C676.215 248.054 676.042 247.971 675.891 247.856C675.739 247.741 675.613 247.597 675.519 247.431C675.425 247.266 675.366 247.083 675.345 246.894C675.324 246.705 675.342 246.514 675.397 246.332C675.472 246.089 675.611 245.87 675.8 245.7C676.4 244.7 678.2 244.8 679.6 245.8Z" fill="#121B80"/>
<path d="M678.905 249.398L679.612 250.368C679.728 250.527 679.874 250.662 680.042 250.765C680.211 250.867 680.397 250.936 680.592 250.966C680.787 250.997 680.985 250.988 681.177 250.942C681.368 250.896 681.549 250.812 681.708 250.696L681.78 250.643C681.939 250.527 682.074 250.381 682.177 250.213C682.279 250.045 682.348 249.858 682.379 249.663C682.409 249.469 682.401 249.27 682.355 249.078C682.308 248.887 682.225 248.706 682.109 248.547L681.402 247.577C681.286 247.418 681.14 247.283 680.971 247.18C680.803 247.078 680.616 247.009 680.422 246.979C680.227 246.948 680.028 246.957 679.837 247.003C679.646 247.049 679.465 247.133 679.306 247.249L679.233 247.302C679.074 247.418 678.939 247.564 678.836 247.733C678.734 247.901 678.665 248.087 678.635 248.282C678.604 248.477 678.612 248.675 678.659 248.867C678.705 249.058 678.789 249.239 678.905 249.398Z" fill="#FFE75C"/>
<path d="M676.6 237.6C682.289 237.6 686.9 236.481 686.9 235.1C686.9 233.719 682.289 232.6 676.6 232.6C670.911 232.6 666.3 233.719 666.3 235.1C666.3 236.481 670.911 237.6 676.6 237.6Z" fill="#8CD9FF"/>
<path d="M687 235.1H666.3V236.52H687V235.1Z" fill="#8CD9FF"/>
<path d="M680.8 235.9C680.3 236 679.9 236.3 679.9 236.8C679.918 236.959 679.984 237.108 680.088 237.23C680.192 237.351 680.331 237.438 680.485 237.479C680.588 237.507 680.695 237.514 680.8 237.5L682.5 237.2C682.725 237.162 682.933 237.055 683.094 236.894C683.255 236.733 683.362 236.525 683.4 236.3C683.389 236.197 683.356 236.098 683.303 236.01C683.249 235.921 683.177 235.845 683.092 235.787C683.006 235.73 682.908 235.692 682.806 235.677C682.703 235.662 682.599 235.67 682.5 235.7L680.8 235.9Z" fill="white"/>
<path d="M676.6 214.5L671.3 239.1M677.4 216.2L674.8 210.6M676.8 216.5L677.1 210.1" stroke="black" stroke-width="2" stroke-linecap="round" stroke-linejoin="round"/>
<path d="M648.7 281.4C652 277.6 651.5 275.3 650.4 274.6C649.3 273.9 647.6 275.2 644.6 280C641.6 284.8 644.1 286.6 648.7 281.4ZM633 281.4C630.8 276.8 627 273.5 623.5 274C620 274.5 621.4 279.7 626 283.2C630.6 286.7 635.4 286.4 633 281.4Z" fill="white"/>
<path d="M650.2 277.2C650.394 276.3 650.324 275.362 650 274.5C649.1 274.4 647.7 275.4 645.8 278.1C646 279.5 646.7 280.5 647.5 280.6C648.3 280.7 650 279.3 650.2 277.2ZM633.1 281.7C633.1 281.6 633 281.5 633 281.4C631.933 279.083 630.32 277.058 628.3 275.5C627.723 276.643 627.48 277.925 627.6 279.2C627.8 281.9 629.2 284 630.8 283.9C631.367 283.824 631.895 283.57 632.308 283.175C632.722 282.779 632.999 282.263 633.1 281.7Z" fill="black"/>
<path d="M635 291.7C641.3 290.1 643.8 289.4 644.8 290.8C645.8 292.2 644.9 293.8 643.4 295.4C645 298.9 644.5 300.5 641.4 300.5C639.14 300.339 636.949 299.654 635 298.5" stroke="black" stroke-width="2" stroke-linecap="round" stroke-linejoin="round"/>
<path d="M641.7 293.7C641.308 294.738 640.769 295.715 640.1 296.6" stroke="black" stroke-width="2" stroke-linecap="round" stroke-linejoin="round"/>
<path d="M213.6 351.4H224L231.8 327.6H211.3L213.6 351.4Z" fill="black"/>
<path d="M344.7 351.4H289C253.2 351.4 232.6 341.1 217.2 329.4L213.6 351.4H204.5C204.5 245.8 218.1 145.6 218.1 145.6C220.1 134.3 241.6 129.2 268.3 138.5C295 147.8 302.1 159.7 301.1 170.5C300.1 181.3 291.6 254.1 288.4 288.2L294.1 294.4C296.065 296.443 297.524 298.919 298.357 301.628C299.191 304.338 299.377 307.205 298.9 310L298.3 313.3C320.3 327.5 354.3 320.4 344.7 351.4Z" fill="#29CC7A"/>
<path d="M229.2 165C228.3 177.6 228.1 182.8 228.1 184.8C228.094 185.116 228.152 185.43 228.273 185.723C228.393 186.015 228.573 186.28 228.8 186.5C234.7 192.4 241.7 194.3 247.2 195C247.518 195.042 247.841 195.017 248.149 194.926C248.456 194.836 248.742 194.683 248.987 194.476C249.232 194.269 249.431 194.013 249.571 193.724C249.711 193.435 249.789 193.121 249.8 192.8L250.9 176.8" stroke="white" stroke-width="2" stroke-miterlimit="10" stroke-linecap="round"/>
<path d="M224.8 282.3C221.487 282.37 218.214 281.578 215.3 280M216.5 286.9C220.8 287.5 226.1 285.6 226.1 285.6" stroke="black" stroke-width="4" stroke-miterlimit="10" stroke-linecap="round"/>
<path d="M275.8 215.1C274.9 224.1 274.7 234 279.2 236.6C282 238.3 287.7 238.1 294 235.1C296.5 210.2 299.2 188.8 300.5 176.7L270.7 181.6C267.8 207.3 267.3 215.7 275.8 215.1Z" fill="#15AD75"/>
<path d="M296.531 178.681C301.31 168.661 288.495 152.579 267.907 142.759C247.32 132.939 226.756 133.101 221.977 143.121C217.198 153.14 230.013 169.223 250.601 179.043C271.188 188.862 291.752 188.7 296.531 178.681Z" fill="black"/>
<path d="M217.2 329.4C232.6 341.1 253.2 351.4 289 351.4H344.7C345.648 348.523 346.187 345.527 346.3 342.5C287.2 342.5 252.9 341.3 205.3 305.7C204.9 319.9 204.6 335.2 204.5 351.4H213.6L217.2 329.4Z" fill="#57F287"/>
<path d="M221.2 279.1C223.8 289.2 230.9 296.9 237.1 296.3C243.3 295.7 243.5 289.9 241.1 280.2C240.5 277.6 240 275.1 239.5 272.5C237.7 263.3 233.2 259.3 227.7 259.8C222.2 260.3 218.5 269.1 221.2 279.1Z" fill="white"/>
<path d="M221.2 279.1C223.8 289.2 230.9 296.9 237.1 296.3C243.3 295.7 243.5 289.9 241.1 280.2C240.5 277.6 240 275.1 239.5 272.5C237.7 263.3 233.2 259.3 227.7 259.8C222.2 260.3 218.5 269.1 221.2 279.1Z" fill="white"/>
<path d="M237.5 279.2C238.5 283.6 237.8 287.5 236.1 287.8C234.4 288.1 232.3 285.8 231.6 280.3C230.9 274.8 231.3 271.8 233 271.8C234.7 271.8 236.6 274.7 237.5 279.2Z" fill="black"/>
<path d="M295.4 312.5C295.624 312.513 295.844 312.441 296.018 312.3C296.192 312.159 296.308 311.958 296.342 311.737C296.364 311.59 296.35 311.44 296.3 311.3C294.3 301.3 288.2 299.9 276.9 302.5C265.6 305.1 261.1 306.1 258.9 306.9C256.7 307.7 257.7 308.2 272.6 310.5C280.135 311.767 287.759 312.436 295.4 312.5Z" fill="#15AD75"/>
<path d="M345.8 337.4C334.7 337.5 316.2 337.3 298 336.1C264.2 333.8 233.1 321.2 205.5 298.7V300.5C233.1 322.8 264.1 335.3 297.9 337.5C314.9 338.7 332.1 338.9 343.4 338.9H346.1L345.8 337.4Z" fill="black"/>
<path d="M239.5 272.6C237.7 263.4 233.2 259.4 227.7 259.9C222.2 260.4 220.7 264.5 220.3 270.4C226.491 272.398 233.017 273.146 239.5 272.6Z" fill="#5866FC"/>
<path d="M381.4 192.3L348.1 210.9C348.67 211.427 349.387 211.767 350.156 211.874C350.925 211.981 351.708 211.851 352.4 211.5C354.3 210.7 358.9 206.5 360.7 205.5C362.5 204.5 367.6 202.5 370.1 201.5C373.183 200.279 376.078 198.629 378.7 196.6C380.9 194.8 381.7 194.1 381.4 192.3Z" fill="black"/>
<path d="M299.2 123.2C293.1 119.4 292.8 119.5 289.4 113.4C286 107.3 281.7 104.3 276.7 103.6L282.9 148.5C295.9 152.3 303.9 145.7 305.7 139.2C307.5 132.7 305.4 127 299.2 123.2Z" fill="#3442D9"/>
<path d="M293.1 129.1C291.4 121.8 286.9 113.3 281.6 106.9C279.701 104.588 278.353 101.873 277.66 98.9619C276.967 96.0509 276.946 93.0202 277.6 90.1L279.8 80.1C281.347 73.1594 280.522 65.9008 277.459 59.4837C274.395 53.0667 269.269 47.8616 262.9 44.7C259.244 42.9004 255.267 41.8466 251.2 41.6C243.547 41.0394 235.977 43.4828 230.096 48.4117C224.215 53.3406 220.486 60.367 219.7 68C219.534 69.293 219.467 70.5968 219.5 71.9V76.2L219.7 94.2C219.917 102.287 218.203 110.308 214.7 117.6C213.246 120.493 212.139 123.548 211.4 126.7L260.3 178.7C283.6 174.8 298.2 152.3 293.1 129.1Z" fill="#3442D9"/>
<path d="M260.4 178.7C283.6 174.8 298.2 152.3 293.1 129.1C291.5 122.2 287.4 114.2 282.5 108" stroke="black" stroke-width="2" stroke-miterlimit="10" stroke-linecap="round"/>
<path d="M277.5 130.6C282.1 123 283.9 124 292.1 126.2C298.7 127.9 306.3 141.4 296.2 148.2C286.1 155 265.5 150.9 277.5 130.6Z" fill="#3442D9"/>
<path d="M254.703 108.187C255.625 107.482 255.773 106.129 255.035 105.163C254.297 104.198 252.952 103.987 252.031 104.691C251.11 105.396 250.961 106.749 251.699 107.714C252.437 108.68 253.782 108.891 254.703 108.187ZM267.299 108.969C268.22 108.265 268.369 106.911 267.631 105.946C266.893 104.981 265.548 104.769 264.626 105.474C263.705 106.178 263.556 107.532 264.294 108.497C265.032 109.462 266.377 109.674 267.299 108.969Z" fill="black"/>
<path d="M266 107.4C276.7 116.2 272.3 122.5 280.9 135.5" stroke="white" stroke-width="3.006" stroke-miterlimit="10" stroke-linecap="round"/>
<path d="M253.9 127.1C260.5 122.5 262.5 121.2 265 121.3L271.5 121.9L269.8 148.3L253.3 147.8L253.9 127.1Z" fill="#FFC619"/>
<path d="M285.9 120.4C286.025 120.051 286.067 119.677 286.023 119.309C285.979 118.941 285.85 118.588 285.646 118.278C285.442 117.968 285.169 117.71 284.849 117.523C284.529 117.336 284.17 117.225 283.8 117.2L272.8 115.6C272.001 115.515 271.198 115.707 270.524 116.144C269.851 116.581 269.348 117.236 269.1 118L262.9 141C262.776 141.349 262.735 141.723 262.779 142.091C262.823 142.459 262.951 142.812 263.154 143.122C263.358 143.432 263.63 143.691 263.95 143.878C264.271 144.065 264.63 144.175 265 144.2L276 145.8C276.798 145.885 277.602 145.693 278.275 145.256C278.949 144.819 279.452 144.164 279.7 143.4L285.9 120.4Z" fill="black"/>
<path d="M285.4 118.1L286.6 119.5L283.3 119.8L285.4 118.1Z" fill="black"/>
<path d="M290.8 133.3C289.4 131 288.1 128.1 284.3 127.5L283.8 132.3L290.8 133.3Z" fill="#FFC619"/>
<path d="M287 121.7C287.105 121.351 287.133 120.983 287.08 120.622C287.027 120.26 286.896 119.915 286.695 119.611C286.495 119.306 286.231 119.048 285.921 118.857C285.61 118.665 285.262 118.543 284.9 118.5L273.8 116.9C273.004 116.833 272.209 117.033 271.539 117.467C270.87 117.902 270.363 118.546 270.1 119.3L263.9 142.3C263.794 142.649 263.767 143.017 263.82 143.378C263.873 143.739 264.004 144.084 264.205 144.389C264.404 144.694 264.668 144.952 264.979 145.144C265.289 145.336 265.638 145.458 266 145.5L277.1 147C277.878 147.128 278.676 146.963 279.34 146.539C280.005 146.114 280.489 145.46 280.7 144.7L287 121.7Z" fill="white"/>
<path d="M283.6 130.8L288.1 131.5C289.011 131.602 289.846 132.057 290.426 132.767C291.005 133.478 291.283 134.387 291.2 135.3C291.177 135.775 291.055 136.24 290.842 136.665C290.628 137.089 290.327 137.464 289.96 137.765C289.592 138.067 289.166 138.288 288.708 138.415C288.25 138.542 287.77 138.571 287.3 138.5L284 138C282.975 137.853 282.027 137.371 281.303 136.63C280.58 135.888 280.122 134.929 280 133.9C279.962 133.209 280.164 132.526 280.573 131.967C280.982 131.408 281.572 131.008 282.242 130.835C282.686 130.72 283.151 130.708 283.6 130.8Z" fill="#FFC619"/>
<path d="M282.1 137.5L285.2 138C285.719 138.065 286.217 138.242 286.66 138.519C287.104 138.796 287.481 139.166 287.767 139.604C288.052 140.042 288.239 140.537 288.314 141.054C288.389 141.572 288.35 142.099 288.2 142.6C287.987 143.406 287.477 144.102 286.772 144.547C286.067 144.992 285.219 145.154 284.4 145L282.5 144.7C281.463 144.557 280.501 144.079 279.761 143.339C279.021 142.599 278.543 141.637 278.4 140.6C278.371 140.131 278.453 139.662 278.639 139.231C278.824 138.8 279.108 138.418 279.468 138.116C279.828 137.815 280.254 137.602 280.711 137.495C281.168 137.388 281.644 137.39 282.1 137.5ZM272.4 148.9L261.6 147.4L262.1 143L272.9 144.6L272.4 148.9ZM275 131.4L268.2 130.4C267.876 130.356 267.571 130.219 267.323 130.006C267.075 129.793 266.893 129.513 266.8 129.2L266.2 127.4L265.7 123.7L262 136.7L273 138.3C274.024 138.437 275.064 138.225 275.953 137.699C276.841 137.173 277.527 136.363 277.9 135.4C278.018 134.943 278.034 134.465 277.947 134.001C277.859 133.537 277.671 133.099 277.394 132.716C277.117 132.333 276.759 132.016 276.345 131.789C275.931 131.561 275.472 131.428 275 131.4Z" fill="#FFC619"/>
<path d="M272.8 138.2L262 136.7L262.5 143.9L270.8 145.1C271.813 145.251 272.846 145.044 273.722 144.514C274.598 143.985 275.262 143.166 275.6 142.2C275.737 141.75 275.77 141.275 275.697 140.81C275.584 140.11 275.235 139.469 274.708 138.995C274.181 138.52 273.508 138.24 272.8 138.2Z" fill="#FFC619"/>
<path d="M349.4 182.3C349.7 171.5 340.8 169.8 334.7 166C328.6 162.2 321.4 154.2 313.9 148.8C306.4 143.4 299.9 143.5 287.2 147.4L301.7 175.6C309.9 179.8 311.7 184.4 316.1 190.6C320.5 196.8 326.4 199.2 332.3 198.1C335.4 203.2 336 204.4 340.5 202.8C345 201.2 352.4 197.8 354.4 191.9C356.4 186 353.5 185 349.4 182.3Z" fill="#66BCFF"/>
<path d="M341.9 199.4C338.1 198.5 336.6 196.4 334.2 193.1L332.1 190.3C321.8 188.2 317.6 182.7 315.3 178.7C314.2 176.8 312.2 175.3 310.3 173.9C308.4 172.5 306.5 171 305.4 169.2C304.572 167.852 303.837 166.448 303.2 165C302.4 162.9 301.7 161.5 300.4 161.1C299.1 160.7 296.9 161.5 294.8 162.4C292.893 163.319 290.877 163.991 288.8 164.4C288.628 164.432 288.451 164.398 288.303 164.306C288.155 164.213 288.047 164.068 288 163.9C287.994 163.718 288.05 163.54 288.159 163.394C288.268 163.249 288.424 163.145 288.6 163.1C290.556 162.771 292.447 162.13 294.2 161.2C296.6 160.2 298.6 159.3 300.7 159.9C302.8 160.5 303.5 162.3 304.4 164.5C305.3 166.7 305.6 167.1 306.4 168.5C307.723 170.179 309.31 171.631 311.1 172.8C313.1 174.4 315.2 176 316.4 178.1C318.7 182.2 322.7 187.1 332.6 189.1H332.8L333 189.3C333.9 190.4 334.6 191.5 335.3 192.4C337.5 195.5 338.9 197.4 342.1 198.2C342.231 198.188 342.361 198.229 342.462 198.313C342.563 198.396 342.627 198.516 342.64 198.647C342.649 198.733 342.635 198.821 342.6 198.9C342.607 198.986 342.592 199.073 342.555 199.152C342.519 199.231 342.463 199.299 342.393 199.35C342.322 199.399 342.239 199.43 342.153 199.439C342.067 199.448 341.98 199.434 341.9 199.4Z" fill="#45AAF7"/>
<path d="M301.1 159C299.756 163.293 298.885 167.719 298.5 172.2" stroke="black" stroke-width="2" stroke-miterlimit="10" stroke-linecap="round"/>
<path d="M307 211C297.9 219.2 290.2 216.9 286.6 216.5C283 216.1 283.4 213.5 283.1 211.3C282.8 209.1 282.6 205.8 282.6 205.8C273.5 205.2 272.4 199 272.2 193.5C272 188 270.6 187.2 269.9 183.3C258.928 181.329 248.557 176.859 239.592 170.234C230.626 163.609 223.306 155.009 218.2 145.1L227.7 138.2L248.9 152C263.2 146.7 271.1 144 278.8 143.5C286.5 143 294.1 145.9 296.6 156.6C299.1 167.3 299.4 170.6 301.7 175.7C302.3 177 303.3 178.8 304.3 180.7C307.1 186.4 310 194.4 304.3 203.1C304.995 205.799 305.898 208.44 307 211Z" fill="#8CD9FF"/>
<path d="M233.7 165.3C233.4 158.2 236.1 153.2 241 152.4L228.6 143.8L219.6 147.7C221.9 154.1 227.8 161.1 233.7 165.3Z" fill="black"/>
<path d="M289.6 212.9L289.8 211.6C288 211.3 287.9 210 287.4 203.9V203.1L287 202.9C283 201.9 280.3 199.5 280.1 191.4C280.066 187.553 279.285 183.749 277.8 180.2C277.412 179.367 277.11 178.495 276.9 177.6C276.7 176.8 276.4 176 276.2 175.3C275.071 172.477 274.759 169.392 275.3 166.4C275.7 163.3 275.4 161.6 274.4 160.7C273.4 159.8 270.9 160.1 267.2 161.3H266.7C260.8 163.2 249 167.1 237.1 168.1L238.6 169.2C250.2 168.1 261.4 164.4 267.1 162.6L267.6 162.4C270.6 161.4 272.7 160.9 273.6 161.6C274.5 162.3 274.3 163.6 274 166.1C273.467 169.299 273.812 172.582 275 175.6C275.259 176.316 275.46 177.052 275.6 177.8C275.9 178.7 276.2 179.6 276.6 180.5C278.027 183.923 278.774 187.591 278.8 191.3C279 198.8 281.1 202.5 286.2 204C286.6 210.1 286.8 212.4 289.6 212.9Z" fill="#66BCFF"/>
<path d="M254.1 125.7C251.2 123.2 249 123.4 245.5 124.9C241.8 121.5 237 121 232 122.7C227 124.4 219.3 126.7 214.8 127.9C214.549 127.994 214.276 128.014 214.014 127.957C213.751 127.9 213.511 127.768 213.322 127.578C213.133 127.388 213.002 127.148 212.945 126.886C212.888 126.624 212.907 126.351 213 126.1L216.3 114.1C205.6 122.1 202.1 139.2 205.5 148.5C208.9 157.8 223.7 157.7 228.4 155.1C233.1 152.5 234.7 151.7 240.1 152.7C245.5 153.7 249.7 154.4 256.8 149L261 147.6C262.6 138.5 261.2 131.9 254.1 125.7Z" fill="#3442D9"/>
<path d="M254.1 125.7C251.2 123.2 249 123.4 245.5 124.9C241.8 121.5 237 121 232 122.7C227 124.4 219.3 126.7 214.8 127.9" stroke="black" stroke-width="2" stroke-miterlimit="10" stroke-linecap="round"/>
<path d="M245.5 124.9C248.486 127.213 250.974 130.107 252.813 133.406C254.652 136.706 255.804 140.343 256.2 144.1" stroke="black" stroke-width="2" stroke-miterlimit="10" stroke-linecap="round"/>
<path d="M275.8 121.9C275.845 121.762 275.859 121.616 275.842 121.472C275.825 121.328 275.777 121.189 275.701 121.065C275.625 120.941 275.523 120.835 275.402 120.755C275.281 120.674 275.144 120.622 275 120.6H274C273.722 120.539 273.431 120.588 273.188 120.737C272.946 120.887 272.771 121.124 272.7 121.4L271.8 124.7C271.754 124.846 271.742 125 271.764 125.151C271.787 125.302 271.844 125.445 271.931 125.571C272.018 125.697 272.132 125.8 272.266 125.875C272.399 125.949 272.548 125.992 272.7 126H273.7C273.963 126.034 274.229 125.971 274.449 125.824C274.67 125.677 274.83 125.456 274.9 125.2L275.8 121.9Z" fill="#29CC7A"/>
<path d="M259.8 102.7C260.573 101.135 261.714 99.7814 263.125 98.754C264.535 97.7265 266.174 97.056 267.9 96.8C268.1 96.8 268.2 96.6 268.1 96.5C266.8 91.7 267.4 89 269.1 85.5C269.126 85.4618 269.137 85.4159 269.133 85.3702C269.128 85.3244 269.108 85.2816 269.076 85.249C269.055 85.2269 269.029 85.2101 269 85.2C263.4 82.8 261.3 78.8 260.7 75.8C260.6 75.6 260.3 75.5 260.2 75.7C257.7 80.7 254.3 80.9 251.4 80.5C251.2 80.5 251.1 80.7 251.2 80.8C254.1 86.4 252 90.4 249.1 93.2C249.085 93.2392 249.078 93.2812 249.08 93.3233C249.082 93.3654 249.093 93.4066 249.111 93.4442C249.13 93.4819 249.157 93.5152 249.189 93.542C249.222 93.5689 249.259 93.5886 249.3 93.6C254.9 94.6 257.9 98.3 259.3 102.6C259.4 102.8 259.7 102.9 259.8 102.7Z" fill="#FFC619"/>
<path d="M272.8 138.2L267.1 137.4M283.2 137.9L286.4 138.4M260.5 75.6C263 70 262.8 66.1 262.1 63.9M268.5 85.4C270.06 85.6393 271.654 85.5398 273.172 85.1084C274.691 84.677 276.099 83.9239 277.3 82.9M259.8 102.7C259.808 103.444 259.707 104.185 259.5 104.9M249.6 93.3C245.9 95.9 240.3 95.5 236.4 94.3M251.4 80.5C250 77.6 247.4 74.3 245 73.2M268.1 96.5C269.39 97.189 270.77 97.694 272.2 98" stroke="black" stroke-width="2" stroke-miterlimit="10" stroke-linecap="round"/>
<path d="M257.4 85.8001C259.1 92.4001 261.3 92.0001 262.3 90.0001C263.3 88.0001 264 85.5001 265.6 85.7001C267.2 85.9001 266.8 88.7001 264.9 92.7001C263 96.7001 259.9 97.6001 257 94.1001C254.1 90.6001 254 87.2001 253.9 84.8001C253.8 82.4001 256.3 81.8001 257.4 85.8001Z" fill="#C40655"/>
<path d="M253.4 106.6C254.6 120.4 247.6 127 245.4 140.7" stroke="white" stroke-width="3.006" stroke-miterlimit="10" stroke-linecap="round"/>
<path d="M269.1 183.4C267.3 177.5 266.5 166.7 271.4 157.2" stroke="black" stroke-width="2" stroke-miterlimit="10" stroke-linecap="round"/>
<path d="M268 168.7C266.872 166.508 266.321 164.064 266.4 161.6M218.7 126.8L211.3 129.2M292.2 125.9L297.2 127.3" stroke="black" stroke-width="2" stroke-miterlimit="10" stroke-linecap="round"/>
<path d="M381.4 192.2C380.851 193.002 380.214 193.74 379.5 194.4C376.3 197.6 369 201.2 365.1 202.7C362.133 203.639 359.404 205.208 357.1 207.3C354.2 209.6 350.6 212.7 348.1 210.9C344.951 208.001 342.073 204.821 339.5 201.4C339.354 201.221 339.259 201.006 339.224 200.777C339.188 200.549 339.215 200.315 339.3 200.1C340.7 196.1 345.2 190.4 351.7 187.4C351.915 187.315 352.149 187.288 352.377 187.324C352.606 187.359 352.821 187.454 353 187.6C356.8 190.3 359.1 191 362.2 190.9C365.3 190.8 371.3 188.8 376.2 187.4C381.1 186 381.2 188.2 381.4 192.2Z" fill="#FFC619"/>
<path d="M342.3 204.9C344.086 207.038 346.024 209.043 348.1 210.9C350.6 212.7 354.2 209.6 357.1 207.3C359.404 205.208 362.133 203.639 365.1 202.7C369 201.2 376.3 197.6 379.5 194.4C380.214 193.74 380.851 193.002 381.4 192.2C381.2 188.2 380.3 186.2 376.2 187.4C372.1 188.6 369.8 189.6 366.8 190.3C365.908 190.539 365.099 191.021 364.464 191.692C363.828 192.363 363.391 193.196 363.2 194.1C363.1 195.2 362.9 196.3 362.7 197.6C357.3 196.5 352.1 198.3 351 205.4C351 205.4 346.4 202.9 342.3 204.9Z" fill="#FFE75C"/>
<path d="M379.5 194.4L381.4 192.3C381.527 192.089 381.596 191.847 381.6 191.6C381.507 190.842 381.305 190.1 381 189.4C380.2 190.9 378.8 192.4 375.7 194.7C370.8 198.3 365.3 199.6 362 200.7C358.979 201.826 356.221 203.562 353.9 205.8C352.075 207.862 349.67 209.326 347 210L348.1 210.9C350.6 212.7 354.2 209.6 357.1 207.3C359.404 205.208 362.133 203.639 365.1 202.7C369 201.2 376.3 197.6 379.5 194.4Z" fill="white"/>
<path d="M318.5 198.9C313.4 197.5 308.2 199.9 303.6 208.6C302.3 207.6 299.1 206.5 294.3 207.4C289.5 208.3 287.7 210.4 286.9 212C286.424 212.924 286.283 213.984 286.5 215C286.8 216.3 287.2 218 287.8 220.8C288.7 225.1 288.2 228.9 290.6 229.3L324.2 205.1C324.2 205.1 325.1 200.7 318.5 198.9Z" fill="#FFC619"/>
<path d="M318.5 198.9C313.4 197.5 308.2 199.9 303.6 208.6C302.962 209.902 302.394 211.237 301.9 212.6C296.6 212.1 294.1 214.4 293.2 219.5C293.2 219.5 289.7 217.1 287.6 219.9C287.7 220.2 287.7 220.5 287.8 220.8C288.7 225.1 288.2 228.9 290.6 229.3L324.2 205.1C324.2 205.1 325.1 200.7 318.5 198.9Z" fill="#FFE75C"/>
<path d="M324.2 203.7L321.7 201.4C317.4 200.7 313.8 200.6 310 204.9C306.2 209.2 303.7 213.9 299.7 216.7C294 220.9 289.2 222.6 288.5 225.7C287.8 228.8 289.2 229.1 290.6 229.3L324.2 205.1C324.323 204.641 324.323 204.159 324.2 203.7Z" fill="white"/>
<path d="M319.9 199.9L322.3 200.6C322.509 200.634 322.707 200.714 322.88 200.836C323.053 200.957 323.197 201.116 323.3 201.3C324.227 202.866 324.613 204.693 324.4 206.5L315.6 204.9C318.5 203.5 319.5 202.2 319.2 200.5C319.17 200.406 319.168 200.306 319.195 200.211C319.222 200.116 319.276 200.032 319.351 199.967C319.425 199.903 319.517 199.863 319.615 199.851C319.713 199.839 319.812 199.856 319.9 199.9Z" fill="white"/>
<path d="M290.8 229.4C299.4 231.1 303.2 228.4 306.9 224.6C308.435 222.902 310.222 221.452 312.2 220.3C317.3 217.4 321.3 214.3 324 209.4C326.7 204.5 318.4 201.3 313 205.8C307.6 210.3 307.3 215.6 296.6 222.2C289.3 226.8 288.3 228.9 290.8 229.4Z" fill="black"/>
<path d="M292.023 213.793C292.073 212.801 291.622 211.971 291.015 211.94C290.409 211.909 289.876 212.689 289.826 213.682C289.775 214.675 290.227 215.505 290.833 215.535C291.44 215.566 291.973 214.786 292.023 213.793ZM381.7 191C381.524 189.986 381.187 189.007 380.7 188.1C380.6 188 380.5 187.9 380.4 188H380.3C380.1 188 380.1 188.1 380.1 188.2C380.6 190.3 380.8 192.7 379.7 194.1C382 192.3 381.8 191.3 381.7 191ZM346.024 201.633C346.941 201.428 347.43 200.126 347.116 198.724C346.803 197.323 345.806 196.353 344.89 196.558C343.974 196.763 343.485 198.065 343.798 199.466C344.111 200.867 345.108 201.837 346.024 201.633Z" fill="white"/>
<path d="M420.999 351.4C463.299 351.4 497.999 333.8 543.599 293.6C589.199 253.4 605.199 240.2 618.099 227.7C630.999 215.2 630.099 207.1 623.399 191.1C616.699 175.1 612.299 177.4 612.299 177.4C611.499 164.4 598.799 142.9 584.799 125.6C570.799 108.3 562.399 111.1 546.999 111.1C531.599 111.1 526.499 115.3 519.599 133.7C512.699 152.1 495.499 167.7 462.999 173.4C430.499 179.1 412.699 178.8 411.799 195.1C410.899 211.4 411.799 239.5 397.399 261.7C379.498 270.352 360.679 276.96 341.299 281.4C329.899 284 327.499 291.5 326.399 301.3C325.299 311.1 329.299 316.4 331.199 319.5C327.299 323.2 328.099 324.8 329.999 333.5C330.799 337 331.699 340.5 332.499 343.6C333.151 345.853 334.518 347.832 336.395 349.239C338.271 350.646 340.554 351.405 342.899 351.4H420.999Z" fill="#66BCFF"/>
<path d="M326.399 301.3C325.299 311.1 329.299 316.4 331.199 319.5L409.499 328.5L485.299 317.4C485.299 317.4 535.299 277.1 528.499 263.7C521.699 250.3 507.399 262.9 488.299 275.9C469.199 288.9 449.399 290.1 426.699 286.8C403.999 283.5 376.499 273.8 341.299 281.4C329.899 284 327.499 291.5 326.399 301.3Z" fill="#45AAF7"/>
<path d="M536.599 257C536.699 239.7 536.099 235.6 541.899 236.4C547.699 237.2 557.199 239.1 557.199 239.1L546.899 255.4L536.599 257ZM566.999 230.1C566.999 221.7 566.299 216.2 568.599 215C570.899 213.8 573.599 215.3 578.399 219.6C583.199 223.9 566.999 230.1 566.999 230.1ZM336.199 317.4C334.899 307.3 335.199 299.3 337.899 297.3C340.599 295.3 343.199 299.9 345.099 303.9C347.521 308.976 350.543 313.743 354.099 318.1L336.199 317.4ZM422.999 319.6C426.299 306.1 429.099 302.8 431.899 302.6C434.699 302.4 436.099 308.8 440.099 317.9L433.499 321L422.999 319.6Z" fill="#A3E1FF"/>
<path d="M602.999 196.1C560.499 237.2 535.099 259.8 499.499 286.3C463.899 312.8 447.999 319.7 418.099 319.7C388.199 319.7 368.999 302.9 331.199 319.5C327.299 323.2 328.099 324.8 329.999 333.5C330.799 337 331.699 340.5 332.499 343.6C333.151 345.853 334.518 347.832 336.395 349.239C338.271 350.646 340.554 351.405 342.899 351.4H420.999C463.299 351.4 497.999 333.8 543.599 293.6C589.199 253.4 605.199 240.2 618.099 227.7C630.999 215.2 630.099 207.1 623.399 191.1C616.699 175.1 612.299 177.4 612.299 177.4C612.299 181.9 612.599 186.7 602.999 196.1Z" fill="white"/>
<path d="M623.899 192.2C623.799 198 620.199 204.6 610.399 213.6C591.199 231.1 551.499 266.9 524.199 290.1C494.299 315.8 466.499 337 429.499 337C416.599 337 402.499 334.3 388.799 331.7C364.699 327.1 341.799 322.8 330.199 334.4C330.299 335 330.499 335.7 330.599 336.3C341.399 324.4 364.299 328.7 388.499 333.3C402.299 335.9 416.499 338.6 429.499 338.6C466.999 338.6 496.199 316.2 525.199 291.4C552.499 268.1 592.299 232.2 611.399 214.8C618.599 208.2 623.799 202.1 625.099 195.4L623.899 192.2Z" fill="#FFE75C"/>
<path d="M511.999 319L498.099 287.4C492.766 291.333 487.866 294.833 483.399 297.9L482.199 299.3C487.399 297.1 492.599 300 492.999 308.9C493.099 313.7 493.099 323.4 493.099 331.2C499.616 327.479 505.925 323.407 511.999 319ZM348.699 343.4C340.699 343.5 336.799 346.7 339.999 349.8C341.164 350.882 342.71 351.457 344.299 351.4H412.999C378.799 351.4 375.299 343 348.699 343.4Z" fill="black"/>
<path d="M584.299 166.9C573.999 180.1 570.399 185.3 574.699 199.4C576.499 205.5 578.799 212 580.699 217.4L602.999 196.1C612.599 186.7 612.299 181.9 612.299 177.4C611.599 166.3 602.299 149 590.799 133.4C596.599 141.8 594.599 153.7 584.299 166.9Z" fill="#45AAF7"/>
<path d="M570.599 150.1C576.499 127.6 575.899 112.6 561.399 111.1C557.099 110.7 552.499 111.1 546.999 111.1C531.499 111.1 526.499 115.3 519.599 133.7C512.699 152.1 495.499 167.7 462.999 173.4C430.499 179.1 412.699 178.8 411.799 195.1C410.899 211.4 411.799 239.5 397.399 261.7C395.299 265.4 397.799 267.9 427.699 267.9C457.599 267.9 475.399 266.1 480.399 253.6C485.399 241.1 492.599 213.8 496.199 203C499.799 192.2 499.199 186 519.099 181.5C538.999 177 564.999 171.8 570.599 150.1Z" fill="#8CD9FF"/>
<path d="M501.499 178.7C517.499 172.1 528.799 173.6 545.799 165.5C562.799 157.4 564.999 151.4 567.099 140.3C569.199 129.2 570.699 116.1 560.399 115.2C550.099 114.3 540.799 114.7 536.099 116.3C531.399 117.9 530.199 120.8 525.099 131.3C519.999 141.8 517.499 157.4 494.599 167.6L501.499 178.7Z" fill="black"/>
<path d="M366.699 312.4C366.799 317.5 368.199 324.8 370.999 325.5C373.799 326.2 375.099 320.5 377.999 313.4C374.899 310.2 366.699 306.9 366.699 312.4Z" fill="#A3E1FF"/>
<path d="M494.299 289.2C491.821 289.302 489.397 289.951 487.199 291.1C477.899 295.8 477.999 299.8 478.299 301.2C490.999 293.5 496.599 302 500.199 326.9C501.599 336.7 504.099 341.5 511.299 341.5C520.099 341.5 525.299 335.3 524.699 319.3C524.564 316.281 524.23 313.275 523.699 310.3C521.199 296.9 515.999 283.4 503.399 283.4C501.509 283.494 499.677 284.078 498.081 285.095C496.485 286.112 495.182 287.527 494.299 289.2Z" fill="#FF78B9"/>
<path d="M588.199 244.1C582.799 248.9 577.399 249.3 576.199 245.1C574.999 240.9 578.299 233.5 583.699 228.8L593.099 220.5C598.499 215.7 603.899 215.3 605.099 219.5C606.299 223.7 602.899 231.1 597.599 235.8L588.199 244.1Z" fill="#FFA8D2"/>
<path d="M494.299 289.2C502.699 290.1 509.099 294 511.799 304.6C513.699 312.1 513.099 320.9 514.399 328.5" stroke="black" stroke-width="2" stroke-linecap="round" stroke-linejoin="round"/>
<path d="M589.999 169.2L587.499 172.6C579.599 182.9 576.699 186.7 585.099 213.2L586.399 212C578.499 187 581.099 183.5 588.699 173.6L591.299 170.2C597.499 161.8 599.799 153.5 599.599 146.4L597.799 143.6C598.799 150.9 596.799 160 589.999 169.2Z" fill="#5866FC"/>
<path d="M476.099 307.6C476.899 303.1 475.899 300.9 473.599 301.2C471.299 301.5 469.299 302.9 467.099 308C468.899 327.5 474.099 319.9 476.099 307.6Z" fill="#A3E1FF"/>
<path d="M558.301 118.4L574.001 116.4C576.501 116.1 577.401 110.4 578.501 103.2C579.601 96 578.301 82.9 578.301 82.9L562.101 87.8L558.301 118.4Z" fill="#FF78B9"/>
<path d="M601.901 78.2C595.201 70.7 561.201 44.5 561.201 44.5L553.201 56C553.201 56 564.501 68.5 572.601 76.9C556.201 78.2 526.601 82.1 526.601 82.1C505.601 77.9 496.701 75.9 496.701 75.9L518.301 55.4L510.401 43.6C510.401 43.6 489.801 56.2 478.201 65.3C466.601 74.4 464.701 85.6 475.701 94.1C486.701 102.6 490.401 105.2 490.401 105.2L561.301 112.5C582.101 106.7 594.501 100.4 602.001 93.9C609.501 87.4 608.601 85.7 601.901 78.2Z" fill="#FFC619"/>
<path d="M484.501 74.8C487.001 75.2 491.401 76.4 491.401 76.4" stroke="black" stroke-width="2" stroke-linecap="round" stroke-linejoin="round"/>
<path d="M556.901 40.9L549.801 52.8L557.801 61C560.401 58.1 563.001 53 562.201 45.3L556.901 40.9Z" fill="black"/>
<path d="M510.901 92.9C501.301 81.1 497.901 76 495.901 70.1C494.501 65.8 503.001 68.4 514.001 71.7C525.001 75 523.301 78.1 510.901 92.9Z" fill="#FF78B9"/>
<path d="M497.101 75.6C487.001 86.9 486.801 100.7 487.901 120C487.901 120 470.501 137.5 473.001 152.8C475.501 168.1 499.301 174.7 526.401 174.4C548.201 174.2 550.601 169.1 552.601 158.8C553.801 152.1 554.701 144.4 555.301 138.4C555.906 132.093 557.492 125.918 560.001 120.1C573.401 89 562.601 77.8 562.601 77.8L526.401 80.7L497.101 75.6Z" fill="#FF78B9"/>
<path d="M505.101 59.4C496.601 65.7 498.401 75.3 510.401 88.5L515.801 93.9L550.701 88.2C561.901 74.3 559.701 65 555.601 59.2C561.301 49.8 561.701 43.3 561.601 37.5C561.501 27.7 552.601 12.3 530.201 12.5C518.001 12.6 507.201 17.4 503.301 32.9C501.901 38.3 501.601 47.1 505.101 59.4Z" fill="#FFE75C"/>
<path d="M548.301 25.2C548.704 25.1973 549.097 25.3231 549.424 25.559C549.751 25.7949 549.994 26.1287 550.118 26.512C550.201 26.766 550.229 27.034 550.201 27.3L549.001 40.8C548.646 43.8275 547.222 46.6289 544.985 48.7003C542.749 50.7717 539.847 51.9772 536.801 52.1H534.101C530.917 52.1302 527.831 50.9998 525.42 48.9201C523.009 46.8404 521.438 43.9538 521.001 40.8L520.501 36.3C520.428 35.7699 520.164 35.2846 519.759 34.9349C519.354 34.5852 518.836 34.395 518.301 34.4C517.75 34.3975 517.219 34.6015 516.812 34.9718C516.404 35.3421 516.151 35.8518 516.101 36.4L515.501 43.6C515.279 45.9791 514.186 48.1926 512.433 49.8164C510.68 51.4402 508.39 52.3601 506.001 52.4C504.568 52.4541 503.141 52.1965 501.818 51.645C500.495 51.0935 499.307 50.2612 498.337 49.2056C497.367 48.1501 496.638 46.8965 496.2 45.5316C495.762 44.1666 495.626 42.7228 495.801 41.3L497.001 27.7C497.072 27.1602 497.331 26.6629 497.734 26.2967C498.137 25.9305 498.657 25.7191 499.201 25.7L548.301 25.2Z" fill="black"/>
<path d="M549.601 25.7L561.601 37.5V39.9L549.701 31.6L549.601 25.7Z" fill="black"/>
<path d="M562.601 77.7C556.972 72.3832 550.344 68.2364 543.101 65.5C536.601 63.2 535.101 62.6 533.601 66.3C532.101 70 530.501 74.2 529.901 75.6C529.301 77 522.201 81.8 517.901 85.4C513.601 89 509.101 96.7 509.101 96.7L554.701 100.2L562.601 77.7ZM572.401 76.7L578.301 82.9C575.601 91.3 573.901 101.8 572.901 113.5L549.601 115.2L562.601 77.8L572.401 76.7ZM497.101 75.6L492.801 74.8C492.141 74.7044 491.469 74.7532 490.83 74.9432C490.191 75.1331 489.601 75.4596 489.101 75.9C484.206 80.3554 480.904 86.2912 479.701 92.8C478.401 100.4 478.801 101.2 487.601 105.9C493.501 109.1 499.601 95.1 502.901 85.6C503.285 84.5644 503.435 83.4568 503.34 82.3564C503.246 81.2561 502.909 80.1902 502.355 79.235C501.8 78.2803 501.042 77.4597 500.133 76.8314C499.225 76.2031 498.19 75.7827 497.101 75.6Z" fill="#FF78B9"/>
<path d="M501.301 153.4C493.645 144.477 485.026 136.428 475.601 129.4L453.201 141.1L460.501 162.9C460.501 162.9 466.501 170.5 472.101 176.5C477.701 182.5 487.801 182.7 506.401 184.3C513.401 171.8 510.201 163.9 501.301 153.4Z" fill="#2835BD"/>
<path d="M464.801 162.5L466.801 152.8" stroke="black" stroke-width="2" stroke-linecap="round" stroke-linejoin="round"/>
<path d="M543.401 149.3C541.601 144.4 536.101 140.5 511.501 139.3L502.401 130.1L477.101 149.4C486.101 164.6 496.301 182.9 506.401 184.3C516.501 185.7 525.601 185 537.601 177.7C545.201 173 546.201 170.8 546.401 166.8C546.248 160.853 545.238 154.959 543.401 149.3Z" fill="#3442D9"/>
<path d="M570.601 150.1C565.001 171.8 539.001 176.9 519.101 181.5C501.101 185.6 499.901 191 497.201 200L483.601 196.4V182.4L501.501 178.7C517.501 172.1 528.801 173.6 545.801 165.5C562.801 157.4 565.001 151.4 567.101 140.3C568.401 133.8 569.401 126.4 567.801 121.3L573.501 122.1C575.001 128.9 573.701 138.5 570.601 150.1Z" fill="#8CD9FF"/>
<path d="M418.401 171.6C417.075 172.403 416.058 173.629 415.514 175.08C414.97 176.531 414.93 178.123 415.401 179.6C418.301 188.8 419.601 195.9 416.901 218.3C414.201 240.7 409.701 253.1 407.601 257.7C407.472 257.973 407.41 258.273 407.419 258.575C407.43 258.876 407.512 259.171 407.658 259.435C407.805 259.698 408.012 259.924 408.262 260.092C408.513 260.26 408.801 260.366 409.101 260.4C420.301 262.1 437.101 261.9 455.501 259.5C458.605 259.093 461.546 257.87 464.023 255.955C466.5 254.04 468.425 251.502 469.601 248.6C474.331 236.861 478.208 224.797 481.201 212.5C487.901 184.9 487.101 185.4 501.501 178.7C500.401 168.8 500.501 159.3 489.701 157.9C477.101 156.3 463.301 162.5 443.501 167.9C439.001 163.9 434.901 161.9 418.401 171.6Z" fill="#45AAF7"/>
<path d="M472.601 159.4C464.301 161.4 454.901 164.8 443.501 167.9C440.201 165 437.101 163.1 429.201 166.2C428.908 166.947 428.674 167.716 428.501 168.5C424.901 186.4 418.101 215.7 438.501 214.1C458.901 212.5 461.201 200.4 460.601 189.4C460.001 178.4 458.701 172.3 460.601 169.1C462.501 165.9 469.201 160.3 472.601 159.4Z" fill="#287CEB"/>
<path d="M490.901 184.7C489.501 173 488.601 167.4 485.401 165.2C482.201 163 481.101 163.7 476.901 164.6C472.701 165.5 467.401 167.1 460.601 169.1C447.901 172.8 432.101 177.5 426.101 177.1L424.101 176.8C425.501 175.3 434.101 172.2 439.801 170.1L443.801 168.6C443.895 168.577 443.983 168.534 444.059 168.476C444.136 168.417 444.2 168.344 444.248 168.26C444.295 168.175 444.324 168.082 444.333 167.986C444.342 167.889 444.331 167.792 444.301 167.7L443.501 167.9L442.801 167.3L439.201 168.6C425.901 173.5 422.101 175.2 422.401 177.1C422.701 179 424.201 178.6 426.001 178.7C432.201 179.1 447.501 174.6 461.101 170.6C467.801 168.6 473.601 166.9 477.201 166.2C480.801 165.5 483.101 165.5 484.501 166.5C485.901 167.5 488.101 174.5 489.401 186.3L490.901 184.7Z" fill="black"/>
<path d="M496.001 39.2999L515.001 25.5L507.901 25.6L496.501 33.9L496.001 39.2999ZM500.601 51C502.238 51.9546 504.106 52.439 506.001 52.4C508.39 52.361 510.681 51.4413 512.434 49.8173C514.188 48.1934 515.28 45.9794 515.501 43.5999L515.801 40L500.601 51ZM548.301 25.2H540.401L520.901 39.2999V40.7999C521.126 42.3465 521.634 43.8382 522.401 45.2L549.501 25.7C549.164 25.4105 548.744 25.2354 548.301 25.2ZM549.001 40.7999L549.601 34.2999L527.401 50.4C529.451 51.5342 531.759 52.1198 534.101 52.0999H536.801C539.847 51.9778 542.749 50.7725 544.986 48.701C547.222 46.6294 548.646 43.8277 549.001 40.7999Z" fill="#5866FC"/>
<path d="M514.501 53.6C517.17 53.0178 519.932 53.0178 522.601 53.6" stroke="black" stroke-width="2" stroke-linecap="round" stroke-linejoin="round"/>
<path d="M430.701 133C430.801 133.3 430.901 133.5 431.001 133.5C431.101 133.5 431.201 133.4 431.301 133.1" fill="black"/>
<path d="M447.701 128.4C436.901 132.6 421.801 141.4 408.801 148.7C401.601 152.7 399.401 155.1 403.201 162.4C407.001 169.7 414.201 176.7 419.601 181.5C425.001 186.3 428.001 184.3 432.001 181.7L460.501 162.9L475.601 129.4C469.301 125 458.601 124.1 447.701 128.4Z" fill="#2835BD"/>
<path d="M417.201 168.1C421.801 169 421.801 169.5 427.501 165.8C433.201 162.1 461.901 144.8 464.801 142.9" stroke="#4150F2" stroke-width="2" stroke-miterlimit="10" stroke-linecap="round"/>
<path d="M489.401 117.8C484.901 114.5 481.801 114.3 457.601 112.3C433.401 110.3 422.101 107.8 419.301 112.2C416.501 116.6 419.001 127.6 421.801 135.9C424.601 144.2 426.201 146.9 430.101 147.2C434.001 147.5 470.401 148.7 477.101 149.4L480.401 155L511.501 139.3C511.501 139.3 493.801 121.1 489.401 117.8Z" fill="#3442D9"/>
<path d="M412.601 161.4C406.601 156.5 404.201 155.6 404.901 158.9C405.601 162.2 409.401 167.1 413.501 171.5C417.601 175.9 422.301 180.4 423.901 180.1C425.501 179.8 423.601 176.8 421.101 172C418.966 167.959 416.081 164.362 412.601 161.4Z" fill="black"/>
<path d="M419.201 168.7L414.201 172.2L410.101 175.1C405.201 178.7 407.201 181.6 407.601 185C408.001 188.4 406.901 190.9 404.601 190.9C402.301 190.9 398.901 181.3 396.501 176.7C394.101 172.1 386.201 168.4 382.101 164.9C380.401 163.4 380.001 160.9 382.101 160.1C381.201 158.8 380.001 155.5 383.001 154.5C386.001 153.5 390.501 159 393.001 160.7C395.501 162.4 398.601 164 400.901 163C402.482 162.295 404.019 161.494 405.501 160.6L408.901 158.5L412.601 161.4C415.112 163.533 417.331 165.987 419.201 168.7Z" fill="#FF78B9"/>
<path d="M570.2 162C564.6 183.7 538.6 188.8 518.7 193.4C498.8 198 499.4 204 495.8 214.9C492.2 225.8 485 253.1 480 265.5L546.5 226.4L573.7 174.8L570.2 162Z" fill="#66BCFF"/>
<path d="M493.501 237.9C491.301 245.6 489.501 251.4 488.501 255.6C487.501 259.8 492.101 259.4 497.001 258C501.901 256.6 504.001 254.5 503.201 250.2C502.401 245.9 495.901 229.2 493.501 237.9Z" fill="white"/>
<path d="M412.601 161.4L408.901 158.5C408.001 158.4 407.501 158.4 407.101 158.7C406.701 159 406.801 159.2 406.901 159.7C409.201 159.3 414.901 163.4 415.101 171.5C416.401 172.1 417.101 172.5 417.601 172.2C418.101 171.9 418.801 170.5 419.201 168.7C417.331 165.987 415.112 163.533 412.601 161.4Z" fill="black"/>
<path d="M403.801 186.5C402.801 182.7 399.401 174.9 396.501 171.8C393.601 168.7 389.001 161.4 387.501 159C386.001 156.6 382.101 153.6 381.201 156.3C381.006 157.635 381.328 158.994 382.101 160.1C380.001 160.9 380.401 163.4 382.101 164.9C386.201 168.4 393.901 171.6 396.501 176.7C399.101 181.8 400.901 189.2 403.701 190.7L404.501 190.9C405.001 190.8 404.701 189.4 403.801 186.5Z" fill="#DE3A93"/>
<path d="M518.201 6.50005C516.934 10.0717 516.794 13.9464 517.801 17.6C517.96 18.2431 518.334 18.8123 518.862 19.2126C519.39 19.613 520.039 19.8203 520.701 19.8H526.801C527.48 19.8029 528.152 19.6618 528.773 19.386C529.393 19.1102 529.948 18.706 530.401 18.2C534.101 14.3 540.801 13.3 546.001 15.5L549.101 11C549.433 10.5592 549.596 10.0136 549.559 9.46284C549.522 8.91207 549.289 8.39288 548.901 8.00005C545.869 5.13493 542.251 2.96253 538.297 1.63305C534.343 0.303573 530.148 -0.151246 526.001 0.300046C524.254 0.509691 522.6 1.20038 521.223 2.29512C519.845 3.38985 518.799 4.84559 518.201 6.50005Z" fill="#FF8C19"/>
<path d="M573.301 108.8C572.901 113.5 573.701 115.1 574.801 113.2C575.574 111.494 576.048 109.667 576.201 107.8L573.301 108.8Z" fill="black"/>
<path d="M561.301 78.1C552.701 79.2 547.901 80.7 543.601 82.7M578.901 84.1L582.601 87.8M557.001 119.6C557.001 119.6 552.501 122.9 549.601 125.3" stroke="black" stroke-width="2" stroke-linecap="round" stroke-linejoin="round"/>
<path d="M517.501 93.8L516.701 105.6H511.401C511.711 101.727 512.313 97.883 513.201 94.1C513.399 93.4542 513.703 92.8459 514.101 92.3C515.431 90.6347 516.978 89.1549 518.701 87.9L527.901 81C530.505 79.0802 532.487 76.4374 533.601 73.4C534.901 70 536.501 65.7 537.201 64.8" stroke="#F551A0" stroke-width="2" stroke-linecap="round" stroke-linejoin="round"/>
<path d="M573.201 77.5C569.001 88.1 564.401 106.1 567.901 114.7C568.252 115.51 568.688 116.281 569.201 117L571.201 116.8C570.444 116.015 569.834 115.101 569.401 114.1C566.201 106.4 570.201 89.8 574.401 78.8L573.201 77.5ZM480.601 101.4C481.001 101.872 481.473 102.277 482.001 102.6C483.001 90.9 487.801 81 495.201 75.2L493.201 74.9C486.301 80.8 481.701 90.3 480.601 101.4Z" fill="#F551A0"/>
<path d="M560.901 118.9L549.801 120.2" stroke="black" stroke-width="2" stroke-linecap="round" stroke-linejoin="round"/>
<path d="M546.001 161.3C542.001 164 533.501 168.1 528.101 169.3C526.752 169.577 525.378 169.711 524.001 169.7C521.835 169.781 519.683 169.331 517.731 168.39C515.779 167.449 514.086 166.045 512.801 164.3L507.601 157C503.101 150.6 497.401 142.7 493.301 137C493.201 136.8 493.201 136.7 493.101 136.6C486.901 127.9 483.601 124.1 479.001 123.4C474.401 122.7 461.101 121.5 437.801 119.7C432.001 119.3 431.101 119.4 430.001 122C429.969 122.098 429.916 122.187 429.846 122.262C429.776 122.337 429.69 122.396 429.595 122.435C429.499 122.473 429.397 122.489 429.294 122.483C429.191 122.477 429.091 122.449 429.001 122.4C428.817 122.314 428.667 122.169 428.577 121.987C428.486 121.806 428.459 121.599 428.501 121.4C430.101 117.5 432.501 117.7 437.901 118.1C451.501 119.2 474.801 121 479.301 121.8C483.801 122.6 488.701 127.7 494.401 135.7C494.401 135.8 494.501 135.9 494.601 136C498.701 141.7 504.301 149.7 508.901 156L514.101 163.4C516.901 167.3 522.001 168.9 527.701 167.7C533.401 166.5 542.701 161.7 545.801 159.5C545.917 160.094 545.984 160.696 546.001 161.3Z" fill="#5866FC"/>
<path d="M422.401 113.9C419.501 116.6 421.001 121.9 423.001 129.2C425.001 136.5 427.501 143.1 428.801 142.9C430.101 142.7 430.801 140.1 431.101 136.3C431.401 132.5 431.301 125.7 429.801 120.6C428.301 115.5 424.601 111.8 422.401 113.9Z" fill="black"/>
<path d="M431.301 133.1L423.901 132.2C420.301 131.7 416.701 131.4 413.101 131.2C412.401 135.5 410.901 141 408.801 143.2C406.701 145.4 403.001 145.3 402.601 140.3C402.201 135.3 402.501 128.2 399.201 113.4C398.001 107.9 395.801 104.6 395.001 100.4C394.201 96.2 396.601 95.5 398.801 95.9C398.301 93.1 398.501 89.5 402.001 89C405.501 88.5 406.901 91.5 406.901 95.4C407.42 94.6811 408.168 94.1606 409.023 93.9243C409.877 93.6879 410.787 93.7499 411.601 94.1C414.001 95 414.501 98 414.201 102.8C413.901 107.6 413.801 112.7 415.801 114.4C417.801 116.1 418.301 115.5 421.101 115.9L427.901 116.5C428.712 117.777 429.351 119.156 429.801 120.6C430.835 124.685 431.339 128.886 431.301 133.1Z" fill="#FF78B9"/>
<path d="M431.301 133.1C431.339 128.886 430.835 124.685 429.801 120.6C429.351 119.156 428.712 117.777 427.901 116.5H427.001C429.501 119.7 431.001 128.1 427.001 132.6C427.564 133.077 428.207 133.449 428.901 133.7C429.746 133.781 430.594 133.569 431.301 133.1Z" fill="black"/>
<path d="M411.701 100C412.101 95.3 408.801 93.3 406.901 95.4C406.901 91.5 405.601 88.5 402.001 89C398.401 89.5 398.301 93.1 398.801 95.9C396.601 95.5 394.201 96.3 395.001 100.4C395.801 104.5 398.001 107.9 399.201 113.4C402.501 128.2 402.101 134.4 402.601 140.3C402.608 141.489 402.993 142.645 403.701 143.6C406.001 146 407.001 143.1 406.901 138.7C406.846 131.814 407.247 124.933 408.101 118.1C409.101 110.1 411.401 104.7 411.701 100Z" fill="#DE3A93"/>
<path d="M402.401 89C405.501 88.9 405.601 92.8 405.501 97.1L406.901 95.4C406.901 91.7 405.701 88.7 402.401 89Z" fill="#FF78B9"/>
<path d="M482.701 138.2C481.129 142.074 479.257 145.818 477.101 149.4C481.701 147.4 483.601 146.4 483.601 146.4M512.401 140.2L523.001 151M523.001 151C531.601 152.1 533.601 153.9 535.901 156.8M523.001 151L532.701 151.3" stroke="black" stroke-width="2" stroke-linecap="round" stroke-linejoin="round"/>
<path d="M496.601 252.1C495.301 255.4 493.101 257.6 491.701 257.1C490.301 256.6 490.301 255 491.701 251.9C492.304 250.642 492.806 249.338 493.201 248C494.001 245.1 495.501 244.6 496.601 245.1C497.701 245.6 498.001 248.7 496.601 252.1Z" fill="black"/>
<path d="M418.001 207.6C417.901 209.3 417.701 211.2 417.501 213.2L439.901 215.7L416.301 223.1C415.801 226.5 415.301 229.6 414.801 232.5L430.401 234.1C425.101 236 419.301 238 413.101 240.4C412.301 243.933 411.501 246.933 410.701 249.4L418.001 249.6L409.801 251.9C409.2 253.881 408.465 255.819 407.601 257.7C407.499 257.957 407.432 258.226 407.401 258.5C416.301 255.7 425.301 253.4 434.001 251.5C442.884 253.103 451.639 255.342 460.201 258.2C462.365 257.29 464.309 255.926 465.901 254.2C462.501 253 457.501 251.4 451.401 249.7L447.901 248.8C456.201 247.4 463.901 246.2 470.901 245.3C472.001 242.5 473.201 239.2 474.401 235.6C467.901 234.1 461.201 232.9 454.701 231.8C464.101 228.9 471.501 226.8 477.701 225.3C478.701 221.9 479.701 218.3 480.701 214.5L467.201 213.1L482.101 208.5L483.701 202.2L453.201 211.5L418.001 207.6ZM468.301 240C458.101 241.4 446.201 243.2 433.801 245.9C429.134 245.1 424.234 244.5 419.101 244.1C428.001 240.8 435.801 238 442.801 235.7C450.901 236.8 459.701 238.2 468.301 240ZM476.901 219.7C468.401 221.8 457.401 224.9 442.301 230C434.201 228.9 426.901 228.1 421.001 227.5L453.801 217.2L476.901 219.7ZM418.401 199.7C418.301 201.6 418.301 203.7 418.101 206.1C443.701 205.3 473.001 202.2 484.001 200.9C484.601 198.3 485.201 196.1 485.801 194.2C477.901 195.2 446.001 198.9 418.401 199.7Z" fill="#3F4EEB"/>
<path d="M461.701 252.8L465.901 254.2C464.309 255.926 462.365 257.29 460.201 258.2L456.201 256.9C458.301 255.934 460.175 254.537 461.701 252.8ZM471.101 234.9L474.401 235.6C473.201 239.2 472.001 242.5 470.901 245.3L466.501 245.9C468.368 242.382 469.908 238.7 471.101 234.9ZM476.801 214.1L480.701 214.5C479.701 218.3 478.701 221.9 477.701 225.3L473.701 226.3C474.301 224.3 474.801 222.2 475.301 220.1C475.401 219.9 475.401 219.7 475.501 219.5C475.901 217.7 476.401 215.9 476.801 214.1ZM479.401 203.5L483.701 202.2L482.101 208.5L477.801 209.8C478.301 207.7 478.901 205.6 479.401 203.5ZM485.801 194.2C485.201 196.1 484.601 198.3 484.001 200.9L479.901 201.3L481.701 194.7L485.801 194.2ZM409.801 251.9L414.801 250.5C414.101 252.7 413.401 254.8 412.601 256.9L407.401 258.5C407.432 258.226 407.499 257.957 407.601 257.7C408.465 255.819 409.2 253.881 409.801 251.9ZM413.101 240.4L417.601 238.7C416.901 242.5 416.101 246 415.101 249.5H410.701C411.501 246.967 412.301 243.933 413.101 240.4ZM416.301 223.1L420.001 221.9C419.601 225.8 419.101 229.4 418.601 232.9L414.801 232.5C415.301 229.6 415.801 226.5 416.301 223.1ZM418.001 207.6L421.401 208L420.801 213.5L417.501 213.2C417.701 211.2 417.901 209.3 418.001 207.6ZM422.201 199.6L421.601 206H418.101C418.301 203.6 418.301 201.5 418.401 199.6H422.201Z" fill="black"/>
<path d="M519.601 225L519.801 233.5C519.807 233.941 519.93 234.372 520.157 234.75C520.383 235.128 520.705 235.44 521.091 235.653C521.477 235.867 521.912 235.974 522.353 235.965C522.794 235.956 523.225 235.83 523.601 235.6C524.052 235.305 524.401 234.877 524.598 234.376C524.795 233.874 524.831 233.323 524.701 232.8L521.801 222.8L519.601 225Z" fill="white"/>
<path d="M505.001 199.4C513.001 201.9 514.601 210.4 516.301 224.8C516.335 225.154 516.463 225.493 516.672 225.781C516.881 226.07 517.164 226.297 517.49 226.439C517.816 226.582 518.174 226.635 518.528 226.593C518.882 226.551 519.218 226.416 519.501 226.2L522.301 224.1C523.034 223.576 523.608 222.86 523.961 222.031C524.314 221.202 524.431 220.292 524.301 219.4C524.001 217.6 523.501 214.8 523.001 211C521.801 203.6 516.901 194.6 507.501 193.5C506.991 193.449 506.478 193.556 506.03 193.806C505.583 194.057 505.224 194.439 505.001 194.9C504.523 196.039 504.285 197.265 504.301 198.5C504.312 198.704 504.385 198.899 504.51 199.06C504.635 199.22 504.807 199.339 505.001 199.4Z" fill="#3F4EEB"/>
</g>
<defs>
<clipPath id="clip0_25_583">
<rect width="689" height="352" fill="white"/>
</clipPath>
</defs>
</svg>
