<svg width="2560" height="626" viewBox="0 0 2560 626" fill="none" xmlns="http://www.w3.org/2000/svg">
<g clip-path="url(#clip0_1_2)">
<rect width="2560" height="626" fill="#404EED"/>
<mask id="mask0_1_2" style="mask-type:luminance" maskUnits="userSpaceOnUse" x="0" y="0" width="2560" height="626">
<path d="M0 0H2560V626H0V0Z" fill="white"/>
</mask>
<g mask="url(#mask0_1_2)">
<path d="M2560 742.024C2281.4 521.424 2152.7 442.024 1922 582.924C1660.1 414.924 1561.1 471.424 1280 646.624C1139.5 509.324 1085.6 452.324 1020.5 538.224C860.2 351.524 772.1 290.424 637.8 453.024C623.243 470.609 603.935 483.635 582.18 490.55C560.424 497.465 537.138 497.977 515.1 492.024C312.9 437.124 118.6 667.024 0 742.024H2560Z" fill="#5865F2"/>
<path d="M2366.4 595.424C2362.4 591.924 2356.2 590.124 2348.8 590.124C2342.52 590.221 2336.29 591.232 2330.3 593.124L2326.3 594.424C2326.42 591.523 2326.08 588.621 2325.3 585.824C2323.1 577.024 2317.3 569.824 2308.6 564.924C2295.6 557.524 2277.3 556.324 2259.8 561.624C2256.38 562.638 2253.03 563.908 2249.8 565.424C2248.3 560.558 2246.22 555.891 2243.6 551.524C2227.9 525.124 2195.3 509.624 2170.9 517.024C2160.5 520.124 2152.7 527.224 2149 536.824C2144.2 549.224 2146.3 564.524 2154.9 578.924C2167.6 600.424 2192 615.224 2214.4 615.324C2214.6 616.624 2214.8 617.924 2215.1 619.124C2215.75 621.515 2216.65 623.829 2217.8 626.024H2220.1C2218.75 623.714 2217.74 621.222 2217.1 618.624C2216.73 617.178 2216.46 615.708 2216.3 614.224C2216.28 613.975 2216.16 613.744 2215.97 613.581C2215.79 613.414 2215.55 613.322 2215.3 613.324H2214.6C2192.8 613.324 2169 598.824 2156.6 577.924C2148.4 564.024 2146.3 549.324 2150.8 537.524C2154.3 528.524 2161.7 521.924 2171.5 518.924C2195 511.824 2226.6 526.924 2241.9 552.524C2244.6 557.109 2246.72 562.014 2248.2 567.124C2248.32 567.391 2248.53 567.604 2248.8 567.724C2249.06 567.825 2249.34 567.825 2249.6 567.724C2253.08 566.032 2256.69 564.627 2260.4 563.524C2277.4 558.424 2295 559.524 2307.6 566.624C2315.8 571.324 2321.3 578.124 2323.4 586.324C2324.22 589.419 2324.49 592.635 2324.2 595.824C2324.21 596.165 2324.35 596.488 2324.6 596.724C2324.74 596.839 2324.91 596.909 2325.08 596.927C2325.26 596.945 2325.44 596.909 2325.6 596.824L2330.9 595.024C2345.5 590.624 2358.6 591.324 2365.1 596.924C2368.6 599.824 2370 603.924 2369.3 608.724C2368.6 613.524 2365.3 620.324 2360.2 626.024H2362.8C2367.5 620.424 2370.6 614.524 2371.3 609.024C2372 603.524 2370.4 598.724 2366.4 595.424Z" fill="#808AFF"/>
<path d="M41.9 350.3C129.201 306.3 190.901 340.4 190.901 340.4C234.101 327 272.101 336.4 291.801 351.7C304.001 361.3 276.601 359.6 215.101 359.6H44.201C42.9015 359.6 41.6551 359.084 40.7362 358.165C39.8173 357.246 39.301 356 39.301 354.7C39.3088 353.803 39.5533 352.923 40.0098 352.151C40.4664 351.378 41.1177 350.74 41.9 350.3ZM815.501 192.3C837.601 181.1 853.201 189.8 853.201 189.8C864.101 186.4 873.801 188.8 878.701 192.6C881.801 195.1 874.901 194.6 859.301 194.6H816.001C815.683 194.6 815.378 194.473 815.153 194.248C814.928 194.023 814.801 193.718 814.801 193.4C814.799 193.169 814.864 192.942 814.988 192.746C815.112 192.551 815.291 192.396 815.501 192.3ZM2422.1 212.5C2422 206.017 2420.21 199.672 2416.92 194.084C2413.63 188.496 2408.95 183.857 2403.33 180.619C2397.72 177.381 2391.35 175.654 2384.87 175.609C2378.39 175.563 2372 177.199 2366.34 180.358C2358.76 184.587 2352.87 191.317 2349.7 199.4C2346.91 198.794 2344.06 198.492 2341.2 198.5C2335.46 198.482 2329.79 199.726 2324.59 202.146C2319.39 204.565 2314.78 208.1 2311.1 212.5H2422.1ZM413.001 210.1C407.002 210.103 401.094 211.56 395.782 214.346C390.47 217.133 385.913 221.166 382.501 226.1C369.153 220.019 354.339 217.898 339.821 219.99C325.302 222.082 311.69 228.298 300.601 237.9H448.901C446.826 229.953 442.178 222.916 435.684 217.888C429.19 212.859 421.215 210.121 413.001 210.1ZM2165.6 283.5C2168.11 283.527 2170.6 282.998 2172.88 281.951C2175.16 280.902 2177.18 279.362 2178.8 277.441C2180.41 275.518 2181.58 273.262 2182.22 270.836C2182.86 268.408 2182.96 265.869 2182.5 263.4C2177.71 237.557 2164.64 213.975 2145.26 196.214C2125.88 178.455 2101.25 167.482 2075.09 164.952C2048.93 162.421 2022.65 168.473 2000.23 182.193C1977.81 195.913 1960.46 216.554 1950.8 241C1941.86 239.071 1932.74 238.099 1923.6 238.1C1906.03 238.071 1888.64 241.712 1872.56 248.79C1856.48 255.867 1842.05 266.225 1830.2 279.2C1829.88 279.573 1829.67 280.029 1829.6 280.516C1829.52 281.003 1829.59 281.501 1829.79 281.952C1829.99 282.402 1830.31 282.787 1830.72 283.061C1831.13 283.335 1831.61 283.487 1832.1 283.5H2165.6Z" fill="#5865F2"/>
<path d="M1720.6 625.4H1718.6C1719.4 602.8 1715.2 588.1 1705.7 580.6C1696.2 573.1 1680.3 572.6 1658 579.5C1657.73 579.569 1657.44 579.533 1657.2 579.4C1656.95 579.239 1656.77 578.988 1656.7 578.7C1656.08 574.678 1654.43 570.887 1651.9 567.698C1649.38 564.507 1646.07 562.027 1642.3 560.5C1632.7 556.6 1620.8 558.8 1610.6 566.3C1585.8 584.4 1588.5 616.8 1588.5 617.1C1588.5 617.306 1588.45 617.509 1588.34 617.686C1588.24 617.863 1588.08 618.006 1587.9 618.1C1587.72 618.196 1587.51 618.228 1587.32 618.192C1587.12 618.155 1586.93 618.053 1586.8 617.9C1573.9 606.4 1564.9 601.9 1557.6 603.2C1550.3 604.5 1543.7 612.3 1536.2 625.4H1533.9C1542 611.2 1548.6 602.7 1557.2 601.2C1565.8 599.7 1573.9 604.1 1586.4 614.9C1586.3 606.9 1587.7 580.6 1609.4 564.7C1620.2 556.8 1632.8 554.5 1643 558.7C1646.93 560.233 1650.41 562.732 1653.12 565.965C1655.83 569.199 1657.68 573.063 1658.5 577.2C1680.9 570.5 1696.7 571.1 1706.9 579.1C1717.1 587.1 1721.4 602.1 1720.6 625.4Z" fill="#808AFF"/>
<path d="M596.5 275.9C594.932 274.918 593.599 273.602 592.597 272.047C591.594 270.491 590.947 268.734 590.7 266.9L589.7 260.5C589.676 260.359 589.602 260.231 589.492 260.14C589.382 260.048 589.243 259.999 589.1 260C588.957 259.998 588.817 260.047 588.707 260.139C588.597 260.23 588.523 260.359 588.5 260.5L587.5 266.9C587.234 268.728 586.578 270.478 585.577 272.03C584.577 273.583 583.255 274.903 581.7 275.9L580.9 276.4C580.804 276.442 580.724 276.513 580.67 276.602C580.617 276.692 580.592 276.796 580.6 276.9C580.59 277.004 580.614 277.109 580.668 277.199C580.722 277.289 580.803 277.359 580.9 277.4L581.7 277.9C583.249 278.927 584.565 280.268 585.564 281.835C586.563 283.403 587.223 285.162 587.5 287L588.5 293.3C588.523 293.442 588.597 293.57 588.707 293.662C588.817 293.754 588.957 293.803 589.1 293.8C589.243 293.803 589.383 293.754 589.493 293.662C589.603 293.57 589.677 293.442 589.7 293.3L590.7 287C590.958 285.156 591.61 283.389 592.611 281.819C593.611 280.249 594.938 278.913 596.5 277.9L597.3 277.4C597.396 277.359 597.477 277.289 597.531 277.199C597.585 277.109 597.609 277.004 597.6 276.9C597.608 276.796 597.584 276.692 597.53 276.602C597.476 276.513 597.396 276.442 597.3 276.4L596.5 275.9Z" fill="#808AFF"/>
<path d="M1692.1 177.1C1689.45 175.384 1687.2 173.122 1685.49 170.467C1683.78 167.811 1682.66 164.823 1682.2 161.7L1680.6 150.9C1680.54 150.653 1680.4 150.432 1680.2 150.27C1680 150.108 1679.75 150.013 1679.5 150C1679.24 149.996 1678.99 150.084 1678.78 150.249C1678.58 150.413 1678.45 150.644 1678.4 150.9L1676.8 161.7C1676.32 164.829 1675.18 167.82 1673.46 170.477C1671.73 173.132 1669.46 175.39 1666.8 177.1L1665.4 178C1665.25 178.104 1665.13 178.238 1665.05 178.394C1664.96 178.549 1664.91 178.722 1664.9 178.9C1664.9 179.08 1664.95 179.255 1665.04 179.412C1665.12 179.569 1665.25 179.702 1665.4 179.8L1666.8 180.7C1669.47 182.429 1671.74 184.705 1673.46 187.378C1675.18 190.051 1676.32 193.057 1676.8 196.2L1678.4 207C1678.45 207.256 1678.58 207.487 1678.78 207.652C1678.99 207.816 1679.24 207.904 1679.5 207.9C1679.75 207.887 1680 207.792 1680.2 207.631C1680.4 207.469 1680.54 207.248 1680.6 207L1682.2 196.2C1682.66 193.062 1683.78 190.058 1685.49 187.387C1687.19 184.714 1689.45 182.435 1692.1 180.7L1693.6 179.8C1693.74 179.698 1693.85 179.561 1693.92 179.403C1693.99 179.245 1694.02 179.072 1694 178.9C1694.01 178.73 1693.98 178.559 1693.91 178.403C1693.84 178.247 1693.73 178.109 1693.6 178L1692.1 177.1Z" fill="#808AFF"/>
<path d="M2183.7 410.1C2181.55 408.706 2179.73 406.869 2178.35 404.713C2176.97 402.557 2176.07 400.132 2175.7 397.6L2174.3 388.9C2174.3 388.795 2174.28 388.691 2174.24 388.594C2174.2 388.497 2174.14 388.409 2174.07 388.334C2173.92 388.184 2173.71 388.1 2173.5 388.1C2173.28 388.098 2173.06 388.179 2172.9 388.327C2172.73 388.472 2172.62 388.677 2172.6 388.9L2171.3 397.6C2170.91 400.137 2169.99 402.564 2168.6 404.722C2167.2 406.876 2165.36 408.71 2163.2 410.1L2162.1 410.8C2161.99 410.881 2161.9 410.986 2161.83 411.108C2161.76 411.227 2161.71 411.361 2161.7 411.5C2161.7 411.642 2161.73 411.781 2161.81 411.904C2161.88 412.027 2161.98 412.129 2162.1 412.2L2163.2 412.9C2165.35 414.301 2167.18 416.136 2168.58 418.289C2169.97 420.444 2170.9 422.866 2171.3 425.4L2172.6 434.1C2172.62 434.321 2172.73 434.525 2172.9 434.673C2173.06 434.821 2173.28 434.903 2173.5 434.9C2173.71 434.9 2173.92 434.816 2174.07 434.666C2174.22 434.516 2174.3 434.312 2174.3 434.1L2175.7 425.4C2176.08 422.871 2176.99 420.451 2178.37 418.298C2179.75 416.144 2181.56 414.304 2183.7 412.9L2184.8 412.2C2184.93 412.139 2185.04 412.039 2185.11 411.913C2185.18 411.787 2185.21 411.643 2185.2 411.5C2185.2 411.359 2185.16 411.22 2185.09 411.097C2185.02 410.975 2184.92 410.872 2184.8 410.8L2183.7 410.1Z" fill="#808AFF"/>
<path d="M900.9 413.7C900.087 413.183 899.397 412.495 898.879 411.683C898.361 410.871 898.026 409.955 897.9 409L897.4 405.8C897.4 405.721 897.368 405.644 897.312 405.588C897.256 405.532 897.179 405.5 897.1 405.5C897.02 405.5 896.944 405.532 896.888 405.588C896.832 405.644 896.8 405.72 896.8 405.8L896.3 409C896.173 409.955 895.839 410.87 895.32 411.682C894.802 412.494 894.113 413.183 893.3 413.7L892.8 414C892.7 414 892.7 414.2 892.7 414.3C892.695 414.354 892.701 414.409 892.719 414.46C892.736 414.512 892.763 414.56 892.8 414.6L893.3 414.8C894.091 415.341 894.764 416.036 895.28 416.844C895.795 417.651 896.142 418.555 896.3 419.5L896.8 422.8C896.8 422.88 896.832 422.956 896.888 423.012C896.944 423.068 897.02 423.1 897.1 423.1C897.18 423.1 897.256 423.068 897.312 423.012C897.368 422.956 897.4 422.88 897.4 422.8L897.9 419.5C898.057 418.555 898.403 417.651 898.919 416.843C899.435 416.035 900.109 415.34 900.9 414.8L901.4 414.6C901.436 414.559 901.463 414.512 901.48 414.46C901.497 414.409 901.504 414.354 901.5 414.3C901.5 414.2 901.5 414 901.4 414L900.9 413.7Z" fill="#808AFF"/>
<path d="M943.1 542C942.685 541.753 942.328 541.419 942.052 541.023C941.776 540.626 941.588 540.175 941.5 539.7L941.3 538H941L940.7 539.7C940.629 540.168 940.459 540.616 940.2 541.013C939.941 541.41 939.6 541.746 939.2 542L939 542.2C938.987 542.2 938.974 542.203 938.961 542.208C938.949 542.213 938.938 542.221 938.929 542.23C938.92 542.239 938.912 542.25 938.907 542.262C938.902 542.274 938.9 542.287 938.9 542.3C938.9 542.313 938.902 542.326 938.907 542.338C938.912 542.351 938.92 542.362 938.929 542.371C938.938 542.38 938.949 542.388 938.962 542.393C938.974 542.398 938.987 542.4 939 542.4L939.2 542.6C939.6 542.853 939.942 543.19 940.2 543.587C940.459 543.984 940.63 544.432 940.7 544.9L941 546.6H941.3L941.5 544.9C941.588 544.425 941.776 543.974 942.052 543.577C942.327 543.18 942.685 542.847 943.1 542.6L943.3 542.4L943.1 542Z" fill="#808AFF"/>
<path d="M1365.8 532.6C1364.9 531.995 1364.14 531.212 1363.56 530.299C1362.97 529.389 1362.58 528.368 1362.4 527.3L1361.9 523.7C1361.9 523.5 1361.7 523.4 1361.5 523.4C1361.46 523.4 1361.42 523.408 1361.38 523.423C1361.31 523.459 1361.26 523.516 1361.22 523.585C1361.21 523.622 1361.2 523.661 1361.2 523.7L1360.6 527.3C1360.46 528.368 1360.1 529.395 1359.53 530.31C1358.96 531.225 1358.2 532.006 1357.3 532.6L1356.8 532.9C1356.7 532.9 1356.6 533 1356.6 533.2C1356.6 533.3 1356.7 533.4 1356.8 533.5L1357.3 533.8C1358.18 534.39 1358.93 535.156 1359.5 536.051C1360.07 536.946 1360.44 537.951 1360.6 539L1361.2 542.6C1361.2 542.68 1361.23 542.756 1361.29 542.812C1361.34 542.869 1361.42 542.9 1361.5 542.9C1361.7 542.9 1361.9 542.8 1361.9 542.6L1362.4 539C1362.59 537.95 1362.99 536.95 1363.57 536.057C1364.16 535.164 1364.91 534.396 1365.8 533.8L1366.3 533.5C1366.34 533.46 1366.36 533.412 1366.38 533.36C1366.4 533.309 1366.4 533.254 1366.4 533.2C1366.4 533 1366.4 532.9 1366.3 532.9L1365.8 532.6Z" fill="#808AFF"/>
<path d="M330.1 509C329.138 508.35 328.322 507.508 327.703 506.527C327.083 505.546 326.673 504.447 326.5 503.3L325.9 499.3C325.8 499.1 325.7 498.9 325.5 498.9C325.394 498.9 325.292 498.942 325.217 499.017C325.142 499.092 325.1 499.194 325.1 499.3L324.5 503.3C324.308 504.453 323.881 505.555 323.244 506.536C322.608 507.517 321.775 508.355 320.8 509L320.2 509.3C320.1 509.4 320.1 509.5 320.1 509.7C320.1 509.8 320.1 510 320.2 510L320.8 510.4C321.784 511.036 322.622 511.872 323.26 512.854C323.897 513.837 324.32 514.943 324.5 516.1L325.1 520.1C325.1 520.3 325.3 520.4 325.5 520.4C325.7 520.4 325.8 520.3 325.9 520.1L326.5 516.1C326.661 514.949 327.066 513.845 327.686 512.862C328.307 511.88 329.13 511.04 330.1 510.4L330.7 510C330.8 510 330.9 509.8 330.9 509.7C330.9 509.622 330.882 509.546 330.848 509.476C330.813 509.407 330.762 509.346 330.7 509.3L330.1 509Z" fill="#808AFF"/>
</g>
<g clip-path="url(#clip1_1_2)">
<path d="M1880.2 622.4H1715.3V570.9C1753.7 534.3 1797.5 559.5 1800.4 586.7C1844.1 558.3 1885.2 581 1880.2 622.4Z" fill="#404EED"/>
<path d="M1715.3 486.5H1279.7V622.4H1715.3V486.5Z" fill="#5866FC"/>
<path d="M1279.7 528.5L1715.3 493.4V486.5H1279.7V528.5Z" fill="#4B59F2"/>
<path d="M1715.3 486.5H1712.1V622.4H1715.3V486.5Z" fill="#3543DE"/>
<path d="M1676 486.5H1672.8V622.4H1676V486.5Z" fill="#3543DE"/>
<path d="M1636.7 486.5H1633.5V622.4H1636.7V486.5Z" fill="#3543DE"/>
<path d="M1597.4 486.5H1594.2V622.4H1597.4V486.5Z" fill="#3543DE"/>
<path d="M1558 486.5H1554.8V622.4H1558V486.5Z" fill="#3543DE"/>
<path d="M1518.7 486.5H1515.5V622.4H1518.7V486.5Z" fill="#3543DE"/>
<path d="M1479.4 486.5H1476.2V622.4H1479.4V486.5Z" fill="#3543DE"/>
<path d="M1440.1 486.5H1436.9V622.4H1440.1V486.5Z" fill="#3543DE"/>
<path d="M1400.8 486.5H1397.6V622.4H1400.8V486.5Z" fill="#3543DE"/>
<path d="M1361.5 486.5H1358.3V622.4H1361.5V486.5Z" fill="#3543DE"/>
<path d="M1322.2 486.5H1319V622.4H1322.2V486.5Z" fill="#3543DE"/>
<path d="M1282.9 486.5H1279.7V622.4H1282.9V486.5Z" fill="#3543DE"/>
<path d="M1397.9 360.8C1393.8 347.2 1391.6 340.7 1399 336.7C1406.4 332.7 1428.9 335.4 1439.4 337.9C1449.9 340.4 1451.4 343 1444.5 353.3L1397.9 360.8Z" fill="#FFF4B3"/>
<path d="M1393.1 483.1C1391.5 442.7 1392.5 409.1 1393.8 391.2C1387.1 386.8 1384 383.4 1382.7 381.5C1382.43 381.134 1382.29 380.687 1382.31 380.232C1382.33 379.778 1382.5 379.343 1382.8 379C1393.4 365.7 1402.5 354.1 1412 348.7C1421.5 343.3 1434.5 341.9 1455.2 362.5C1455.4 362.764 1455.5 363.089 1455.48 363.418C1455.46 363.748 1455.33 364.06 1455.1 364.3C1453.46 365.932 1451.72 367.468 1449.9 368.9C1454.1 376.4 1460.2 387.8 1460.2 387.8H1465C1468.08 387.8 1471.03 389.022 1473.2 391.198C1475.38 393.373 1476.6 396.323 1476.6 399.4C1476.7 408.7 1474.5 419.9 1470.2 434.3C1489.4 449.9 1484.7 483 1484.7 483L1393.1 483.1Z" fill="#29CC7A"/>
<path d="M1470.2 434.3C1470.8 432.2 1471.4 430.3 1471.9 428.3L1456.8 436.7C1456.8 436.7 1432.9 420.6 1392.8 410.6C1392.1 429.2 1392 454.4 1393.1 483.1H1484.7C1484.7 483.1 1489.4 449.9 1470.2 434.3Z" fill="#8CD9FF"/>
<path d="M1474 438C1472.84 436.667 1471.56 435.43 1470.2 434.3C1470.8 432.2 1471.4 430.3 1471.9 428.3L1456.8 436.7C1456.8 436.7 1432.9 420.6 1392.8 410.6C1392.7 412.9 1392.6 415.4 1392.6 417.9C1423.3 430.6 1439.8 452.4 1441.7 483.1H1464.4C1468.4 465.5 1471.6 450.1 1474 438Z" fill="#BAE8FF"/>
<path d="M1404.9 398.9H1405.3C1405.5 398.7 1405.7 398.6 1405.8 398.3L1414.5 370.2C1414.56 370.082 1414.59 369.953 1414.59 369.821C1414.6 369.69 1414.57 369.559 1414.52 369.439C1414.47 369.318 1414.39 369.21 1414.29 369.123C1414.19 369.036 1414.08 368.972 1413.95 368.935C1413.82 368.898 1413.69 368.889 1413.56 368.908C1413.43 368.928 1413.31 368.976 1413.2 369.049C1413.09 369.122 1412.99 369.218 1412.93 369.331C1412.86 369.443 1412.81 369.569 1412.8 369.7L1404.4 396.9C1400.77 395.352 1397.29 393.477 1394 391.3H1393.8C1393.8 391.9 1393.7 392.6 1393.7 393.2C1397.16 395.423 1400.8 397.331 1404.6 398.9H1404.9Z" fill="black"/>
<path d="M1442.1 353.7L1406.3 356.3C1446.3 363.9 1448 365 1442.1 353.7Z" fill="black"/>
<path d="M1461.9 458.5L1458.1 423C1458.03 422.373 1457.72 421.797 1457.23 421.389C1456.75 420.981 1456.13 420.77 1455.5 420.8H1451.7L1450 417.5C1449.48 416.591 1448.64 415.9 1447.65 415.552C1446.66 415.203 1445.58 415.22 1444.6 415.6C1443.59 416.029 1442.77 416.811 1442.3 417.8C1434.8 433.9 1431.1 460.4 1430.4 465.4C1430.39 465.634 1430.44 465.867 1430.57 466.065C1430.7 466.263 1430.88 466.415 1431.1 466.5L1452.7 473.4C1452.82 473.463 1452.96 473.489 1453.09 473.476C1453.23 473.463 1453.36 473.41 1453.46 473.326C1453.57 473.241 1453.65 473.127 1453.69 472.998C1453.73 472.869 1453.74 472.731 1453.7 472.6L1452.9 462.5L1460.9 460C1461.22 459.908 1461.49 459.707 1461.67 459.432C1461.86 459.158 1461.94 458.828 1461.9 458.5Z" fill="#EB459F"/>
<path d="M1443.4 430.2L1440.1 464.7" stroke="#D11583" stroke-width="2" stroke-miterlimit="10" stroke-linecap="round"/>
<path d="M1433.15 379.711C1434.54 379.153 1434.79 376.541 1433.71 373.878C1432.63 371.216 1430.64 369.51 1429.26 370.068C1427.88 370.627 1427.63 373.238 1428.7 375.901C1429.78 378.564 1431.77 380.27 1433.15 379.711Z" fill="black"/>
<path d="M1443.46 385.24C1445.25 381.872 1445.03 378.262 1442.98 377.177C1440.93 376.091 1437.82 377.942 1436.04 381.309C1434.26 384.677 1434.47 388.287 1436.52 389.373C1438.57 390.458 1441.68 388.608 1443.46 385.24Z" stroke="white" stroke-width="2" stroke-miterlimit="10"/>
<path d="M1458.19 385.26C1459.97 381.893 1459.75 378.283 1457.7 377.197C1455.65 376.112 1452.55 377.962 1450.76 381.33C1448.98 384.698 1449.2 388.308 1451.25 389.393C1453.3 390.478 1456.4 388.628 1458.19 385.26Z" stroke="white" stroke-width="2" stroke-miterlimit="10"/>
<path d="M1448.07 379.228C1449 378.856 1448.9 376.479 1447.87 373.918C1446.84 371.358 1445.25 369.584 1444.33 369.957C1443.41 370.329 1443.5 372.706 1444.53 375.267C1445.57 377.827 1447.15 379.601 1448.07 379.228Z" fill="black"/>
<path d="M1457.6 405.4C1449.88 405.425 1442.39 402.775 1436.4 397.9C1430.2 392.8 1432.7 392.2 1436.6 392.1C1440.5 392 1459.2 392.7 1464.6 393.5C1470 394.3 1471 405 1457.6 405.4Z" fill="#912869"/>
<path d="M1457.6 405.4C1449.88 405.425 1442.39 402.775 1436.4 397.9C1430.2 392.8 1432.7 392.2 1436.6 392.1C1440.5 392 1459.2 392.7 1464.6 393.5C1470 394.3 1471 405 1457.6 405.4Z" fill="#611B46"/>
<path d="M1457.2 416.6L1456.8 412.9C1459.63 412.675 1462.38 411.893 1464.9 410.6" stroke="black" stroke-width="2" stroke-linecap="round" stroke-linejoin="round"/>
<path d="M1461.3 404.9C1455.9 399.7 1448.6 395.8 1435.1 396.7C1446.7 407.4 1458.8 405.6 1461.3 404.9Z" fill="#EB459F"/>
<path d="M1444.1 381.7H1450.2" stroke="white" stroke-width="2" stroke-miterlimit="10"/>
<path d="M1434.9 382.9L1409.1 372.4C1408.56 372.19 1407.98 372.115 1407.4 372.179C1406.82 372.244 1406.27 372.447 1405.79 372.771C1405.31 373.095 1404.91 373.531 1404.64 374.041C1404.36 374.551 1404.21 375.12 1404.2 375.7C1404.19 376.383 1404.38 377.053 1404.76 377.624C1405.13 378.194 1405.67 378.639 1406.3 378.9L1408 379.7" stroke="white" stroke-width="2" stroke-miterlimit="10" stroke-linecap="round"/>
<path d="M1429.5 369.8C1431.53 369.852 1433.56 369.582 1435.5 369" stroke="black" stroke-width="2" stroke-miterlimit="10" stroke-linecap="round"/>
<path d="M1444.5 369.8C1445.78 369.833 1447.05 369.559 1448.2 369" stroke="black" stroke-width="2" stroke-miterlimit="10" stroke-linecap="round"/>
<path d="M1401.3 357.3C1437 356.8 1449.1 352.8 1459.3 349.1C1469.5 345.4 1468.5 342.5 1460.7 342.8C1452.9 343.1 1426.2 353.3 1401.3 357.3Z" fill="#FFF4B3"/>
<path d="M1392.5 421.1L1392.3 430.9L1397.2 429C1397.2 429 1423.3 418.1 1429.5 416.6C1435.7 415.1 1441.6 418 1450.5 421.4C1459.4 424.8 1457.1 427.9 1454.3 430.9C1451.5 433.9 1451.6 433.7 1436.9 433.7C1408.8 454 1400.2 465.9 1388.7 465.9C1381.8 465.9 1375.9 462.8 1371.5 449.2C1367.1 435.6 1375.3 429.4 1392.5 421.1Z" fill="#29CC7A"/>
<path d="M1490.4 432.3L1475.4 414.2L1449.8 439.7L1467.9 454.8C1467.7 456.5 1467.9 457.8 1468.8 458.7C1471.5 461.4 1479.4 457.9 1486.5 450.9C1493.6 443.9 1497 435.9 1494.3 433.2C1493.4 432.3 1492.1 432.1 1490.4 432.3Z" fill="white"/>
<path d="M1465.97 430.378C1473 423.348 1477.17 416.13 1475.3 414.256C1473.43 412.381 1466.21 416.56 1459.18 423.59C1452.15 430.619 1447.97 437.837 1449.84 439.712C1451.72 441.586 1458.94 437.407 1465.97 430.378Z" fill="white"/>
<path d="M1464.23 428.664C1470.59 422.298 1474.87 416.251 1473.77 415.158C1472.68 414.064 1466.63 418.338 1460.27 424.704C1453.9 431.069 1449.63 437.116 1450.72 438.21C1451.81 439.303 1457.86 435.029 1464.23 428.664Z" fill="#BAE8FF"/>
<path d="M1489 424.7C1493.3 425.3 1495 429.2 1493.3 434.4C1493.11 434.954 1492.78 435.448 1492.34 435.835C1491.9 436.223 1491.36 436.49 1490.79 436.61C1490.22 436.731 1489.62 436.702 1489.06 436.525C1488.5 436.347 1488 436.029 1487.6 435.6C1486.61 434.551 1486.01 433.194 1485.9 431.756C1485.79 430.318 1486.18 428.887 1487 427.7L1489 424.7Z" fill="#29CC7A"/>
<path d="M1481.5 421.7C1481.3 425.4 1479.1 429.1 1477.5 431.5C1477.07 432.173 1476.87 432.972 1476.95 433.768C1477.02 434.565 1477.36 435.315 1477.9 435.9L1478.7 436.6C1478.96 436.866 1479.27 437.077 1479.62 437.222C1479.96 437.366 1480.33 437.44 1480.7 437.44C1481.07 437.44 1481.44 437.366 1481.79 437.222C1482.13 437.077 1482.44 436.866 1482.7 436.6C1485.71 433.85 1487.84 430.264 1488.8 426.3C1490 420.9 1486.1 417.1 1479.3 418.9L1481.5 421.7Z" fill="#29CC7A"/>
<path d="M1401.3 357.3L1413.5 356.3L1442.8 350.5L1435.5 343.3H1400.6L1401.3 357.3Z" fill="#FFF4B3"/>
<path d="M1460.4 394.2L1453.4 393.8C1454.2 398 1456.2 400.2 1457.9 399.5C1459.6 398.8 1460.2 395.1 1460.4 394.2Z" fill="white"/>
<path d="M1438.8 393.3C1439.7 398.1 1441.5 400.6 1443.2 399.8C1444.9 399 1445.3 395 1445.6 393.4L1438.8 393.3Z" fill="white"/>
<path d="M1731.4 486.5H1270.3" stroke="#2835BD" stroke-width="8" stroke-linecap="round" stroke-linejoin="round"/>
<path d="M1450.4 437.7C1450.48 437.906 1450.62 438.082 1450.8 438.2C1450.9 438.2 1450.9 438.2 1450.9 438.3C1450.9 438.4 1458.1 434.8 1464.3 428.6V428.4L1460.4 424.6L1457.2 421.3L1453 421.5L1444.8 418.4L1444.5 419.1C1448 420.3 1448.7 432.9 1450.4 437.7Z" fill="#EB459F"/>
<path d="M1451.7 420.9C1453.39 424.316 1454.89 427.821 1456.2 431.4C1456.27 431.561 1456.38 431.702 1456.52 431.807C1456.66 431.912 1456.83 431.979 1457 432H1457.3C1457.51 431.912 1457.68 431.756 1457.79 431.556C1457.9 431.355 1457.94 431.124 1457.9 430.9C1457.8 430.6 1455.6 424.8 1453.6 420.9H1451.7Z" fill="#D11583"/>
<path d="M1452.9 462.7H1452.7L1445 465C1444.86 465.043 1444.73 465.12 1444.63 465.225C1444.52 465.329 1444.44 465.458 1444.4 465.6C1444.37 465.763 1444.38 465.931 1444.44 466.088C1444.49 466.245 1444.58 466.387 1444.7 466.5L1451.5 472.4C1451.54 472.496 1451.61 472.577 1451.7 472.63C1451.79 472.684 1451.9 472.709 1452 472.7C1452.13 472.704 1452.26 472.679 1452.38 472.628C1452.5 472.576 1452.61 472.498 1452.7 472.4C1452.78 472.309 1452.84 472.203 1452.88 472.088C1452.92 471.972 1452.94 471.85 1452.93 471.729C1452.92 471.607 1452.89 471.489 1452.83 471.38C1452.77 471.272 1452.69 471.177 1452.6 471.1L1447 466.2L1453 464.4L1452.9 462.7Z" fill="#D11583"/>
<path d="M1392 430.6L1377.9 437.3" stroke="black" stroke-width="2" stroke-linecap="round" stroke-linejoin="round"/>
<path d="M1446.9 345.8C1431.49 349.929 1415.87 353.234 1400.1 355.7" stroke="#FFC619" stroke-width="2" stroke-miterlimit="10" stroke-linecap="round"/>
<path d="M1459.4 441.6L1470.2 451.5C1470.54 451.798 1470.97 451.978 1471.42 452.014C1471.87 452.05 1472.32 451.94 1472.7 451.7C1472.94 451.528 1473.14 451.303 1473.29 451.044C1473.43 450.784 1473.52 450.495 1473.54 450.198C1473.56 449.901 1473.51 449.603 1473.4 449.327C1473.29 449.05 1473.12 448.802 1472.9 448.6L1462.4 438.5C1462.08 438.209 1461.68 438.023 1461.25 437.97C1460.82 437.916 1460.38 437.996 1460 438.2L1459.7 438.4C1459.43 438.562 1459.21 438.784 1459.04 439.049C1458.88 439.313 1458.77 439.613 1458.74 439.924C1458.72 440.235 1458.76 440.549 1458.87 440.84C1458.99 441.131 1459.17 441.391 1459.4 441.6Z" fill="#BAE8FF"/>
<path d="M1486.5 433.5C1488.32 431.079 1489.46 428.212 1489.8 425.2" stroke="black" stroke-width="2" stroke-linecap="round" stroke-linejoin="round"/>
<path d="M1575.19 295.232C1576.1 290.909 1573.25 286.647 1568.82 285.713C1564.38 284.779 1560.05 287.527 1559.14 291.85C1558.23 296.173 1561.09 300.435 1565.52 301.369C1569.95 302.303 1574.28 299.555 1575.19 295.232Z" fill="#2A39D4"/>
<path d="M1628.7 369.5C1636 369.9 1644.8 372.9 1655.8 385.1C1662 378.9 1665 380.6 1673.3 387.7C1681.6 394.8 1699.4 408.3 1703.8 412.8C1708.2 417.3 1711.5 427 1699.5 434.3C1687.5 441.6 1666.2 428.2 1655 420.4C1643.8 412.6 1628.7 403.5 1628.7 403.5V369.5Z" fill="#2331B5"/>
<path d="M1670 384.9C1672.91 389.69 1675.35 394.746 1677.3 400C1679.6 407.2 1676.7 411.4 1670.8 416.3C1664.9 421.2 1662.5 420.1 1659.4 417.6C1659.21 417.493 1658.99 417.457 1658.78 417.499C1658.57 417.54 1658.38 417.656 1658.25 417.826C1658.11 417.996 1658.04 418.207 1658.05 418.423C1658.06 418.638 1658.15 418.843 1658.3 419C1659.88 420.391 1661.89 421.202 1664 421.3C1666.5 421.3 1669 420.1 1672 417.6C1677.1 413.3 1681.9 408.4 1678.9 399.4C1677.79 396.162 1676.42 393.018 1674.8 390C1674.17 388.789 1673.32 387.704 1672.3 386.8L1670 384.9Z" fill="#3442D9"/>
<path d="M1654.9 414.8C1660.3 420 1673.2 429.2 1673.2 429.2" stroke="black" stroke-width="2" stroke-miterlimit="10" stroke-linecap="round"/>
<path d="M1601.88 368.224C1627.75 360.855 1643.33 335.979 1636.69 312.661C1630.05 289.344 1603.69 276.414 1577.83 283.783C1551.96 291.151 1536.37 316.027 1543.02 339.345C1549.66 362.663 1576.01 375.592 1601.88 368.224Z" fill="#FF78B9"/>
<path d="M1555.8 321.2C1555.8 330.8 1560.4 339.3 1566.1 340.2C1571.8 341.1 1573.2 336.1 1573.4 326.8C1573.4 324.4 1573.5 322 1573.7 319.5C1574.3 310.9 1571.2 306.2 1566.1 305.4C1561 304.6 1555.8 311.6 1555.8 321.2Z" fill="white"/>
<path d="M1598.2 321.8C1597.21 320.513 1596.62 318.961 1596.52 317.341C1596.41 315.721 1596.79 314.106 1597.6 312.7C1605.6 299.1 1612.9 298.6 1618.1 298.9C1623.3 299.2 1627.3 304.1 1623 316.5C1629.1 323.1 1626.6 329.2 1617.9 330C1609.2 330.8 1604.5 330.1 1598.2 321.8Z" fill="#D11583"/>
<path d="M1655.4 455.1C1656.6 422.3 1646.1 418.1 1645.1 408.3C1644.1 398.5 1643.1 385.3 1632.3 371.1C1632.3 371.1 1633.6 357.8 1634.3 348.9C1634.32 348.55 1634.26 348.2 1634.13 347.875C1633.99 347.55 1633.79 347.258 1633.53 347.02C1633.28 346.782 1632.97 346.603 1632.64 346.495C1632.3 346.388 1631.95 346.356 1631.6 346.4C1624.59 347.516 1617.49 347.951 1610.4 347.7C1598.2 347.3 1581.7 346.1 1564.1 363.2L1569.8 371.2L1569.4 371.9C1569.12 372.382 1568.94 372.921 1568.89 373.478C1568.84 374.034 1568.92 374.595 1569.11 375.12C1569.3 375.646 1569.6 376.122 1570 376.516C1570.4 376.91 1570.87 377.212 1571.4 377.4L1572.5 377.8C1572.5 377.8 1556.4 387.5 1561.2 409.4C1566 431.3 1560.9 452.5 1569 459C1570.64 460.303 1572.58 461.161 1574.65 461.494C1576.72 461.827 1578.84 461.622 1580.8 460.9L1617.9 480.7C1631.4 495.6 1650.6 512.3 1650.6 512.3L1635.8 547.6L1651.4 586.9C1664.7 554.3 1682.2 522.3 1685.3 507.5C1688.4 492.7 1678.4 484 1655.4 455.1Z" fill="#2331B5"/>
<path d="M1640.8 566.8C1648.2 543.9 1656.5 523.2 1659 517.2C1659.21 516.673 1659.26 516.095 1659.13 515.541C1659.01 514.988 1658.72 514.485 1658.3 514.1C1636.7 493.4 1631.6 486.3 1631.6 486.3" stroke="#3442D9" stroke-width="2" stroke-miterlimit="10"/>
<path d="M1583.7 441L1570.3 431.9C1570.3 431.9 1578.4 420.8 1582.9 414.1L1584 412.4C1584.04 412.299 1584.11 412.208 1584.19 412.132C1584.27 412.057 1584.36 411.998 1584.46 411.961C1584.57 411.923 1584.68 411.907 1584.79 411.914C1584.9 411.921 1585 411.95 1585.1 412C1585.28 412.086 1585.43 412.232 1585.52 412.413C1585.61 412.595 1585.64 412.801 1585.6 413C1582.7 430.7 1583.7 441 1583.7 441Z" fill="black"/>
<path d="M1634.1 350.6C1627 353 1617.6 352.9 1606.4 352.6C1595.2 352.3 1583.9 352 1565.4 365L1568.4 369.3C1585.5 357.2 1594.7 357.5 1606.3 357.8C1617.9 358.1 1626.1 358.2 1633.7 356.2C1633.8 354.3 1634 352.4 1634.1 350.6Z" fill="#3442D9"/>
<path d="M1628.7 453.5C1628.92 453.501 1629.14 453.42 1629.3 453.273C1629.47 453.125 1629.58 452.921 1629.6 452.7C1629.8 436.6 1623.7 420.2 1621.1 413.9C1618.37 407.411 1616.72 400.521 1616.2 393.5C1615.4 384.4 1613.5 377.3 1612.3 374.5L1615.7 347.7H1613.9L1610.5 374.8V375C1611.6 377.4 1613.6 384.5 1614.4 393.7C1614.93 400.88 1616.58 407.933 1619.3 414.6C1622 420.8 1628 436.9 1627.8 452.6C1627.8 452.839 1627.89 453.068 1628.06 453.236C1628.23 453.405 1628.46 453.5 1628.7 453.5Z" fill="black"/>
<path d="M1686.5 609.5C1686.14 608.972 1685.67 608.534 1685.11 608.222C1684.56 607.91 1683.94 607.731 1683.3 607.7C1683.9 604.1 1683.2 601.1 1678.5 600C1673.07 598.83 1667.44 599.001 1662.1 600.5C1652.9 576.9 1634.7 514.7 1622 469.3L1580.8 460.9C1580.4 472.2 1587.8 497.1 1593.2 518.5C1598.6 539.9 1610.5 584.7 1613.8 600.9C1615.8 610.7 1618.7 622.4 1618.7 622.4H1656.9C1668.1 622.4 1682.5 618 1685.3 615.8C1688.1 613.6 1687.5 611.3 1686.5 609.5Z" fill="#2331B5"/>
<path d="M1625.2 599.3C1613.4 562.1 1596.2 512.1 1585.7 461.3" stroke="#3442D9" stroke-width="2" stroke-miterlimit="10"/>
<path d="M1605.6 455.1C1605.8 452.2 1601.8 441.3 1597 433.4C1592.2 425.5 1589.8 419.9 1585.3 422.5C1580.8 425.1 1570.3 431.9 1570.3 431.9C1570.3 431.9 1578.4 420.8 1582.9 414.1C1592.6 399.5 1589.2 379.4 1572.5 377.8C1558.8 385.4 1556.7 391.9 1543.7 414.8C1530.7 437.7 1523 462.1 1537 472.2C1551 482.3 1564.5 475.3 1589.7 464.2C1600.6 459.5 1605.5 458.1 1605.6 455.1Z" fill="#2331B5"/>
<path d="M1589.9 462.7C1587.1 461.4 1584.6 457.2 1581.6 448.6C1576.6 434.1 1575.3 429.7 1578.4 426.7L1576.5 427.9C1576.05 428.171 1575.68 428.552 1575.41 429.006C1575.15 429.461 1575.01 429.975 1575 430.5C1574.9 434.3 1576.8 439.9 1580 449.2C1582 455 1583.8 458.9 1585.7 461.3C1586.42 462.316 1587.47 463.05 1588.68 463.379C1589.88 463.707 1591.16 463.608 1592.3 463.1C1591.48 463.18 1590.65 463.042 1589.9 462.7Z" fill="#3442D9"/>
<path d="M1597 433.4C1592.3 425.5 1589.8 419.9 1585.3 422.5C1580.8 425.1 1557.8 439.6 1557.8 439.6" stroke="black" stroke-width="2" stroke-miterlimit="10" stroke-linecap="round"/>
<path d="M1648.7 375.9C1645.61 355.118 1644.44 334.096 1645.2 313.1C1645.22 312.43 1645.09 311.763 1644.81 311.154C1644.52 310.545 1644.1 310.01 1643.58 309.593C1643.05 309.175 1642.44 308.885 1641.78 308.748C1641.13 308.61 1640.45 308.628 1639.8 308.8L1614.9 315.8" stroke="#66BCFF" stroke-width="4" stroke-miterlimit="10" stroke-linecap="round"/>
<path d="M1632.7 377.6C1635.1 382.2 1639.4 390.4 1640.3 393.1C1640.6 397.3 1640.4 404.5 1640.4 406.7C1640.41 406.904 1640.48 407.099 1640.61 407.26C1640.73 407.42 1640.91 407.539 1641.1 407.6C1647.9 408.6 1650.8 408.7 1653.6 408.4C1656.4 408.1 1660.3 406.8 1663 406C1663.29 405.888 1663.52 405.669 1663.65 405.39C1663.78 405.111 1663.8 404.792 1663.7 404.5C1661.2 396.3 1659.5 390.4 1659.5 390.4C1659 380.2 1658.9 372.1 1658.9 369.4C1658.9 369.135 1658.79 368.881 1658.61 368.693C1658.42 368.505 1658.17 368.4 1657.9 368.4C1648.6 367.8 1645.4 367.8 1642 368C1638.6 368.2 1637.5 370.2 1632.8 375.8C1632.59 376.049 1632.47 376.359 1632.45 376.683C1632.43 377.008 1632.52 377.33 1632.7 377.6Z" fill="white"/>
<path d="M1662.7 405.2C1662.7 405.2 1663.8 405.6 1663 406C1663.29 405.888 1663.52 405.669 1663.65 405.39C1663.78 405.111 1663.8 404.792 1663.7 404.5C1661.2 396.3 1659.5 390.4 1659.5 390.4C1659 380.2 1658.9 372.1 1658.9 369.4C1658.9 369.135 1658.79 368.881 1658.61 368.693C1658.42 368.505 1658.16 368.4 1657.9 368.4C1648.6 367.8 1645.4 367.8 1642 368C1641.28 368.049 1640.57 368.218 1639.9 368.5L1648.7 387.1L1648.1 404.2L1662.7 405.2Z" fill="#FFE75C"/>
<path d="M1649.2 404.7C1650.9 410.8 1652.4 415.1 1656.2 415.9C1660 416.7 1664.5 412.8 1670.3 407C1676.1 401.2 1674.1 396.3 1671.6 391.7C1669.1 387.1 1668.7 381.3 1665.6 378.9C1661.76 376.078 1657.64 373.665 1653.3 371.7C1649.8 370.2 1647.7 370.2 1642.4 376.2C1637.1 382.2 1634 385.7 1634.9 388.1C1635.8 390.5 1637.3 393.1 1637.3 393.1C1634.9 395.5 1634.9 397.5 1635.9 400C1636.9 402.5 1637.3 404.8 1642.4 404.8L1649.2 404.7Z" fill="#FF78B9"/>
<path d="M1637.5 392L1651.5 378.8" stroke="black" stroke-width="2" stroke-miterlimit="10" stroke-linecap="round"/>
<path d="M1650.3 397.2C1647.15 399.184 1643.88 400.954 1640.5 402.5C1640.4 404.4 1640.4 405.9 1640.4 406.7C1640.41 406.904 1640.48 407.099 1640.61 407.26C1640.73 407.42 1640.9 407.539 1641.1 407.6C1647.9 408.6 1650.8 408.7 1653.6 408.4C1656.4 408.1 1660.3 406.8 1663 406C1663.29 405.888 1663.52 405.669 1663.65 405.39C1663.78 405.111 1663.8 404.792 1663.7 404.5L1663.1 402.5C1658.64 401.252 1654.34 399.473 1650.3 397.2Z" fill="white"/>
<path d="M1663.1 402.5C1658.64 401.252 1654.34 399.473 1650.3 397.2L1648.3 398.5L1648.1 404C1648.12 404.069 1648.16 404.132 1648.22 404.183C1648.27 404.235 1648.33 404.275 1648.4 404.3L1662.7 405.2C1662.7 405.2 1663.8 405.6 1663 406C1663.3 405.892 1663.55 405.679 1663.7 405.4C1663.7 405.3 1663.8 405.1 1663.8 405C1663.82 404.827 1663.78 404.654 1663.7 404.5L1663.1 402.6V402.5Z" fill="#FFE75C"/>
<path d="M1588.8 425C1591.95 421.337 1594.26 417.04 1595.6 412.4C1596.6 409.4 1597.7 405.1 1598.1 403.5C1598.5 401.9 1600.4 401 1602.7 401.5C1605 402 1606 402.4 1605.6 406.5C1605.2 410.6 1604.3 420.3 1604.3 420.3L1588.8 425Z" fill="#FF78B9"/>
<path d="M1634.8 427.4C1633.3 423.3 1632.6 421.2 1631.3 419.5C1630 417.8 1628.8 417.5 1623 417.2C1620.7 417.1 1616.3 417.2 1613.4 417.3C1619.1 415.8 1625.2 414.5 1626.5 414.1C1627.8 413.7 1630.4 413.3 1629.5 410.8C1628.6 408.3 1627.8 407.7 1626.4 407.7C1622.81 407.631 1619.23 407.933 1615.7 408.6C1610.55 409.608 1605.5 411.046 1600.6 412.9C1597.7 414.1 1594 419.5 1588.8 425C1591.1 433.1 1596.6 445.5 1602.2 451.4C1609.6 448.5 1614 442.1 1615.8 439.7C1625.1 438.1 1628.3 439.1 1633.5 439.8C1636.7 440.2 1637 437.9 1637.2 436.8C1637.4 435.7 1636.1 431.2 1634.8 427.4Z" fill="#FF78B9"/>
<path d="M1558.8 321.3C1558.5 325.5 1559.9 329 1561.9 329.2C1563.9 329.4 1564.9 327.8 1565 323.9C1565.05 322.252 1565.25 320.611 1565.6 319C1566.3 315.5 1564.8 314.2 1563.1 314.1C1561.4 314 1559.1 317.2 1558.8 321.3Z" fill="black"/>
<path d="M1593.1 271.9C1595.17 271.469 1597.33 271.81 1599.18 272.86C1601.02 273.91 1602.41 275.595 1603.1 277.6C1604.6 282.3 1605.9 289.4 1597.9 290.7C1594.5 291.2 1591 289.7 1585.6 285.5C1581.7 282.4 1577.5 281.3 1568.4 286C1563.5 282.6 1565.9 273.9 1579.2 278.3C1573.4 270.8 1575.1 265.6 1579.3 264.1C1583.5 262.6 1589.8 263.4 1593.1 271.9Z" fill="#2A39D4"/>
<path d="M1593.1 286.3C1590.2 282.7 1587.8 277.9 1585.8 273.8C1583.8 269.7 1581.8 265.4 1579.6 264.1H1579.3C1578.51 264.375 1577.8 264.818 1577.2 265.4L1577.9 265.2C1579.8 265.4 1581.9 269.8 1584.2 274.5C1586.5 279.2 1588.7 283.6 1591.7 287.4C1592.71 288.593 1593.85 289.666 1595.1 290.6C1596.02 290.783 1596.97 290.816 1597.9 290.7H1598C1596.16 289.484 1594.51 288.001 1593.1 286.3Z" fill="black"/>
<path d="M1603.2 287.7C1602.77 288.329 1602.23 288.871 1601.6 289.3C1601.13 282.661 1598.16 276.447 1593.3 271.9C1594.05 271.716 1594.83 271.682 1595.6 271.8C1599.78 276.14 1602.45 281.718 1603.2 287.7Z" fill="black"/>
<path d="M1613.4 598.7C1613.5 599.5 1613.7 600.2 1613.8 600.9C1615.8 610.7 1618.7 622.4 1618.7 622.4H1656.9C1668.1 622.4 1682.5 618 1685.3 615.8C1688.1 613.6 1687.5 611.3 1686.5 609.5C1686.14 608.972 1685.67 608.534 1685.11 608.222C1684.56 607.909 1683.94 607.731 1683.3 607.7C1683.9 604.1 1683.2 601.1 1678.5 600C1673.07 598.829 1667.44 599.001 1662.1 600.5C1660.7 596.8 1659 592.2 1657.2 586.9C1640.4 586.6 1623.3 585.2 1613.4 598.7Z" fill="#45AAF7"/>
<path d="M1613.4 598.7C1613.5 599.5 1613.7 600.2 1613.8 600.9C1615.8 610.7 1618.7 622.4 1618.7 622.4H1656.9C1668.1 622.4 1682.5 618 1685.3 615.8C1688.1 613.6 1687.5 611.3 1686.5 609.5C1686.14 608.972 1685.67 608.534 1685.11 608.222C1684.56 607.909 1683.94 607.731 1683.3 607.7C1683.9 604.1 1683.2 601.1 1678.5 600C1673.07 598.829 1667.44 599.001 1662.1 600.5C1660.7 596.8 1659 592.2 1657.2 586.9C1640.4 586.6 1623.3 585.2 1613.4 598.7Z" fill="#45AAF7"/>
<path d="M1662.1 600.5L1660.8 600.8H1660.6L1649.7 603C1649.52 602.768 1649.42 602.49 1649.4 602.2C1648.58 599.372 1648.14 596.445 1648.1 593.5C1648 587.4 1644.8 586.8 1639.3 586.9L1639.6 586.2C1640.34 584.262 1641.66 582.598 1643.37 581.435C1645.09 580.272 1647.13 579.667 1649.2 579.7H1658.3C1658.83 579.707 1659.36 579.829 1659.84 580.058C1660.32 580.287 1660.74 580.616 1661.09 581.025C1661.43 581.433 1661.68 581.91 1661.82 582.423C1661.96 582.937 1661.99 583.475 1661.9 584C1660.8 588.7 1660.5 594.5 1661.6 598.8C1661.71 599.383 1661.87 599.953 1662.1 600.5Z" fill="#8CD9FF"/>
<path d="M1623.5 606.6C1622.14 606.144 1620.7 605.971 1619.28 606.092C1617.85 606.212 1616.46 606.623 1615.2 607.3C1615.28 607.91 1615.42 608.512 1615.6 609.1C1616.68 608.426 1617.89 607.996 1619.15 607.841C1620.41 607.685 1621.69 607.808 1622.9 608.2C1628.5 610.1 1632.6 617.4 1634.7 622.4H1636.6C1634.4 617.2 1630 608.8 1623.5 606.6Z" fill="#5866FC"/>
<path d="M1686.2 614.9L1685.3 615.8C1682.5 618 1668.1 622.4 1656.9 622.4H1634.1V622C1660.3 621.6 1678.1 610.7 1684.2 610.7C1686.2 610.7 1687.4 613.7 1686.2 614.9Z" fill="black"/>
<path d="M1661.1 401.1C1662.52 403.012 1664.58 404.358 1666.9 404.9" stroke="black" stroke-width="2" stroke-miterlimit="10" stroke-linecap="round"/>
<path d="M1617.2 393.4C1616.2 393.405 1615.24 393.039 1614.5 392.373C1613.76 391.708 1613.3 390.79 1613.2 389.8L1612.4 380.7H1614.2L1619.5 389.4C1619.72 389.806 1619.84 390.263 1619.83 390.727C1619.83 391.19 1619.7 391.645 1619.47 392.047C1619.24 392.449 1618.91 392.784 1618.51 393.021C1618.11 393.258 1617.66 393.389 1617.2 393.4Z" fill="#FFE75C"/>
<path d="M1572.5 377.8H1582.3" stroke="black" stroke-width="2" stroke-miterlimit="10" stroke-linecap="round"/>
<path d="M1628.2 491.4C1627 487.1 1625.2 481 1625.2 481C1633.24 475.757 1640.89 469.942 1648.1 463.6C1648.1 463.6 1639.8 482 1636.1 499.1L1628.2 491.4Z" fill="black"/>
<path d="M1650.6 512.3L1660.3 511.9" stroke="black" stroke-width="2" stroke-miterlimit="10" stroke-linecap="round"/>
<path d="M1662.1 600.5L1660.8 600.8H1660.6C1656.25 601.826 1651.98 603.129 1647.8 604.7H1647.5C1647.32 604.691 1647.15 604.628 1647.01 604.521C1646.87 604.415 1646.76 604.268 1646.7 604.1C1646.65 603.996 1646.63 603.883 1646.63 603.768C1646.63 603.654 1646.65 603.54 1646.7 603.436C1646.75 603.332 1646.81 603.239 1646.9 603.164C1646.99 603.088 1647.09 603.033 1647.2 603L1649.4 602.1C1653.39 600.712 1657.46 599.577 1661.6 598.7C1661.7 599.317 1661.87 599.921 1662.1 600.5Z" fill="black"/>
<path d="M1635.1 428.2L1634.8 427.4L1634.4 426.4C1625.7 425.5 1616.6 424.9 1607.7 425.8C1607.58 425.813 1607.47 425.85 1607.36 425.907C1607.26 425.964 1607.17 426.042 1607.09 426.135C1607.02 426.227 1606.96 426.334 1606.93 426.448C1606.9 426.562 1606.89 426.682 1606.9 426.8C1606.91 426.918 1606.95 427.033 1607.01 427.137C1607.06 427.241 1607.14 427.333 1607.23 427.407C1607.33 427.482 1607.43 427.537 1607.55 427.57C1607.66 427.603 1607.78 427.613 1607.9 427.6C1616.9 426.6 1626.2 427.3 1635.1 428.2Z" fill="black"/>
<path d="M1567.2 316.8L1561.4 319.6L1569.5 323.3L1567.2 316.8Z" fill="white"/>
<path d="M1686.2 614.9C1686.8 614.1 1686.1 613.6 1684.2 613.6C1678.1 613.6 1660.3 622 1634.1 622.4H1618.7L1617.6 618C1629.6 618 1642.7 617.8 1654.9 613.9C1667.1 610 1675.2 606.7 1683.3 607.7C1683.94 607.731 1684.56 607.909 1685.11 608.222C1685.67 608.534 1686.14 608.972 1686.5 609.5C1687.04 610.311 1687.31 611.276 1687.25 612.25C1687.2 613.224 1686.83 614.154 1686.2 614.9Z" fill="white"/>
<path d="M1654.9 582.9H1656.1C1658.9 582.9 1660.8 583 1661.4 583.7C1662 584.4 1661.7 584.7 1661.5 585.7C1661.58 585.123 1661.72 584.555 1661.9 584C1661.99 583.378 1661.82 582.747 1661.45 582.242C1661.08 581.737 1660.52 581.399 1659.9 581.3H1654.9C1650.3 581.3 1645.1 581.3 1642.4 587.2C1643.01 587.184 1643.62 587.286 1644.2 587.5C1646.5 582.8 1650.6 582.9 1654.9 582.9Z" fill="#3442D9"/>
<path d="M1617.2 311.3C1615.9 313.4 1613.6 315.8 1608.5 316.8C1615.5 316 1618.5 319.9 1618.5 319.9" stroke="black" stroke-width="2" stroke-linecap="round" stroke-linejoin="round"/>
<path d="M1486.9 622.4H1420.4V608.4C1420.39 604.782 1421.79 601.303 1424.3 598.7L1430.9 592.3C1431.75 591.503 1432.42 590.542 1432.88 589.477C1433.35 588.411 1433.59 587.262 1433.6 586.1V570.1C1433.61 566.896 1434.7 563.789 1436.7 561.284C1438.69 558.778 1441.48 557.022 1444.6 556.3C1455.3 553.6 1466.4 553.1 1475.5 554.9C1478.72 555.567 1481.61 557.323 1483.69 559.873C1485.77 562.424 1486.9 565.611 1486.9 568.9V622.4Z" fill="#45AAF7"/>
<path d="M1437.5 595.6H1437.9C1438.06 595.609 1438.21 595.577 1438.35 595.506C1438.49 595.436 1438.61 595.331 1438.7 595.2C1441.7 589.4 1441.7 580.4 1441.7 570.8C1441.7 561.2 1442.6 557.6 1449 555.2L1445.6 555.9C1444.72 556.098 1443.9 556.488 1443.19 557.041C1442.48 557.594 1441.91 558.297 1441.5 559.1C1440.1 561.9 1439.9 565.6 1439.9 570.8C1439.9 580.2 1439.9 589 1437.1 594.4C1437.03 594.501 1436.99 594.617 1436.97 594.738C1436.96 594.859 1436.97 594.982 1437.01 595.098C1437.04 595.214 1437.11 595.319 1437.2 595.406C1437.28 595.493 1437.38 595.56 1437.5 595.6Z" fill="#BAE8FF"/>
<path d="M1486.9 568.9C1486.9 565.597 1485.75 562.399 1483.65 559.847C1481.55 557.295 1478.64 555.547 1475.4 554.9C1470.05 553.98 1464.62 553.678 1459.2 554C1446.4 554.9 1448.3 563 1448.3 574.8V584.9C1448.31 588.275 1447.41 591.59 1445.7 594.5C1443.8 597.6 1443.3 601.4 1443.3 608.8V622.4H1486.9V568.9Z" fill="#3F99F2"/>
<path d="M1470.9 606.3C1470.3 588.9 1462.4 573.7 1454.4 559.2C1454.2 558.912 1454.08 558.573 1454.05 558.221C1454.03 557.869 1454.11 557.517 1454.27 557.205C1454.44 556.894 1454.69 556.635 1454.99 556.457C1455.3 556.28 1455.65 556.191 1456 556.2H1458C1458.42 556.223 1458.83 556.344 1459.19 556.552C1459.56 556.76 1459.87 557.051 1460.1 557.4C1468.3 572.5 1476.9 588.2 1477.5 606.3C1477.8 615.4 1470.9 622.4 1461.7 622.4H1455.1C1464.3 622.4 1471.2 615.4 1470.9 606.3Z" fill="#3543DE"/>
<path d="M1489.7 606.3C1489.1 588.9 1481.1 573.7 1473.2 559.2C1473 558.912 1472.88 558.573 1472.85 558.221C1472.83 557.869 1472.91 557.517 1473.07 557.205C1473.24 556.894 1473.49 556.635 1473.79 556.457C1474.1 556.28 1474.45 556.191 1474.8 556.2H1476.8C1477.21 556.214 1477.61 556.331 1477.96 556.541C1478.31 556.751 1478.6 557.047 1478.8 557.4C1487.1 572.5 1495.6 588.2 1496.3 606.3C1496.4 608.415 1496.06 610.527 1495.3 612.504C1494.55 614.481 1493.39 616.281 1491.91 617.792C1490.43 619.303 1488.65 620.492 1486.68 621.285C1484.72 622.078 1482.62 622.457 1480.5 622.4H1473.9C1476.02 622.457 1478.12 622.078 1480.08 621.285C1482.05 620.492 1483.83 619.303 1485.31 617.792C1486.79 616.281 1487.95 614.481 1488.7 612.504C1489.46 610.527 1489.8 608.415 1489.7 606.3Z" fill="#3543DE"/>
<path d="M1473.4 579.3L1493.7 582.8C1495.3 587 1496.1 589.8 1496.3 592.5C1496.5 595.2 1493.9 596.7 1489.9 598.3C1487.03 599.499 1484.39 601.192 1482.1 603.3C1476.3 608.4 1471.4 611.5 1462.9 611.5C1461.2 611.5 1460 611.6 1459 610.5C1457.94 609.304 1457.31 607.784 1457.22 606.187C1457.13 604.59 1457.58 603.009 1458.5 601.7C1459.53 600.305 1460.78 599.089 1462.2 598.1C1465.22 596.14 1467.77 593.537 1469.68 590.478C1471.58 587.419 1472.78 583.978 1473.2 580.4C1473.3 579.9 1473.3 579.6 1473.4 579.3Z" fill="#DE3A93"/>
<path d="M1489.9 598.3C1491.59 597.669 1493.17 596.793 1494.6 595.7C1496.5 593.9 1495.7 592.2 1491.6 592.3C1487.5 592.4 1483.2 595.6 1474.6 600.9C1466 606.2 1453.2 611.5 1462.9 611.5C1472.6 611.5 1476.3 608.4 1482.1 603.3C1484.39 601.192 1487.03 599.499 1489.9 598.3Z" fill="black"/>
<path d="M1471.2 573.2C1469.7 573.5 1469.9 575.2 1470.7 576.9C1469.1 579.9 1470.1 581.1 1472.9 582.3C1478.56 584.224 1484.53 585.038 1490.5 584.7C1496.6 584.1 1496.2 582.1 1495.6 580.1C1497.7 578.3 1497.4 576.2 1495.3 575.3C1493.2 574.4 1481.9 570.9 1471.2 573.2Z" fill="#66BCFF"/>
<path d="M1516.3 468.8H1490.1V483.09H1516.3V468.8Z" fill="white"/>
<path d="M1569.6 469.1C1570.1 471.132 1570.13 473.252 1569.69 475.298C1569.25 477.345 1568.35 479.264 1567.06 480.912C1565.77 482.559 1564.12 483.892 1562.24 484.808C1560.36 485.724 1558.29 486.2 1556.2 486.2H1527.6L1514.2 493.7V493.3C1508.1 493.3 1504.6 491.3 1507.3 468.9C1506.1 462.6 1500.5 437.8 1497.4 419.3C1494.6 402.4 1500.9 396.2 1518.3 386.4C1525.7 364.4 1544.9 365.7 1548.6 378.9C1552.3 392.1 1564.5 448.2 1569.6 469.1Z" fill="#66BCFF"/>
<path d="M1515.9 500.8L1511.3 501.6C1511.08 501.644 1510.86 501.737 1510.68 501.871C1510.49 502.004 1510.34 502.177 1510.22 502.376C1510.11 502.575 1510.04 502.796 1510.02 503.025C1510 503.253 1510.02 503.484 1510.1 503.7L1511.1 506.2C1497.2 507 1485.1 508.2 1480.3 512.4C1475.5 516.6 1475.5 523 1473.3 542.1C1471.1 561.2 1467.5 572.6 1473.3 575.2C1479.19 577.728 1485.63 578.693 1492 578C1498.4 577.4 1499 574.1 1500.3 564.2C1501.6 554.3 1504.7 532.3 1504.7 532.3H1555.2C1567.7 532.3 1575.1 524.1 1576.8 517.1C1578 512.1 1576.4 500.3 1573.5 486.3H1527.6L1514.2 493.8L1515.2 498.1L1515.9 500.8Z" fill="#3442D9"/>
<path d="M1558 486.5C1563 511.5 1564 530.3 1545 538.9" stroke="#2330BF" stroke-width="2" stroke-miterlimit="10"/>
<path d="M1518.7 473.9C1518.7 473.9 1520.8 486.2 1523.7 500.8C1527 517.6 1526.1 517 1503.2 518.5C1483.1 519.8 1484.9 518.8 1480.7 541.7C1479.1 550.7 1476.3 567 1477.1 576C1477.1 576 1476.2 581.3 1476.4 582.4" stroke="#2467D4" stroke-width="2" stroke-linecap="round" stroke-linejoin="round"/>
<path d="M1504.7 532.3C1493.6 530.6 1488.2 520.6 1488.2 520.6" stroke="black" stroke-width="2" stroke-linecap="round" stroke-linejoin="round"/>
<path d="M1504.7 532.3C1502.43 530.962 1500.44 529.185 1498.87 527.073C1497.29 524.962 1496.14 522.557 1495.5 520" stroke="black" stroke-width="2" stroke-linecap="round" stroke-linejoin="round"/>
<path d="M1569.6 469.1C1567 458.3 1562.4 438.3 1558.1 419.6L1535.7 417.9L1518.4 430.1L1508.4 443.5L1503.3 450.4C1505.1 459 1506.6 466 1507.2 469C1504.5 491.4 1508 493.4 1514.1 493.4L1531.8 485.9L1572.8 483C1571.8 478.5 1570.7 473.8 1569.6 469.1Z" fill="#EB459F"/>
<path d="M1523.77 457.842C1525.03 450.382 1524.38 444.05 1522.31 443.7C1520.24 443.35 1517.54 449.114 1516.28 456.575C1515.01 464.035 1515.67 470.366 1517.74 470.716C1519.81 471.066 1522.51 465.302 1523.77 457.842Z" fill="black"/>
<path d="M1510.7 439.3C1511.7 437.5 1512.8 435.7 1513.9 434.1C1525.2 417.8 1535.8 413.4 1546 413.4H1558.7C1558.89 413.405 1559.07 413.455 1559.24 413.545C1559.41 413.635 1559.55 413.764 1559.66 413.92C1559.76 414.076 1559.83 414.255 1559.86 414.443C1559.88 414.631 1559.86 414.822 1559.8 415L1558.1 419.6C1538.6 419.6 1531.7 419 1515.5 436L1508.4 443.5L1510.7 439.3Z" fill="#D11583"/>
<path d="M1572.8 483H1539.7C1532.3 483 1523.2 482.6 1514.1 493.4L1515.2 498.1C1520.5 493 1525.4 490.8 1536 490.8H1574.4L1572.8 483Z" fill="black"/>
<path d="M1515.5 436.6C1508.8 437.8 1503.5 441.3 1500.5 447.5C1499.65 449.22 1498.42 450.724 1496.9 451.9L1478.9 465C1476.88 466.436 1475.47 468.579 1474.95 471.005C1474.43 473.431 1474.84 475.963 1476.1 478.1C1476.98 479.6 1478.23 480.842 1479.74 481.702C1481.25 482.562 1482.96 483.01 1484.7 483H1492.2C1507.8 474.3 1515 468.4 1518.7 465C1522.4 461.6 1526.5 455.5 1525.8 448.5C1525.1 441.5 1523.1 435.2 1515.5 436.6Z" fill="white"/>
<path d="M1521.1 384.9C1518.7 380.9 1515.5 375.6 1514.3 373.1C1513.1 370.6 1510.2 371.2 1514.3 382.4C1504.3 378.6 1502.2 380 1501.7 381.4C1501.2 382.8 1503.4 383.5 1507.6 385.9C1511.8 388.3 1516.3 391.2 1516.3 391.2L1521.1 384.9Z" fill="#66BCFF"/>
<path d="M1531.5 385.2C1533.2 383.1 1533.8 380.8 1532.8 380C1531.8 379.2 1530.7 379.6 1529.2 381.6C1528.55 382.413 1527.85 383.182 1527.1 383.9C1525.4 385.5 1525.8 386.7 1526.6 387.4C1527.4 388.1 1529.8 387.3 1531.5 385.2Z" fill="black"/>
<path d="M1548.5 379C1548.5 379 1536.6 373.6 1531.5 370.3C1526.4 367 1523.8 362.1 1526.1 360.8C1528.4 359.5 1532.8 362.6 1535.9 366.6C1535.8 359.5 1537 358 1538.9 357.9C1540.8 357.8 1541 360.6 1541.1 364.6C1541.2 368.6 1541.9 370.2 1544.9 372.9C1546.7 374.517 1547.95 376.646 1548.5 379Z" fill="#3442D9"/>
<path d="M1504.8 412.2C1502 412.2 1499.6 409.8 1501.8 405.6C1504 401.4 1511.2 397.2 1514.7 395.6C1518.2 394 1519.8 395.6 1519.9 396.8C1520 398 1519.5 399.8 1517 403C1514.5 406.2 1509.9 412.2 1504.8 412.2Z" fill="white"/>
<path d="M1507 411.9L1505.3 412.2L1502.9 404L1504.3 402.5L1507 411.9Z" fill="#8CD9FF"/>
<path d="M1513.2 407.5L1511.8 408.9L1509 398.8L1510.5 397.8L1513.2 407.5Z" fill="#8CD9FF"/>
<path d="M1518.8 400.5L1517.5 402.3L1515.5 395.3L1517.2 395L1518.8 400.5Z" fill="#8CD9FF"/>
<path d="M1516.6 394.1C1518.45 394.984 1520.36 395.753 1522.3 396.4" stroke="black" stroke-width="2" stroke-linecap="round" stroke-linejoin="round"/>
<path d="M1514.1 505.5L1525.1 518.9" stroke="black" stroke-width="2" stroke-linecap="round" stroke-linejoin="round"/>
<path d="M1522.7 501.5H1518.8L1517.6 496L1516.5 490.9C1517.51 489.907 1518.58 488.972 1519.7 488.1L1521 493.7L1522.7 501.5Z" fill="#3442D9"/>
<path d="M1540 496.2H1536.1L1534.9 490.8L1533.3 483.2H1537.2L1538.8 490.9L1540 496.2Z" fill="#3442D9"/>
<path d="M1571.9 496H1568L1566.8 490.8L1565.2 483H1569.1L1570.7 490.8L1571.9 496Z" fill="#3442D9"/>
<path d="M1561.2 432.8C1559.29 431.282 1556.94 430.407 1554.5 430.3C1549.3 430.3 1546.4 435.4 1545.4 440.3C1545.24 441.086 1544.82 441.792 1544.2 442.302C1543.58 442.812 1542.8 443.093 1542 443.1H1541.3C1540.85 443.017 1540.42 442.844 1540.04 442.59C1539.66 442.337 1539.33 442.009 1539.08 441.626C1538.82 441.243 1538.65 440.813 1538.57 440.362C1538.49 439.91 1538.5 439.447 1538.6 439C1540.5 429.5 1546.7 423.4 1554.5 423.4C1555.79 423.416 1557.04 423.87 1558.04 424.688C1559.04 425.505 1559.73 426.638 1560 427.9L1561.2 432.8Z" fill="white"/>
<path d="M1569.6 469.1C1569.82 469.994 1569.86 470.924 1569.71 471.832C1569.56 472.741 1569.23 473.61 1568.73 474.386C1568.23 475.162 1567.59 475.829 1566.82 476.347C1566.06 476.866 1565.2 477.224 1564.3 477.4L1561.8 477.6C1556.1 477.6 1550.2 474.2 1545.6 468.3C1545.33 467.932 1545.12 467.514 1545.01 467.069C1544.9 466.623 1544.87 466.16 1544.94 465.705C1545 465.25 1545.16 464.812 1545.39 464.417C1545.62 464.021 1545.93 463.676 1546.3 463.4C1546.66 463.111 1547.08 462.899 1547.53 462.777C1547.98 462.656 1548.44 462.627 1548.9 462.692C1549.36 462.758 1549.8 462.916 1550.2 463.159C1550.59 463.401 1550.93 463.721 1551.2 464.1C1554.4 468.2 1558.3 470.7 1561.8 470.7C1565.3 470.7 1567.4 468.7 1568.9 466.1C1569.1 467.2 1569.4 468.2 1569.6 469.1Z" fill="#2331B5"/>
<path d="M1562.9 440.5C1562.19 440.504 1561.51 440.727 1560.93 441.139C1560.36 441.551 1559.93 442.132 1559.7 442.8L1555.5 454.1C1555.13 455.161 1555.14 456.316 1555.52 457.372C1555.91 458.428 1556.64 459.32 1557.6 459.9C1558.03 460.167 1558.52 460.334 1559.03 460.386C1559.54 460.439 1560.05 460.376 1560.53 460.203C1561.01 460.03 1561.45 459.751 1561.81 459.387C1562.16 459.023 1562.44 458.583 1562.6 458.1L1565.3 450.8C1564.6 447.5 1563.8 444.1 1562.9 440.5Z" fill="#5866FC"/>
<path d="M1557.6 459.9C1556.64 459.32 1555.91 458.428 1555.52 457.372C1555.14 456.316 1555.13 455.161 1555.5 454.1L1556.7 451C1556.9 450.459 1557.22 449.968 1557.62 449.56C1558.03 449.153 1558.53 448.839 1559.07 448.639C1559.61 448.44 1560.19 448.36 1560.76 448.405C1561.34 448.45 1561.9 448.619 1562.4 448.9C1563.22 449.381 1563.85 450.132 1564.18 451.027C1564.51 451.921 1564.52 452.901 1564.2 453.8L1562.6 458.1C1562.44 458.583 1562.16 459.023 1561.81 459.387C1561.45 459.751 1561.01 460.03 1560.53 460.203C1560.05 460.376 1559.54 460.439 1559.03 460.386C1558.52 460.334 1558.03 460.168 1557.6 459.9Z" fill="#FFE75C"/>
<path d="M1504.6 475.9C1501.4 478.126 1497.8 479.721 1494 480.6" stroke="#A3D7FF" stroke-width="2" stroke-linecap="round" stroke-linejoin="round"/>
<path d="M1543.3 622.4H1525.8C1515.1 622.4 1505.2 613.8 1503.7 603.2C1502.2 592.6 1509 587 1520.5 584.5L1522.5 584C1524.12 583.661 1525.55 582.717 1526.5 581.361C1527.44 580.004 1527.84 578.337 1527.6 576.7C1527.41 575.107 1526.68 573.626 1525.53 572.5C1524.39 571.374 1522.9 570.669 1521.3 570.5L1518.4 570.2C1506 568.9 1497.8 561.6 1496.3 551C1494.8 540.4 1502.2 532.3 1512.6 532.3H1530.1C1540.8 532.3 1550.7 540.9 1552.2 551.5L1559.6 603.7C1561 614 1553.7 622.4 1543.3 622.4Z" fill="#ADB4FF"/>
<path d="M1563.6 622.4H1546.1C1535.4 622.4 1525.5 613.8 1524 603.2C1523.39 599.299 1524.24 595.311 1526.37 591.992C1528.51 588.673 1531.8 586.256 1535.6 585.2C1537 584.823 1538.22 583.941 1539.01 582.723C1539.81 581.505 1540.12 580.037 1539.9 578.6L1539.4 574.8C1539.21 573.591 1538.66 572.468 1537.82 571.576C1536.98 570.685 1535.9 570.066 1534.7 569.8C1525.6 567.9 1517.9 560.2 1516.6 551C1515.3 541.8 1522.5 532.3 1532.9 532.3H1550.4C1561.1 532.3 1571 540.9 1572.5 551.5L1579.9 603.7C1581.3 614 1574 622.4 1563.6 622.4Z" fill="white"/>
<path d="M1559.2 549.9C1559.27 550.4 1559.24 550.909 1559.09 551.393C1558.95 551.878 1558.7 552.325 1558.37 552.705C1558.04 553.085 1557.63 553.389 1557.17 553.595C1556.71 553.801 1556.21 553.905 1555.7 553.9H1537.3C1536.19 553.869 1535.12 553.454 1534.28 552.724C1533.45 551.994 1532.89 550.996 1532.7 549.9V549.3C1532.61 548.811 1532.63 548.307 1532.76 547.827C1532.89 547.347 1533.13 546.903 1533.46 546.528C1533.78 546.153 1534.19 545.856 1534.65 545.661C1535.11 545.466 1535.6 545.377 1536.1 545.4H1554.6C1555.7 545.426 1556.75 545.828 1557.59 546.537C1558.43 547.247 1559 548.222 1559.2 549.3V549.9Z" fill="#66BCFF"/>
<path d="M1551.2 557.3C1551.29 557.794 1551.27 558.302 1551.14 558.786C1551.01 559.271 1550.77 559.72 1550.44 560.103C1550.12 560.485 1549.71 560.791 1549.26 560.998C1548.8 561.205 1548.3 561.308 1547.8 561.3H1547.3C1546.19 561.269 1545.12 560.854 1544.28 560.124C1543.44 559.395 1542.89 558.396 1542.7 557.3L1540.5 541.9C1540.43 541.405 1540.46 540.9 1540.61 540.42C1540.75 539.941 1541 539.499 1541.33 539.126C1541.67 538.754 1542.08 538.46 1542.54 538.265C1543 538.07 1543.5 537.98 1544 538H1544.5C1545.6 538.026 1546.65 538.428 1547.49 539.137C1548.33 539.847 1548.89 540.822 1549.1 541.9L1551.2 557.3Z" fill="#66BCFF"/>
<path d="M1553.5 580.5C1553.53 580.705 1553.51 580.913 1553.46 581.112C1553.4 581.311 1553.3 581.496 1553.17 581.656C1553.04 581.816 1552.88 581.947 1552.69 582.04C1552.51 582.134 1552.31 582.188 1552.1 582.2H1551.8C1551.34 582.164 1550.91 581.979 1550.56 581.671C1550.22 581.364 1549.99 580.953 1549.9 580.5L1549 574.1C1548.97 573.891 1548.99 573.679 1549.05 573.477C1549.11 573.276 1549.22 573.092 1549.36 572.938C1549.51 572.784 1549.68 572.665 1549.88 572.589C1550.08 572.513 1550.29 572.483 1550.5 572.5H1550.7C1551.16 572.494 1551.6 572.653 1551.95 572.947C1552.3 573.24 1552.53 573.65 1552.6 574.1L1553.5 580.5Z" fill="#ADB4FF"/>
<path d="M1553.1 600.7C1552 600.674 1550.95 600.272 1550.11 599.563C1549.27 598.853 1548.71 597.878 1548.5 596.8V596.2C1548.41 595.711 1548.43 595.207 1548.56 594.727C1548.69 594.247 1548.93 593.803 1549.26 593.428C1549.58 593.053 1549.99 592.756 1550.45 592.561C1550.91 592.366 1551.4 592.277 1551.9 592.3H1552.4C1553.48 592.321 1554.53 592.709 1555.36 593.399C1556.2 594.088 1556.77 595.041 1557 596.1V596.8C1557.07 597.295 1557.04 597.8 1556.89 598.28C1556.75 598.759 1556.5 599.201 1556.17 599.574C1555.83 599.946 1555.42 600.24 1554.96 600.435C1554.5 600.63 1554 600.72 1553.5 600.7H1553.1Z" fill="#66BCFF"/>
<path d="M1555.7 615.6H1555.2C1554.1 615.593 1553.03 615.198 1552.19 614.485C1551.35 613.772 1550.79 612.786 1550.6 611.7V610.8C1550.56 610.32 1550.62 609.837 1550.78 609.382C1550.93 608.928 1551.19 608.511 1551.52 608.162C1551.85 607.812 1552.25 607.536 1552.7 607.353C1553.14 607.17 1553.62 607.084 1554.1 607.1H1554.6C1555.68 607.121 1556.73 607.509 1557.56 608.198C1558.4 608.888 1558.98 609.84 1559.2 610.9V611.6C1559.29 612.103 1559.27 612.619 1559.13 613.111C1559 613.603 1558.75 614.058 1558.41 614.442C1558.08 614.827 1557.66 615.13 1557.19 615.331C1556.72 615.531 1556.21 615.623 1555.7 615.6Z" fill="#FF78B9"/>
<path d="M1553.6 600.7H1553.1C1552 600.674 1550.95 600.272 1550.11 599.563C1549.27 598.853 1548.71 597.878 1548.5 596.8V596.2C1548.41 595.711 1548.43 595.207 1548.56 594.727C1548.69 594.247 1548.93 593.803 1549.26 593.428C1549.58 593.053 1549.99 592.756 1550.45 592.561C1550.91 592.366 1551.4 592.277 1551.9 592.3H1552.4C1553.48 592.321 1554.53 592.709 1555.36 593.399C1556.2 594.088 1556.77 595.041 1557 596.1V596.8C1557.07 597.287 1557.04 597.783 1556.9 598.255C1556.76 598.727 1556.52 599.164 1556.2 599.534C1555.88 599.905 1555.48 600.201 1555.03 600.403C1554.58 600.604 1554.09 600.705 1553.6 600.7Z" fill="#5866FC"/>
<path d="M1563.1 608.1C1562 608.074 1560.95 607.672 1560.11 606.963C1559.27 606.253 1558.71 605.278 1558.5 604.2V603.6C1558.41 603.111 1558.43 602.607 1558.56 602.127C1558.69 601.647 1558.93 601.203 1559.26 600.828C1559.58 600.453 1559.99 600.156 1560.45 599.961C1560.91 599.766 1561.4 599.677 1561.9 599.7H1562.4C1563.48 599.721 1564.53 600.109 1565.36 600.799C1566.2 601.488 1566.77 602.441 1567 603.5V604.2C1567.09 604.689 1567.07 605.193 1566.94 605.673C1566.81 606.153 1566.57 606.597 1566.24 606.972C1565.92 607.347 1565.51 607.644 1565.05 607.839C1564.59 608.034 1564.1 608.124 1563.6 608.1H1563.1Z" fill="#66BCFF"/>
<path d="M1563.6 608.1H1563.1C1562 608.074 1560.95 607.672 1560.11 606.963C1559.27 606.253 1558.71 605.278 1558.5 604.2V603.6C1558.41 603.111 1558.43 602.607 1558.56 602.127C1558.69 601.647 1558.93 601.203 1559.26 600.828C1559.58 600.453 1559.99 600.156 1560.45 599.961C1560.91 599.766 1561.4 599.677 1561.9 599.7H1562.4C1563.48 599.721 1564.53 600.109 1565.36 600.799C1566.2 601.488 1566.77 602.441 1567 603.5V604.2C1567.09 604.689 1567.07 605.193 1566.94 605.673C1566.81 606.153 1566.57 606.597 1566.24 606.972C1565.92 607.347 1565.51 607.644 1565.05 607.839C1564.59 608.034 1564.1 608.124 1563.6 608.1Z" fill="#5866FC"/>
<path d="M1545.7 608.3H1545.1C1544 608.265 1542.95 607.846 1542.13 607.115C1541.3 606.384 1540.76 605.388 1540.6 604.3V603.4C1540.54 602.926 1540.59 602.445 1540.73 601.99C1540.88 601.535 1541.12 601.117 1541.45 600.765C1541.77 600.413 1542.17 600.136 1542.61 599.952C1543.05 599.768 1543.52 599.682 1544 599.7H1544.6C1545.68 599.749 1546.71 600.16 1547.53 600.868C1548.35 601.576 1548.9 602.538 1549.1 603.6V604.2C1549.21 604.701 1549.2 605.22 1549.07 605.717C1548.95 606.214 1548.72 606.677 1548.39 607.071C1548.06 607.465 1547.65 607.781 1547.19 607.994C1546.72 608.206 1546.21 608.311 1545.7 608.3Z" fill="#FF78B9"/>
<path d="M1383.4 602.4L1373.7 597C1381.31 584.461 1389.7 572.404 1398.8 560.9C1380.9 567.4 1362.1 575.5 1341.3 575.5H1306.5C1304.4 571.2 1303.8 566.8 1303.8 560.2L1346.3 544.7L1362.4 548L1362.9 552.6C1378.3 548.7 1394.2 544.2 1405.7 541.5C1420.2 538.1 1425.1 545.4 1416.7 557.6C1400.5 581.2 1383.4 602.4 1383.4 602.4Z" fill="#29CC7A"/>
<path d="M1316.1 556.2C1316.1 564.7 1316.1 570.7 1320.2 574.1C1321.19 574.995 1322.47 575.493 1323.8 575.5H1328C1317.8 573.8 1317.8 568.3 1317.9 556.2V555.4C1317.9 555.3 1317.8 555.2 1317.8 555.1L1316.1 555.7V556.2Z" fill="#15AD75"/>
<path d="M1383.4 597.9C1399 577.3 1409 563 1413.2 556.3C1417.4 549.6 1418.8 545.4 1397.6 552.6C1376.4 559.8 1360.3 566.3 1355.6 564.5C1350.9 562.7 1352.6 557.9 1352.9 549.4" stroke="#15AD75" stroke-width="2" stroke-linecap="round" stroke-linejoin="round"/>
<path d="M1321 500.8C1313.83 489.764 1307.93 477.957 1303.4 465.6C1302.76 463.545 1302.62 461.368 1302.98 459.247C1303.35 457.126 1304.21 455.122 1305.5 453.4C1312.8 444.6 1322.4 439.9 1335.2 437.7C1336.59 437.546 1337.99 437.941 1339.1 438.8C1354.3 452.1 1358.8 467.1 1361.4 481.7C1361.47 482.543 1361.32 483.388 1360.97 484.158C1360.62 484.927 1360.08 485.595 1359.4 486.1C1351.9 490.7 1347.9 492.1 1347.9 492.1L1349.4 503.2L1321 500.8Z" fill="#FFE75C"/>
<path d="M1335.5 463.5C1342.99 464.196 1350.44 465.331 1357.8 466.9L1361.9 468C1362.05 468.042 1362.19 468.123 1362.3 468.234C1362.41 468.345 1362.49 468.484 1362.53 468.635C1362.57 468.787 1362.57 468.947 1362.53 469.098C1362.49 469.25 1362.41 469.388 1362.3 469.5L1361.4 470.3L1363 476.5C1363.52 478.396 1363.39 480.412 1362.62 482.224C1361.86 484.036 1360.52 485.542 1358.8 486.5L1355.1 488.6L1335.5 463.5Z" fill="#FFE75C"/>
<path d="M1338.71 470.868C1340.61 469.541 1340.23 465.711 1337.86 462.314C1335.49 458.916 1332.03 457.238 1330.12 458.565C1328.22 459.893 1328.6 463.722 1330.97 467.12C1333.34 470.517 1336.8 472.195 1338.71 470.868Z" fill="#FF78B9"/>
<path d="M1350.5 457C1349.3 455.9 1348 455.6 1347.5 456.1C1347 456.6 1347.3 457.4 1348.4 458.2L1349.7 459.5C1350.6 460.5 1351.3 460.3 1351.7 459.8C1352.1 459.3 1351.7 458 1350.5 457Z" fill="black"/>
<path d="M1310.8 448.1C1309.2 432 1310.8 426.6 1314.2 421.9C1317.6 417.2 1319.6 418.6 1319 424.8C1318.64 429.661 1318.67 434.544 1319.1 439.4C1322.06 431.824 1326.36 424.846 1331.8 418.8C1333.41 416.846 1335.57 415.418 1338 414.7C1340.4 414.1 1341.7 415.5 1341 417.8C1339.8 421.7 1336.9 427.9 1329.1 439L1329.9 443.4L1310.8 448.1Z" fill="#FFE75C"/>
<path d="M1357.5 510.3C1366 513.2 1360 539.8 1360 539.8L1361.2 540.7C1362.18 541.451 1362.88 542.516 1363.17 543.717C1363.46 544.918 1363.33 546.183 1362.8 547.3L1362.4 548C1356.5 548 1352.6 548.5 1344.6 554.2C1336.6 559.9 1331.5 560.2 1323.3 560.2H1303.8V553.6C1296.5 550.7 1295.9 547.2 1298.7 542.7C1300.2 540.1 1302.6 536.5 1304.4 533.8C1305.09 532.768 1305.57 531.609 1305.81 530.39C1306.05 529.171 1306.05 527.917 1305.8 526.7C1304.2 518.1 1305.5 513 1305.5 513L1326.7 507.3L1353.6 506.2L1357.5 510.3Z" fill="#2331B5"/>
<path d="M1356.87 534.794C1359.44 534.116 1360.34 529.109 1358.88 523.609C1357.43 518.109 1354.17 514.2 1351.61 514.877C1349.05 515.554 1348.15 520.562 1349.6 526.061C1351.05 531.561 1354.31 535.471 1356.87 534.794Z" fill="black"/>
<path d="M1369.9 597.6C1372.3 595.1 1377.5 590.9 1377.5 590.9C1380.8 590.9 1385.8 591.5 1388 600.6L1390.7 611.3C1401 613.2 1401.1 616.1 1399.7 619.9V621.6C1399.7 621.812 1399.62 622.016 1399.47 622.166C1399.32 622.316 1399.11 622.4 1398.9 622.4H1381.7L1369.9 597.6Z" fill="white"/>
<path d="M1398.9 622.4C1399.11 622.4 1399.32 622.316 1399.47 622.166C1399.62 622.016 1399.7 621.812 1399.7 621.6V619.9C1392.9 619.9 1387.9 620.6 1385.4 616.2C1382.72 610.876 1380.35 605.4 1378.3 599.8C1377.4 597.2 1375.5 594.1 1372.6 595L1369.9 597.6L1381.7 622.4H1398.9Z" fill="#FF78B9"/>
<path d="M1391.6 622.4C1389.79 622.428 1388 621.992 1386.41 621.134C1384.82 620.277 1383.47 619.026 1382.5 617.5C1378.8 611.9 1376.5 605.2 1375.1 601.1C1373.7 597 1369.2 595.4 1368.8 600.6C1368.4 605.8 1371.1 609.8 1375.3 620.2C1375.53 620.858 1375.97 621.425 1376.54 621.821C1377.12 622.216 1377.8 622.419 1378.5 622.4H1391.6Z" fill="black"/>
<path d="M1357.5 510.3L1373.3 515.7C1374.9 493.6 1381.6 487.3 1389.4 469.7C1395 457.2 1397.6 451.5 1398.7 449.3C1398.86 448.933 1399.13 448.622 1399.47 448.408C1399.8 448.194 1400.2 448.087 1400.6 448.1H1401.2C1401.51 448.099 1401.81 448.162 1402.09 448.284C1402.37 448.407 1402.62 448.587 1402.83 448.813C1403.04 449.039 1403.2 449.306 1403.29 449.597C1403.39 449.887 1403.43 450.195 1403.4 450.5C1402.41 456.407 1400.83 462.202 1398.7 467.8C1403.4 464.6 1405.5 464.6 1407.7 467.9C1413.1 465.1 1415.1 465 1417 469.2C1418.9 473.4 1418.6 474.2 1417.6 477.6C1416.6 481 1415.1 481.3 1412.8 481.3C1412.8 504.5 1411.3 513.2 1400.4 528.8C1390.7 542.7 1390.2 541 1377 536.8C1369.4 534.4 1361.9 531.7 1357 529.8C1354.16 528.766 1351.77 526.768 1350.26 524.155C1348.74 521.541 1348.19 518.478 1348.7 515.5C1349.6 511.3 1352.4 508.6 1357.5 510.3Z" fill="#FFE75C"/>
<path d="M1357.5 510.3C1358.04 509.663 1358.54 508.996 1359 508.3C1359.27 507.929 1359.45 507.505 1359.54 507.056C1359.63 506.608 1359.62 506.145 1359.52 505.7C1359.42 505.254 1359.22 504.836 1358.94 504.474C1358.66 504.112 1358.3 503.814 1357.9 503.6C1330.6 488.6 1321 486.8 1306 486.8C1296.3 486.8 1296.8 489.3 1297.7 493.9C1290.8 500.3 1290.9 502.5 1295.7 508.8C1300.5 515.1 1302 517.6 1306.5 517.6C1311 517.6 1321.5 517.7 1330.7 513C1339.9 508.3 1344.3 505.9 1357.5 510.3Z" fill="white"/>
<path d="M1357.1 465C1346 463.1 1334.7 461.9 1334.6 461.9C1334.49 461.886 1334.37 461.896 1334.26 461.93C1334.15 461.963 1334.05 462.02 1333.97 462.096C1333.88 462.172 1333.82 462.265 1333.77 462.369C1333.72 462.473 1333.7 462.586 1333.7 462.7C1333.67 462.924 1333.72 463.152 1333.85 463.337C1333.98 463.522 1334.18 463.652 1334.4 463.7C1334.6 463.7 1346.4 464.9 1357.8 466.9C1357.6 466.3 1357.4 465.7 1357.1 465Z" fill="black"/>
<path d="M1334.8 461.4C1334.21 462.263 1333.67 463.165 1333.2 464.1" stroke="black" stroke-width="2" stroke-linecap="round" stroke-linejoin="round"/>
<path d="M1373.3 515.7L1379.9 517.6" stroke="black" stroke-width="2" stroke-linecap="round" stroke-linejoin="round"/>
<path d="M1316.4 446.7C1316.3 447.077 1316.16 447.445 1316 447.8C1315.93 447.961 1315.82 448.102 1315.68 448.207C1315.54 448.312 1315.37 448.379 1315.2 448.4H1314.9C1314.79 448.367 1314.69 448.312 1314.6 448.236C1314.52 448.161 1314.45 448.068 1314.4 447.964C1314.35 447.86 1314.33 447.746 1314.33 447.632C1314.33 447.517 1314.35 447.404 1314.4 447.3C1314.5 447 1316.6 440.8 1318.5 436.4C1318.58 436.222 1318.72 436.08 1318.9 436C1318.9 437.2 1319 438.3 1319.1 439.5C1319.2 440.7 1317 444.9 1316.4 446.7Z" fill="#FFC619"/>
<path d="M1409.8 511C1410.16 509.937 1410.27 508.805 1410.11 507.693C1409.95 506.582 1409.54 505.523 1408.9 504.6C1408.46 504.077 1407.95 503.607 1407.4 503.2C1406.16 502.492 1404.74 502.145 1403.31 502.198C1401.88 502.251 1400.49 502.702 1399.3 503.5C1399.9 500.1 1400.7 493.9 1400.1 489.2C1399.5 484.5 1397.7 485.1 1396.6 484.9C1393.4 484.3 1389 487.7 1385.1 493.8C1384.4 490.5 1383.4 488.9 1381.8 488.5C1381.36 488.412 1380.91 488.473 1380.51 488.672C1380.11 488.871 1379.79 489.198 1379.6 489.6L1378.1 493.2C1380.1 490.2 1381.2 490.2 1381.5 490.2C1381.8 490.2 1383.1 491 1383.8 496.4C1383.82 496.578 1383.9 496.744 1384.03 496.871C1384.16 496.998 1384.32 497.079 1384.5 497.1C1384.69 497.136 1384.88 497.117 1385.06 497.046C1385.24 496.975 1385.39 496.855 1385.5 496.7C1389.6 489.2 1394 486.2 1396.3 486.6C1398.6 487 1398.2 488.3 1398.3 489.5C1399.2 495.6 1397.2 505.3 1397.2 505.4C1397.17 505.573 1397.2 505.75 1397.27 505.91C1397.34 506.069 1397.45 506.205 1397.6 506.3C1397.78 506.382 1397.97 506.416 1398.16 506.398C1398.36 506.381 1398.54 506.312 1398.7 506.2C1400.9 503.9 1404.3 503.3 1406.4 504.7C1408.5 506.1 1409.5 511.2 1407.2 517.5C1408.25 515.413 1409.13 513.238 1409.8 511Z" fill="#FFF4B3"/>
<path d="M1393.2 470.1C1396.6 468.2 1397.8 467.1 1400.8 470.1C1404.8 468 1405.6 468 1407.8 471.2" stroke="#FFC619" stroke-width="2" stroke-linecap="round" stroke-linejoin="round"/>
<path d="M1414.6 480.9C1414.5 478.1 1414.2 473.8 1414.1 473.7C1414.1 473.586 1414.08 473.473 1414.03 473.369C1413.98 473.265 1413.92 473.172 1413.83 473.096C1413.75 473.02 1413.65 472.963 1413.54 472.93C1413.43 472.896 1413.31 472.886 1413.2 472.9C1413.09 472.899 1412.97 472.923 1412.87 472.969C1412.76 473.015 1412.67 473.083 1412.6 473.169C1412.52 473.254 1412.46 473.354 1412.43 473.463C1412.4 473.572 1412.39 473.687 1412.4 473.8C1412.4 473.9 1412.8 478.2 1412.8 481C1412.79 481.054 1412.8 481.109 1412.82 481.16C1412.84 481.212 1412.86 481.259 1412.9 481.3H1414.5L1414.6 480.9Z" fill="black"/>
<path d="M1415.7 477.5H1413.5C1413.38 477.5 1413.27 477.477 1413.16 477.432C1413.05 477.386 1412.95 477.32 1412.86 477.236C1412.78 477.153 1412.71 477.054 1412.67 476.944C1412.62 476.835 1412.6 476.718 1412.6 476.6C1412.63 476.379 1412.73 476.175 1412.9 476.027C1413.06 475.88 1413.28 475.799 1413.5 475.8H1415.7C1415.92 475.799 1416.14 475.88 1416.3 476.027C1416.47 476.175 1416.58 476.379 1416.6 476.6C1416.6 476.718 1416.58 476.835 1416.53 476.944C1416.49 477.054 1416.42 477.153 1416.34 477.236C1416.25 477.32 1416.15 477.386 1416.04 477.432C1415.94 477.477 1415.82 477.5 1415.7 477.5Z" fill="black"/>
<path d="M1384.5 535.4C1386.61 535.348 1388.72 535.148 1390.8 534.8" stroke="#FFC619" stroke-width="2" stroke-linecap="round" stroke-linejoin="round"/>
<path d="M1320.5 557.2C1309.1 555.8 1304 553.7 1303.9 553.7H1303.8V555.5C1305.5 556.1 1310.6 557.7 1320.3 559H1320.4C1320.62 559.001 1320.84 558.92 1321 558.773C1321.17 558.625 1321.28 558.421 1321.3 558.2C1321.31 558.082 1321.3 557.962 1321.27 557.847C1321.24 557.733 1321.18 557.626 1321.11 557.533C1321.03 557.44 1320.94 557.363 1320.84 557.305C1320.73 557.248 1320.62 557.212 1320.5 557.2Z" fill="black"/>
<path d="M1362.9 552.6C1360.35 553.413 1358.04 554.858 1356.2 556.8" stroke="black" stroke-width="2" stroke-linecap="round" stroke-linejoin="round"/>
<path d="M1399.7 560.9C1403.74 559.112 1407.65 557.04 1411.4 554.7" stroke="black" stroke-width="2" stroke-linecap="round" stroke-linejoin="round"/>
<path d="M1401.7 560L1407 560.2" stroke="black" stroke-width="2" stroke-linecap="round" stroke-linejoin="round"/>
<path d="M1298.6 493.4C1315.2 491.8 1327 495.6 1343.3 502.9C1327 501.8 1307.8 501.2 1307.8 501.2" stroke="#BAE8FF" stroke-width="2" stroke-linecap="round" stroke-linejoin="round"/>
<path d="M1294.1 575.5H1360.7C1361.65 575.5 1362.57 575.879 1363.25 576.554C1363.92 577.23 1364.3 578.145 1364.3 579.1V622.4H1290.5V579.1C1290.5 578.145 1290.88 577.23 1291.55 576.554C1292.23 575.879 1293.15 575.5 1294.1 575.5Z" fill="#8CD9FF"/>
<path d="M1357.7 575.5H1360.7C1361.65 575.5 1362.57 575.879 1363.25 576.554C1363.92 577.23 1364.3 578.145 1364.3 579.1V622.4H1354.1V579.1C1354.1 578.627 1354.19 578.159 1354.37 577.722C1354.55 577.286 1354.82 576.889 1355.15 576.554C1355.49 576.22 1355.89 575.955 1356.32 575.774C1356.76 575.593 1357.23 575.5 1357.7 575.5Z" fill="#45AAF7"/>
<path d="M1300.3 608.6H1344.3C1345.1 608.6 1345.86 608.916 1346.42 609.479C1346.98 610.041 1347.3 610.804 1347.3 611.6V622.4H1297.4V611.6C1297.4 610.821 1297.7 610.073 1298.24 609.513C1298.78 608.953 1299.52 608.626 1300.3 608.6Z" fill="#45AAF7"/>
<path d="M1302.3 575.5V622.4" stroke="#5866FC" stroke-width="2" stroke-miterlimit="10"/>
<path d="M1342.2 575.5V622.4" stroke="#5866FC" stroke-width="2" stroke-miterlimit="10"/>
<path d="M1344.7 579.1H1299.8C1298.42 579.1 1297.3 580.219 1297.3 581.6V597.59C1297.3 598.971 1298.42 600.09 1299.8 600.09H1344.7C1346.08 600.09 1347.2 598.971 1347.2 597.59V581.6C1347.2 580.219 1346.08 579.1 1344.7 579.1Z" fill="black"/>
<path d="M1353.2 582.5C1353.06 582.484 1352.93 582.499 1352.8 582.543C1352.67 582.588 1352.55 582.661 1352.46 582.757C1352.36 582.854 1352.29 582.97 1352.24 583.099C1352.2 583.228 1352.18 583.365 1352.2 583.5C1352.2 583.765 1352.31 584.02 1352.49 584.207C1352.68 584.395 1352.93 584.5 1353.2 584.5H1364.3V582.5H1353.2Z" fill="#5866FC"/>
<path d="M1352.2 587.8C1352.18 587.935 1352.2 588.072 1352.24 588.201C1352.29 588.33 1352.36 588.446 1352.46 588.543C1352.55 588.639 1352.67 588.712 1352.8 588.757C1352.93 588.801 1353.06 588.816 1353.2 588.8H1364.3V586.8H1353.2C1352.93 586.8 1352.68 586.905 1352.49 587.093C1352.31 587.28 1352.2 587.535 1352.2 587.8Z" fill="#5866FC"/>
<path d="M1352.2 592.2C1352.2 592.465 1352.31 592.72 1352.49 592.907C1352.68 593.095 1352.93 593.2 1353.2 593.2H1364.3V591.2H1353.2C1353.06 591.184 1352.93 591.199 1352.8 591.243C1352.67 591.288 1352.55 591.361 1352.46 591.457C1352.36 591.554 1352.29 591.671 1352.24 591.799C1352.2 591.928 1352.18 592.065 1352.2 592.2Z" fill="#5866FC"/>
<path d="M1292.3 583.5C1292.28 583.758 1292.16 583.999 1291.98 584.182C1291.8 584.365 1291.56 584.477 1291.3 584.5H1290.5V582.5H1291.3C1291.57 582.5 1291.82 582.605 1292.01 582.793C1292.19 582.98 1292.3 583.235 1292.3 583.5Z" fill="#5866FC"/>
<path d="M1292.3 587.8C1292.3 588.065 1292.19 588.32 1292.01 588.507C1291.82 588.695 1291.57 588.8 1291.3 588.8H1290.5V586.8H1291.3C1291.56 586.823 1291.8 586.935 1291.98 587.118C1292.16 587.301 1292.28 587.542 1292.3 587.8Z" fill="#5866FC"/>
<path d="M1292.3 592.2C1292.28 592.458 1292.16 592.699 1291.98 592.882C1291.8 593.065 1291.56 593.178 1291.3 593.2H1290.5V591.2H1291.3C1291.57 591.2 1291.82 591.305 1292.01 591.493C1292.19 591.68 1292.3 591.935 1292.3 592.2Z" fill="#5866FC"/>
<path d="M1331.9 580.6H1302.6C1301.88 580.6 1301.3 581.182 1301.3 581.9V595.75C1301.3 596.468 1301.88 597.05 1302.6 597.05H1331.9C1332.62 597.05 1333.2 596.468 1333.2 595.75V581.9C1333.2 581.182 1332.62 580.6 1331.9 580.6Z" fill="#FFF4B3"/>
<path d="M1344.3 597.1H1336.3C1335.8 597.1 1335.4 597.503 1335.4 598V599.22C1335.4 599.717 1335.8 600.12 1336.3 600.12H1344.3C1344.8 600.12 1345.2 599.717 1345.2 599.22V598C1345.2 597.503 1344.8 597.1 1344.3 597.1Z" fill="#FF78B9"/>
<path d="M1313.1 582.5C1313.1 584.94 1314.07 587.28 1315.79 589.005C1317.52 590.731 1319.86 591.7 1322.3 591.7C1324.74 591.7 1327.08 590.731 1328.81 589.005C1330.53 587.28 1331.5 584.94 1331.5 582.5C1331.49 581.862 1331.42 581.226 1331.3 580.6H1313.3C1313.13 581.218 1313.06 581.86 1313.1 582.5Z" fill="#29CC7A"/>
<path d="M1304 597.1H1319C1318.15 595.903 1317.02 594.927 1315.72 594.253C1314.42 593.58 1312.97 593.228 1311.5 593.228C1310.03 593.228 1308.58 593.58 1307.28 594.253C1305.98 594.927 1304.85 595.903 1304 597.1Z" fill="#29CC7A"/>
</g>
</g>
<defs>
<clipPath id="clip0_1_2">
<rect width="2560" height="626" fill="white"/>
</clipPath>
<clipPath id="clip1_1_2">
<rect width="615" height="360" fill="white" transform="translate(1266 263)"/>
</clipPath>
</defs>
</svg>
